<?xml version="1.0" encoding="UTF-8" standalone="no"?>
<svg
   xmlns:dc="http://purl.org/dc/elements/1.1/"
   xmlns:cc="http://creativecommons.org/ns#"
   xmlns:rdf="http://www.w3.org/1999/02/22-rdf-syntax-ns#"
   xmlns:svg="http://www.w3.org/2000/svg"
   xmlns="http://www.w3.org/2000/svg"
   xmlns:sodipodi="http://sodipodi.sourceforge.net/DTD/sodipodi-0.dtd"
   xmlns:inkscape="http://www.inkscape.org/namespaces/inkscape"
   sodipodi:docname="gear2.svg"
   inkscape:version="1.0 (4035a4fb49, 2020-05-01)"
   id="svg4207"
   version="1.1"
   viewBox="0 0 121.17914 59.795895"
   height="226"
   width="458">
  <defs
     id="defs4201" />
  <sodipodi:namedview
     inkscape:window-maximized="1"
     inkscape:window-y="32"
     inkscape:window-x="892"
     inkscape:window-height="1017"
     inkscape:window-width="2560"
     units="px"
     showgrid="false"
     inkscape:document-rotation="0"
     inkscape:current-layer="layer1"
     inkscape:document-units="mm"
     inkscape:cy="169.33445"
     inkscape:cx="342.26281"
     inkscape:zoom="1.979899"
     inkscape:pageshadow="2"
     inkscape:pageopacity="0.0"
     borderopacity="1.0"
     bordercolor="#666666"
     pagecolor="#ffffff"
     id="base" />
  <metadata
     id="metadata4204">
    <rdf:RDF>
      <cc:Work
         rdf:about="">
        <dc:format>image/svg+xml</dc:format>
        <dc:type
           rdf:resource="http://purl.org/dc/dcmitype/StillImage" />
        <dc:title></dc:title>
      </cc:Work>
    </rdf:RDF>
  </metadata>
  <g
     id="layer1"
     inkscape:groupmode="layer"
     inkscape:label="Слой 1">
    <path
       id="path56763"
       d="m 68.879177,16.225585 -0.03989,1.259311 0.880384,0.25839 0.648513,-1.080197 c 0.25376,0.03991 0.509095,0.0659 0.768347,0.07152 l 0.440191,1.198254 0.912898,-0.09256 0.192811,-1.260524 c 0.277787,-0.0637 0.54878,-0.148045 0.811692,-0.24994 l 0.866356,0.921081 0.805186,-0.437504 -0.306877,-1.224898 c 0.208626,-0.151113 0.406898,-0.313361 0.592785,-0.491053 l 1.149944,0.529222 0.579839,-0.710082 -0.74671,-1.018174 c 0.150261,-0.238174 0.283749,-0.489811 0.398149,-0.748571 l 1.262504,0.04112 0.25837,-0.880426 -1.083378,-0.649651 c 0.0387,-0.250594 0.0615,-0.507117 0.0703,-0.765202 l 1.200263,-0.435812 -0.09254,-0.9128855 -1.263761,-0.194004 c -0.0637,-0.277784 -0.148031,-0.548751 -0.249912,-0.811687 l 0.918701,-0.859945 -0.440706,-0.806382 -1.223718,0.303654 C 76.037821,6.9700155 75.871234,6.7737465 75.697866,6.5858775 L 76.225903,5.4390795 75.515856,4.8592474 74.495639,5.6016045 C 74.256304,5.4545035 74.004668,5.3210295 73.747062,5.2034485 L 73.787007,3.9441469 72.906625,3.6857634 72.258109,4.7659592 C 72.004353,4.7260502 71.749004,4.7001312 71.489701,4.6944502 L 71.049517,3.4961974 70.137859,3.5855584 69.945,4.8460673 c -0.277739,0.063698 -0.548742,0.148088 -0.811656,0.2499899 L 68.267008,4.174942 67.461813,4.6124456 67.76869,5.8373492 c -0.208681,0.151113 -0.40493,0.317721 -0.592796,0.491089 l -1.147972,-0.524869 -0.579836,0.710082 0.745525,1.021363 c -0.150257,0.238145 -0.282566,0.486622 -0.398106,0.748592 l -1.262505,-0.04112 -0.25722,0.877194 1.083425,0.649701 c -0.03873,0.2506008 -0.06151,0.5071168 -0.07039,0.7651808 l -1.201403,0.439023 0.09255,0.912864 1.263698,0.194004 c 0.06368,0.277784 0.148098,0.548736 0.249969,0.811707 l -0.919875,0.863106 0.440695,0.80641 1.226887,-0.30251 c 0.151093,0.208646 0.317679,0.404916 0.491038,0.592792 l -0.528023,1.146762 0.710049,0.579833 1.020214,-0.742336 c 0.230955,0.140333 0.482589,0.273828 0.744544,0.389371 m 0.360473,-6.2802318 c 0.424524,-1.141721 1.695217,-1.718322 2.836935,-1.2938 1.141715,0.424523 1.725872,1.6944408 1.302534,2.8329728 -0.424511,1.141692 -1.696441,1.721468 -2.838159,1.296938 -1.141715,-0.424516 -1.72582,-1.694426 -1.30131,-2.8361108"
       class="st9"
       inkscape:connector-curvature="0"
       style="display:inline;fill:#e1e7e9;fill-opacity:1;stroke:none;stroke-width:0.258872;stroke-miterlimit:4;stroke-dasharray:none;stroke-opacity:1"
       mask="url(#SVGID_4_)"
       inkscape:export-xdpi="523"
       inkscape:export-ydpi="523"
       clip-path="url(#SVGID_84_)" />
    <path
       mask="url(#SVGID_4_)"
       style="display:inline;fill:#e1e7e9;fill-opacity:1;stroke:none;stroke-width:0.364548;stroke-miterlimit:4;stroke-dasharray:none;stroke-opacity:1"
       inkscape:connector-curvature="0"
       class="st9"
       d="m 55.540037,54.910942 c 0.45441,0.14832 0.93784,-0.13331 1.04379,-0.60344 l 0.0853,-0.39519 c 0.13576,-0.62434 0.68667,-1.08744 1.32504,-1.06346 0.8197,0.0362 1.37551,0.80064 1.21219,1.57308 l -0.0751,0.35076 c -0.10203,0.47851 0.23908,0.94963 0.73019,0.98076 0.24252,0.0144 0.48507,0.0289 0.72982,0.0373 0.47741,0.0122 0.86907,-0.39297 0.83447,-0.87405 l -0.0291,-0.40328 c -0.0456,-0.6367 0.35691,-1.23759 0.97283,-1.39412 0.79718,-0.19941 1.5473,0.37565 1.60012,1.15961 l 0.0267,0.35419 c 0.0362,0.4954 0.49791,0.84611 0.97947,0.736 0.23254,-0.0513 0.47335,-0.10629 0.70433,-0.17189 0.46347,-0.11695 0.72569,-0.61847 0.55751,-1.07347 l -0.14922,-0.41352 c -0.25266,-0.6724 0.0935,-1.41816 0.75979,-1.67297 v 0 c 0.23845,-0.64127 1.14113,-0.64304 1.37857,-0.004 l 0.40567,1.09423 c 0.17197,0.4633 0.71647,0.66576 1.14702,0.43362 0.21422,-0.11321 0.42461,-0.23464 0.63129,-0.36435 0.41097,-0.25346 0.51967,-0.80523 0.23462,-1.18659 l -0.26157,-0.35205 c -0.42163,-0.56992 -0.30982,-1.38903 0.26231,-1.81669 0.57443,-0.43366 1.3913,-0.31585 1.81061,0.26009 l 0.21687,0.28724 c 0.29487,0.39199 0.87138,0.43414 1.22243,0.0827 0.17323,-0.1697 0.33668,-0.34987 0.50388,-0.52185 0.32687,-0.36047 0.27247,-0.91778 -0.1076,-1.21054 l -0.35046,-0.26117 c -0.57154,-0.42594 -0.68632,-1.24674 -0.26038,-1.81818 v 0 c 0.42591,-0.57151 1.2407,-0.68859 1.81217,-0.26272 l 0.28083,0.20778 c 0.3982,0.29949 0.96206,0.17175 1.19954,-0.26323 0.11308,-0.21269 0.22062,-0.4275 0.3306,-0.64821 0.20883,-0.43193 0.0102,-0.95338 -0.44347,-1.12205 l -0.40537,-0.15074 c -0.67146,-0.24967 -1.01345,-0.99653 -0.76378,-1.66801 v 0 c 0.24968,-0.67147 0.99654,-1.01347 1.66801,-0.7638 l 0.32666,0.12147 c 0.45976,0.17094 0.96966,-0.10767 1.07787,-0.58388 0.0556,-0.241 0.096,-0.4807 0.13696,-0.72026 0.0856,-0.47084 -0.25864,-0.91555 -0.74137,-0.95049 l -0.40348,-0.0261 c -0.63157,-0.042 -1.17232,-0.53228 -1.22848,-1.15906 -0.0801,-0.82165 0.59397,-1.48687 1.38061,-1.4353 l 0.35662,0.0224 c 0.49716,0.0334 0.90538,-0.37943 0.867,-0.86883 -0.0203,-0.24171 -0.0406,-0.48338 -0.0669,-0.72727 -0.055,-0.48173 -0.5076,-0.80157 -0.97862,-0.70129 l -0.43415,0.0933 c -0.69147,0.15605 -1.38687,-0.28845 -1.54068,-0.98601 v 0 c -0.15376,-0.6975 0.29297,-1.39902 0.98828,-1.54669 l 0.34577,-0.0781 c 0.48543,-0.1018 0.76043,-0.61919 0.59446,-1.08035 -0.0883,-0.22551 -0.17648,-0.45117 -0.27083,-0.67904 -0.18702,-0.44133 -0.71554,-0.63103 -1.14005,-0.39687 l -0.38088,0.20954 c -0.6222,0.34012 -1.413,0.11499 -1.75689,-0.51557 -0.33792,-0.6283 -0.10672,-1.41682 0.51779,-1.76296 l 0.31224,-0.17312 c 0.43295,-0.23837 0.56055,-0.80374 0.26181,-1.20404 -0.14032,-0.19674 -0.29115,-0.38367 -0.44804,-0.57287 -0.30169,-0.37383 -0.86222,-0.40322 -1.20272,-0.0616 l -0.31111,0.3181 c -0.5032,0.50151 -1.3243,0.50606 -1.83179,7.3e-4 v 0 c -0.50146,-0.50318 -0.50377,-1.3303 0.002,-1.83785 l 0.2516,-0.25073 c 0.35103,-0.35145 0.31202,-0.93058 -0.0865,-1.23026 -0.19531,-0.14133 -0.39054,-0.2829 -0.59192,-0.42659 -0.39501,-0.2709 -0.9408,-0.13644 -1.17156,0.28045 l -0.20711,0.39115 c -0.34194,0.62343 -1.13224,0.85982 -1.75785,0.52385 -0.62333,-0.34194 -0.85746,-1.1382 -0.51553,-1.76157 l 0.17234,-0.31469 c 0.23538,-0.428882 0.0396,-0.976772 -0.42016,-1.147712 0,0 -0.007,-0.002 -0.007,-0.002 -0.22991,-0.0855 -0.45371,-0.1687 -0.68812,-0.2421 -0.46038,-0.15055 -0.94607,0.13716 -1.04369,0.60341 l -0.0903,0.42786 c -0.15668,0.699072 -0.84581,1.145212 -1.54119,0.996832 -0.69536,-0.14839 -1.13924,-0.843642 -0.98856,-1.545102 l 0.0751,-0.35075 c 0.1105,-0.48219 -0.2391,-0.94958 -0.73014,-0.98068 -0.24257,-0.0144 -0.48505,-0.0289 -0.72376,-0.0351 -0.48353,-0.0145 -0.86913,0.39296 -0.83456,0.87408 l 0.0277,0.44404 c 0.0533,0.70844 -0.49016,1.339492 -1.19945,1.392492 -0.70842,0.0534 -1.33318,-0.4886 -1.37814,-1.200962 l -0.0268,-0.35422 c -0.0361,-0.49539 -0.49784,-0.84613 -0.97949,-0.736 -0.24081,0.0551 -0.4673,0.10855 -0.70424,0.17188 -0.46578,0.12296 -0.72196,0.62672 -0.55756,1.07339 l 0.15524,0.41581 c 0.24664,0.670102 -0.0935,1.418132 -0.75748,1.667002 v 0 c -0.23845,0.64127 -1.14336,0.64903 -1.38459,0.001 l -0.4057,-1.09414 c -0.17204,-0.463322 -0.71646,-0.665762 -1.14942,-0.4274 -0.20816,0.11545 -0.41856,0.23689 -0.62896,0.35833 -0.417,0.25117 -0.51974,0.80517 -0.23686,1.19265 l 0.23803,0.32261 c 0.38292,0.50729 0.36828,1.23178 -0.0723,1.69454 -0.56568,0.59534 -1.5086,0.5201 -1.97715,-0.10858 l -0.21682,-0.28718 c -0.29271,-0.39801 -0.87748,-0.43644 -1.22246,-0.0828 -0.17327,0.16977 -0.34276,0.3477 -0.50616,0.52796 -0.33057,0.35214 -0.2787,0.91538 0.1099,1.20454 l 0.32849,0.24607 c 0.49965,0.37858 0.68657,1.06086 0.40788,1.62517 -0.36654,0.74507 -1.30263,0.94789 -1.93774,0.47071 l -0.28689,-0.20993 c -0.3981,-0.29956 -0.96203,-0.17183 -1.19954,0.26323 -0.11933,0.21036 -0.22912,0.4312 -0.33665,0.64597 -0.21732,0.43564 -0.004,0.95561 0.44354,1.12207 l 0.41134,0.15294 c 0.66543,0.24743 1.00517,1.00034 0.75774,1.66577 v 0 c -0.24967,0.67149 -0.99653,1.01348 -1.66196,0.76605 l -0.3327,-0.12371 c -0.45976,-0.17095 -0.96958,0.10764 -1.08005,0.58996 -0.0556,0.24094 -0.102,0.47846 -0.14307,0.71798 -0.0877,0.47689 0.26467,0.91779 0.74145,0.95046 l 0.40342,0.026 c 0.63162,0.0422 1.16625,0.53012 1.22846,1.15914 0.074,0.81941 -0.60021,1.4845 -1.38061,1.43531 l -0.35662,-0.0225 c -0.49714,-0.0334 -0.91143,0.37718 -0.87305,0.8666 0.018,0.24773 0.0406,0.48336 0.067,0.72721 0.055,0.48177 0.50759,0.80161 0.97869,0.70133 l 0.39702,-0.0864 c 0.62135,-0.13393 1.27033,0.17619 1.50537,0.76629 0.30882,0.76209 -0.15869,1.59349 -0.92423,1.76331 l -0.34574,0.078 c -0.48165,0.11013 -0.76047,0.61929 -0.59446,1.08036 0.0882,0.2256 0.17648,0.45117 0.27081,0.67908 0.18702,0.44133 0.71556,0.63098 1.13425,0.39376 l 0.35376,-0.19208 c 0.55586,-0.3097 1.27078,-0.19542 1.66197,0.30813 0.50484,0.64212 0.29743,1.57031 -0.39343,1.94692 l -0.31222,0.17308 c -0.43296,0.23841 -0.56057,0.80379 -0.25959,1.19805 0.14637,0.19897 0.2972,0.38592 0.44581,0.57886 0.30169,0.37384 0.86448,0.39718 1.20272,0.0616 l 0.30887,-0.31206 c 0.5032,-0.5015 1.3243,-0.50605 1.83177,-3.6e-4 0.62306,0.23167 0.79977,1.03413 0.3283,1.50599 l -0.58155,0.58255 c -0.34499,0.35369 -0.30577,0.93291 0.0888,1.22421 0.19301,0.14751 0.38826,0.28898 0.58585,0.4244 0.39502,0.27085 0.93857,0.14243 1.17156,-0.28046 l 0.2134,-0.38892 c 0.37502,-0.69368 1.29523,-0.90928 1.93946,-0.40115 0.50112,0.39288 0.6134,1.10945 0.30831,1.67077 l -0.15259,0.28067 c -0.23763,0.43493 -0.0336,0.97902 0.42016,1.14772 0,0 0.007,0.002 0.0125,0.004 0.26618,0.099 0.49004,0.18221 0.72438,0.25558 z m -1.43562,-16.15736 5.84428,-0.29198 -3.91814,4.33391 c -1.04852,-1.10594 -1.72475,-2.52802 -1.92614,-4.04193 z m 8.14832,6.25227 -0.30634,-5.84281 4.35438,3.91885 c -1.11432,1.05235 -2.53631,1.72862 -4.04804,1.92396 z m -1.45208,-5.77999 0.30254,5.83453 c -0.77733,-0.0205 -1.55651,-0.16566 -2.33085,-0.45359 -0.70175,-0.26092 -1.33498,-0.61343 -1.89591,-1.04918 z m -3.46032,8.97302 c -0.59888,-0.22268 -0.90292,-0.88662 -0.68024,-1.48551 0.22267,-0.59885 0.88661,-0.90282 1.48549,-0.68014 0.59888,0.22268 0.90891,0.8888 0.68624,1.48765 -0.22269,0.59889 -0.89261,0.90068 -1.49149,0.678 z m 9.02823,-1.91056 c 0.27208,0.58319 0.0156,1.27283 -0.56907,1.53046 -0.58087,0.26598 -1.27046,0.01 -1.5304,-0.56905 -0.26605,-0.58094 -0.0118,-1.26446 0.56906,-1.53045 0.58086,-0.26599 1.26442,-0.0118 1.53041,0.56904 z m 5.13786,-4.70673 c -0.22268,0.59889 -0.88654,0.90288 -1.48542,0.6802 -0.59888,-0.22269 -0.90287,-0.88655 -0.68019,-1.48544 0.22267,-0.59885 0.88655,-0.90288 1.48543,-0.6802 0.59888,0.22268 0.90286,0.8866 0.68018,1.48544 z m -3.39901,-1.22898 c -0.26092,0.70172 -0.61114,1.32893 -1.04693,1.88984 l -4.35439,-3.91885 5.84659,-0.298 c -0.0122,0.77348 -0.15961,1.55877 -0.44527,2.32701 z m -7.75003,-9.71231 0.30252,5.83456 -4.34831,-3.9167 c 1.106,-1.04846 2.52799,-1.72474 4.04579,-1.91786 z m 5.17863,-1.72383 c -0.22269,0.59889 -0.89261,0.90068 -1.4915,0.678 -0.59888,-0.22268 -0.90896,-0.88886 -0.68628,-1.48777 0.22268,-0.59884 0.89265,-0.90055 1.49153,-0.67787 0.59888,0.22268 0.90892,0.88879 0.68625,1.48764 z m -1.71034,2.11837 c 0.69571,0.25868 1.33274,0.61948 1.89209,1.04094 l -3.91813,4.33392 -0.30257,-5.83448 c 0.77507,0.0266 1.56039,0.17397 2.32861,0.45962 z m 4.67395,5.85552 -5.85258,0.29582 3.9204,-4.34 c 1.06061,1.11044 1.73308,2.52414 1.93218,4.04418 z m 2.616,-3.75774 c 0.26606,0.5809 0.0119,1.2645 -0.56909,1.53051 -0.58086,0.26599 -1.27046,0.01 -1.53651,-0.57133 -0.26597,-0.58091 -0.0118,-1.26452 0.56908,-1.5305 0.58095,-0.26601 1.27055,-0.01 1.53652,0.57132 z m -15.29415,-3.79327 c -0.26597,-0.58091 -0.0118,-1.26451 0.5691,-1.53054 0.58093,-0.26595 1.26448,-0.0118 1.53651,0.57132 0.26604,0.58094 0.0119,1.26455 -0.56909,1.53056 -0.58467,0.25768 -1.26822,0.004 -1.53652,-0.57134 z m -5.13779,4.70672 c 0.22266,-0.59884 0.88655,-0.90288 1.49147,-0.67794 0.59888,0.22268 0.90286,0.88658 0.68019,1.48543 -0.22269,0.59889 -0.88655,0.90288 -1.48543,0.6802 -0.60493,-0.22494 -0.90892,-0.8888 -0.68623,-1.48769 z m 3.81281,1.2456 c 0.25643,-0.68965 0.60512,-1.33118 1.03866,-1.88605 l 4.35437,3.91889 -5.84659,0.298 c 0.0228,-0.78339 0.1679,-1.56256 0.45356,-2.33084 z m -3.42221,7.20372 c -0.26599,-0.58086 -0.0118,-1.26443 0.56905,-1.53041 0.58088,-0.26603 1.27055,-0.01 1.53652,0.57132 0.2721,0.58314 0.0179,1.26671 -0.56905,1.53042 -0.58089,0.26603 -1.26451,0.0119 -1.53652,-0.57133 z"
       id="path56767"
       inkscape:export-xdpi="523"
       inkscape:export-ydpi="523"
       clip-path="url(#SVGID_84_)" />
    <path
       mask="url(#SVGID_4_)"
       style="display:inline;fill:#e1e7e9;fill-opacity:1;stroke:none;stroke-width:0.364548;stroke-miterlimit:4;stroke-dasharray:none;stroke-opacity:1"
       inkscape:connector-curvature="0"
       class="st9"
       d="m 6.929871,34.850405 -2.985788,1.00578 0.1577029,2.29192 3.0979371,0.58174 c 0.12617,0.6238 0.290866,1.24759 0.501144,1.86438 l -2.4215731,2.07814 1.0092841,2.06064 3.1224775,-0.64833 c 0.395993,0.59926 0.8270335,1.15998 1.2896225,1.68564 l -1.4017725,2.8281 1.7277005,1.50693 2.600326,-1.78378 c 0.53618,0.35747 1.093398,0.67637 1.668097,0.96023 l -0.234791,3.15401 2.165785,0.74295 1.738174,-2.63536 c 0.690384,0.14018 1.391297,0.23481 2.099187,0.27686 l 1.00579,2.99281 2.28492,-0.16121 0.57823,-3.10496 c 0.62378,-0.12614 1.24407,-0.29436 1.86085,-0.50463 l 2.07115,2.42859 2.05713,-1.00928 -0.64832,-3.12949 c 0.59574,-0.39601 1.15646,-0.83055 1.68215,-1.29315 l 2.82109,1.40529 1.5034,-1.7347 -1.78028,-2.60733 c 0.35745,-0.53969 0.67637,-1.0969 0.96023,-1.67163 l 3.14351,0.2348 0.74295,-2.17277 -2.62833,-1.74523 c 0.14015,-0.69037 0.23479,-1.39476 0.27684,-2.10268 l 2.9858,-1.00928 -0.15771,-2.29192 -3.09444,-0.58174 c -0.12617,-0.6273 -0.29087,-1.24758 -0.50115,-1.86438 l 2.42161,-2.07464 -1.00927,-2.06062 -3.12249,0.64832 c -0.39602,-0.59927 -0.82708,-1.15998 -1.28966,-1.68564 l 1.40178,-2.82811 -1.72771,-1.50692 -2.60029,1.78378 c -0.53618,-0.35746 -1.09339,-0.67636 -1.66812,-0.96023 l 0.23478,-3.15402 -2.16924,-0.74294 -1.73822,2.63535 c -0.69039,-0.14018 -1.39129,-0.23479 -2.09919,-0.27685 l -1.00578,-2.99281 -2.284925,0.1612 -0.581723,3.10496 c -0.623778,0.12616 -1.244067,0.29437 -1.857367,0.50114 l -2.071141,-2.4286 -2.057124,1.00929 0.64483,3.12949 c -0.595744,0.396 -1.156458,0.82705 -1.68215,1.29314 l -2.8210955,-1.40529 -1.5034025,1.73121 1.7802435,2.60732 c -0.357424,0.53619 -0.676363,1.0969 -0.956693,1.67163 l -3.1470296,-0.2348 -0.739424,2.17277 2.6283591,1.74523 c -0.140187,0.69738 -0.234827,1.39828 -0.276881,2.10968 z m 10.968976,-2.07815 c -0.571203,0.74295 -0.93216,1.60505 -1.002248,2.65639 h -6.511331 c 0.08062,-2.80357 1.145981,-5.35132 2.863165,-7.31382 z m 3.875967,0.79552 c 1.19502,0 2.16575,0.97423 2.16575,2.17277 0,1.19853 -0.97426,2.17276 -2.16575,2.17276 -1.19503,0 -2.169279,-0.97423 -2.169279,-2.17276 0,-1.19502 0.974249,-2.17277 2.169279,-2.17277 z m -11.371986,2.9122 h 6.539314 c 0.147186,1.05135 0.585267,1.8749 1.233593,2.58279 l -4.643436,4.66095 c -1.804785,-1.92046 -2.961286,-4.44016 -3.129471,-7.24374 z m 3.953006,7.95865 4.71702,-4.68897 c 0.63082,0.44506 1.15297,0.74644 2.20431,0.85158 v 6.72858 c -2.803579,-0.18925 -5.070952,-1.24761 -6.92133,-2.89119 z m 7.97266,2.91571 v -6.72857 c 1.05134,-0.0806 1.76976,-0.44156 2.49518,-1.00228 l 4.87821,4.85368 c -1.98353,1.74874 -4.92027,2.8246 -7.37339,2.87717 z m 8.02172,-3.59208 -4.83966,-4.84666 c 0.57473,-0.67987 0.96023,-1.38427 1.09689,-2.43562 h 6.91081 c -0.1682,2.80358 -1.34221,5.35834 -3.16804,7.28228 z m 3.18205,-8.33361 h -6.88626 c -0.0631,-1.05134 -0.37847,-1.78377 -0.87961,-2.49518 l 4.86067,-4.8677 c 1.74171,1.96951 2.82462,4.55931 2.9052,7.36288 z m -3.56052,-8.13387 -4.78712,4.83616 c -0.77799,-0.7149 -1.80479,-1.181 -2.85613,-1.2721 v -6.71457 c 2.45312,0.0561 5.61766,1.24058 7.64325,3.15051 z m -8.69458,-3.12247 v 6.71456 c -1.05134,0.12616 -1.881911,0.52216 -2.579284,1.11091 l -4.608363,-4.65743 c 1.892389,-1.8048 4.384068,-2.97179 7.187647,-3.16804 z"
       id="path56769"
       clip-path="url(#SVGID_84_)"
       inkscape:export-xdpi="523"
       inkscape:export-ydpi="523" />
    <path
       id="path56753"
       d="m 93.425089,38.308999 -0.108339,3.41418 2.380834,0.701377 1.75605,-2.927221 c 0.685012,0.109547 1.377342,0.173414 2.076852,0.191662 l 1.194774,3.240678 2.47052,-0.242572 0.52129,-3.405751 c 0.75216,-0.175088 1.48607,-0.405297 2.19541,-0.673756 l 2.34546,2.488034 2.18127,-1.182242 -0.83077,-3.308567 c 0.55934,-0.411282 1.10261,-0.857582 1.60667,-1.328156 l 3.10783,1.426494 1.57523,-1.920411 -2.02035,-2.763895 c 0.40374,-0.643287 0.76276,-1.322569 1.07391,-2.029419 l 3.41418,0.108387 0.70137,-2.380802 -2.93575,-1.759292 c 0.10642,-0.676488 0.17344,-1.377251 0.19171,-2.076873 l 3.24596,-1.183038 -0.2542,-2.465211 -3.42273,-0.527557 c -0.17509,-0.752145 -0.40538,-1.48611 -0.6738,-2.195484 l 2.49336,-2.333778 -1.19067,-2.184395 -3.31711,0.827605 c -0.41124,-0.559282 -0.85762,-1.102603 -1.33135,-1.598093 l 1.42342,-3.0993321 -1.92365,-1.566726 -2.76071,2.011797 c -0.6433,-0.403683 -1.32264,-0.762746 -2.02933,-1.073889 l 0.10831,-3.414126 -2.38081,-0.701444 -1.75292,2.918792 c -0.68499,-0.109608 -1.37731,-0.173481 -2.08542,-0.194901 l -1.194684,-3.240644 -2.470492,0.242572 -0.52445,3.414227 c -0.75217,0.175074 -1.49459,0.402226 -2.19554,0.673796 l -2.345369,-2.488014 -2.181372,1.182202 0.830906,3.3085331 c -0.56786,0.408185 -1.102728,0.857603 -1.606687,1.328197 l -3.107819,-1.426521 -1.575259,1.92041 2.020381,2.763856 c -0.403769,0.643326 -0.762785,1.322636 -1.074017,2.029391 l -3.414104,-0.108292 -0.701364,2.380801 2.935771,1.759252 c -0.106418,0.676421 -0.173466,1.377224 -0.191709,2.076819 l -3.24596,1.183065 0.254193,2.465191 3.414124,0.524413 c 0.175212,0.752151 0.405404,1.486069 0.682402,2.198715 l -2.493444,2.333711 1.193914,2.17596 3.313868,-0.81917 c 0.411317,0.559369 0.857591,1.102651 1.339912,1.601319 l -1.423387,3.099285 1.923621,1.566794 2.760626,-2.011866 c 0.655042,0.398373 1.325794,0.754237 2.029438,1.073923 M 88.234713,19.010271 c 2.411742,-6.486134 9.647451,-9.7852671 16.150607,-7.367214 6.50314,2.4181 9.82569,9.643017 7.41393,16.129191 -2.41174,6.486175 -9.6506,9.793811 -16.162256,7.3726 -6.503236,-2.4181 -9.817189,-9.639879 -7.402281,-16.134577"
       class="st9"
       inkscape:connector-curvature="0"
       style="display:inline;fill:#e1e7e9;fill-opacity:1;stroke:none;stroke-width:0.227275;stroke-miterlimit:4;stroke-dasharray:none;stroke-opacity:1"
       mask="url(#SVGID_4_)"
       inkscape:export-xdpi="523"
       inkscape:export-ydpi="523"
       clip-path="url(#SVGID_84_)" />
  </g>
</svg>
