<?xml version="1.0" encoding="UTF-8" standalone="no"?>
<svg
   xmlns:dc="http://purl.org/dc/elements/1.1/"
   xmlns:cc="http://creativecommons.org/ns#"
   xmlns:rdf="http://www.w3.org/1999/02/22-rdf-syntax-ns#"
   xmlns:svg="http://www.w3.org/2000/svg"
   xmlns="http://www.w3.org/2000/svg"
   xmlns:sodipodi="http://sodipodi.sourceforge.net/DTD/sodipodi-0.dtd"
   xmlns:inkscape="http://www.inkscape.org/namespaces/inkscape"
   sodipodi:docname="gear3.svg"
   inkscape:version="1.0 (4035a4fb49, 2020-05-01)"
   id="svg4207"
   version="1.1"
   viewBox="0 0 121.17914 59.795895"
   height="226"
   width="458">
  <defs
     id="defs4201" />
  <sodipodi:namedview
     inkscape:window-maximized="1"
     inkscape:window-y="32"
     inkscape:window-x="892"
     inkscape:window-height="1017"
     inkscape:window-width="2560"
     units="px"
     showgrid="false"
     inkscape:document-rotation="0"
     inkscape:current-layer="layer1"
     inkscape:document-units="mm"
     inkscape:cy="158.64031"
     inkscape:cx="361.66124"
     inkscape:zoom="1.979899"
     inkscape:pageshadow="2"
     inkscape:pageopacity="0.0"
     borderopacity="1.0"
     bordercolor="#666666"
     pagecolor="#ffffff"
     id="base" />
  <metadata
     id="metadata4204">
    <rdf:RDF>
      <cc:Work
         rdf:about="">
        <dc:format>image/svg+xml</dc:format>
        <dc:type
           rdf:resource="http://purl.org/dc/dcmitype/StillImage" />
        <dc:title></dc:title>
      </cc:Work>
    </rdf:RDF>
  </metadata>
  <g
     id="layer1"
     inkscape:groupmode="layer"
     inkscape:label="Слой 1">
    <path
       style="display:inline;fill:none;fill-opacity:1;stroke:#f5ca5c;stroke-width:0.17900018;stroke-miterlimit:4;stroke-dasharray:none;stroke-opacity:1"
       inkscape:connector-curvature="0"
       class="st9"
       d="m 27.819414,32.940497 -0.729123,-2.208544 -1.692541,0.106186 -0.443254,2.284222 c -0.461025,0.09035 -0.922235,0.209164 -1.37847,0.361617 l -1.52323,-1.796825 -1.525609,0.735834 0.464659,2.305244 c -0.444127,0.289633 -0.859957,0.605326 -1.250054,0.944446 l -2.081381,-1.047373 -1.12008,1.268618 1.305137,1.927462 c -0.266261,0.394191 -0.504151,0.804094 -0.716252,1.227056 l -2.327176,-0.187388 -0.558091,1.595408 1.937578,1.297455 c -0.106556,0.508998 -0.179521,1.025934 -0.213726,1.548324 l -2.213707,0.729062 0.108802,1.687394 2.289404,0.44327 c 0.09035,0.46106 0.211749,0.91968 0.361626,1.37591 l -1.801975,1.51802 0.735854,1.523 2.313001,-0.46462 c 0.289664,0.44157 0.607922,0.86 0.947063,1.2475 l -1.049938,2.07618 1.273809,1.11754 1.9326,-1.30251 c 0.396788,0.26627 0.806686,0.50416 1.229676,0.71627 l -0.187358,2.3194 1.600576,0.55813 1.300005,-1.93241 c 0.508998,0.10657 1.028543,0.17954 1.55091,0.21375 l 0.731709,2.20857 1.692542,-0.1062 0.443231,-2.28163 c 0.463618,-0.0903 0.922252,-0.21176 1.378471,-0.36162 l 1.520638,1.79681 1.525615,-0.73584 -0.46465,-2.30783 c 0.444127,-0.28963 0.859957,-0.60532 1.25006,-0.94444 l 2.081375,1.04737 1.120077,-1.26861 -1.305128,-1.92746 c 0.266255,-0.39421 0.504151,-0.8041 0.716258,-1.22706 l 2.32458,0.18737 0.558091,-1.59541 -1.9376,-1.29484 c 0.10655,-0.509 0.179527,-1.025966 0.213732,-1.548327 l 2.213713,-0.729098 -0.108802,-1.68739 -2.289419,-0.440681 c -0.09035,-0.461032 -0.211755,-0.91966 -0.361627,-1.375879 l 1.801969,-1.518031 -0.735853,-1.52303 -2.312998,0.464621 c -0.289664,-0.441536 -0.607937,-0.857377 -0.949649,-1.247508 l 1.049933,-2.076188 -1.271218,-1.1175 -1.932605,1.302521 c -0.394218,-0.26367 -0.806686,-0.504162 -1.229686,-0.713701 l 0.187362,-2.321999 -1.60058,-0.555525 -1.300005,1.932404 c -0.506343,-0.116892 -1.02591,-0.187286 -1.548271,-0.221497 z m -9.55067,11.035336 c 0.01,-1.650471 1.358085,-2.979801 3.013699,-2.969793 1.655626,0.01001 2.987558,1.35554 2.977581,3.00601 -0.01,1.650445 -1.358079,2.979775 -3.013705,2.969765 -1.653051,-0.007 -2.987567,-1.35296 -2.977575,-3.005982 z m 8.824036,-0.815899 c 0.483744,0.003 0.872002,0.395888 0.869094,0.877075 -0.0029,0.481158 -0.39589,0.869422 -0.879634,0.866497 -0.483762,-0.0029 -0.872026,-0.39591 -0.869117,-0.877069 0.0052,-0.481172 0.398481,-0.869412 0.879657,-0.866503 z m 2.95784,6.697511 c -0.01,1.65046 -1.358079,2.97979 -3.013705,2.96978 -1.65562,-0.01 -2.987546,-1.35554 -2.977569,-3.006 0.01,-1.65044 1.358073,-2.97977 3.013693,-2.96977 1.65304,0.01 2.987557,1.35555 2.977581,3.00599 z m 5.85825,-5.774977 c -0.01,1.650447 -1.358079,2.979777 -3.013699,2.969767 -1.655626,-0.01 -2.987558,-1.35554 -2.977581,-3.005984 0.01,-1.650471 1.358079,-2.979801 3.013705,-2.969793 1.653034,0.01 2.987536,1.35816 2.977575,3.00601 z m -5.78802,-5.842827 c -0.01,1.65045 -1.358094,2.982363 -3.01372,2.972354 -1.65562,-0.01001 -2.987546,-1.355518 -2.977553,-3.008572 0.01,-1.650431 1.358072,-2.979764 3.013692,-2.969755 1.65304,0.01 2.987558,1.355542 2.977581,3.005973 z"
       id="path33244"
       mask="url(#SVGID_4_)"
       inkscape:export-xdpi="523"
       inkscape:export-ydpi="523"
       clip-path="url(#SVGID_84_)" />
    <g
       id="g33160"
       transform="matrix(-0.00198261,0.32797192,-0.32797192,-0.00198261,286.7786,-224.39507)"
       style="display:inline;fill:none;fill-opacity:1;stroke:#f5ca5c;stroke-width:0.54576902;stroke-miterlimit:4;stroke-dasharray:none;stroke-opacity:1"
       inkscape:export-xdpi="523"
       inkscape:export-ydpi="523">
      <path
         style="fill:none;fill-opacity:1;stroke:#f5ca5c;stroke-width:0.54576902;stroke-miterlimit:4;stroke-dasharray:none;stroke-opacity:1"
         inkscape:connector-curvature="0"
         class="st9"
         d="m 725.12,554.8 c 4.63,0 8.4,-3.78 8.4,-8.42 0,-4.64 -3.77,-8.42 -8.4,-8.42 -4.63,0 -8.4,3.78 -8.4,8.42 0,4.65 3.77,8.42 8.4,8.42 m 0,-12.15 c 2.05,0 3.72,1.67 3.72,3.73 0,2.06 -1.67,3.73 -3.72,3.73 -2.05,0 -3.72,-1.67 -3.72,-3.73 -0.01,-2.05 1.66,-3.73 3.72,-3.73"
         id="path33156"
         mask="url(#SVGID_4_)"
         clip-path="url(#SVGID_84_)" />
      <path
         style="fill:none;fill-opacity:1;stroke:#f5ca5c;stroke-width:0.54576902;stroke-miterlimit:4;stroke-dasharray:none;stroke-opacity:1"
         inkscape:connector-curvature="0"
         class="st9"
         d="m 699.63,544.85 -5.13,1.73 0.27,3.93 5.32,1 c 0.22,1.07 0.5,2.14 0.86,3.2 l -4.16,3.57 1.73,3.54 5.36,-1.11 c 0.68,1.03 1.42,1.99 2.22,2.89 l -2.4,4.86 2.97,2.59 4.47,-3.06 c 0.92,0.61 1.88,1.16 2.86,1.65 l -0.4,5.41 3.72,1.28 2.99,-4.53 c 1.19,0.24 2.39,0.4 3.6,0.47 l 1.73,5.14 3.92,-0.27 1,-5.33 c 1.07,-0.22 2.14,-0.5 3.19,-0.86 l 3.56,4.17 3.53,-1.73 -1.11,-5.37 c 1.02,-0.68 1.99,-1.42 2.89,-2.22 l 4.84,2.41 2.58,-2.98 -3.06,-4.48 c 0.61,-0.92 1.16,-1.88 1.65,-2.87 l 5.4,0.41 1.27,-3.73 -4.52,-3 c 0.24,-1.19 0.4,-2.4 0.47,-3.61 l 5.13,-1.73 -0.27,-3.93 -5.32,-1 c -0.22,-1.07 -0.5,-2.14 -0.86,-3.2 l 4.16,-3.56 -1.73,-3.54 -5.36,1.11 c -0.68,-1.03 -1.42,-1.99 -2.22,-2.89 l 2.41,-4.86 -2.97,-2.59 -4.47,3.06 c -0.92,-0.61 -1.88,-1.16 -2.86,-1.65 l 0.4,-5.41 -3.72,-1.28 -2.99,4.53 c -1.19,-0.24 -2.39,-0.4 -3.61,-0.48 l -1.73,-5.14 -3.92,0.27 -1,5.33 c -1.07,0.22 -2.14,0.5 -3.19,0.86 l -3.56,-4.17 -3.53,1.74 1.11,5.37 c -1.03,0.68 -1.99,1.42 -2.89,2.22 l -4.84,-2.41 -2.58,2.98 3.06,4.48 c -0.61,0.92 -1.16,1.88 -1.64,2.87 l -5.4,-0.41 -1.27,3.73 4.52,3 c -0.25,1.18 -0.41,2.38 -0.48,3.6 m 25.81,-18.39 c 10.98,0 19.89,8.93 19.89,19.94 0,11.01 -8.9,19.94 -19.89,19.94 -10.98,0 -19.89,-8.93 -19.89,-19.94 0,-11.02 8.9,-19.94 19.89,-19.94"
         id="path33158"
         mask="url(#SVGID_4_)"
         clip-path="url(#SVGID_84_)" />
    </g>
    <g
       id="g33214"
       transform="matrix(-0.00198261,0.32797192,-0.32797192,-0.00198261,286.7786,-224.39507)"
       style="display:inline;fill:none;fill-opacity:1;stroke:#f5ca5c;stroke-width:0.54576902;stroke-miterlimit:4;stroke-dasharray:none;stroke-opacity:1"
       inkscape:export-xdpi="523"
       inkscape:export-ydpi="523">
      <path
         style="fill:none;fill-opacity:1;stroke:#f5ca5c;stroke-width:0.54576902;stroke-miterlimit:4;stroke-dasharray:none;stroke-opacity:1"
         inkscape:connector-curvature="0"
         class="st9"
         d="m 791.17,706.31 -6.28,2.12 0.33,4.82 6.51,1.22 c 0.27,1.31 0.61,2.62 1.05,3.92 l -5.09,4.36 2.12,4.34 6.56,-1.36 c 0.83,1.26 1.74,2.44 2.71,3.54 l -2.94,5.95 3.63,3.17 5.47,-3.75 c 1.13,0.75 2.3,1.42 3.51,2.02 l -0.5,6.63 4.56,1.56 3.65,-5.54 c 1.45,0.29 2.93,0.49 4.41,0.58 l 2.11,6.29 4.8,-0.34 1.22,-6.52 c 1.31,-0.27 2.61,-0.62 3.91,-1.06 l 4.35,5.1 4.32,-2.12 -1.36,-6.58 c 1.26,-0.83 2.43,-1.74 3.53,-2.72 l 5.93,2.96 3.16,-3.64 -3.74,-5.48 c 0.75,-1.13 1.42,-2.3 2.01,-3.51 l 6.61,0.5 1.55,-4.56 -5.53,-3.67 c 0.3,-1.45 0.49,-2.93 0.58,-4.42 l 6.28,-2.12 -0.33,-4.81 -6.51,-1.22 c -0.26,-1.32 -0.61,-2.62 -1.05,-3.92 l 5.1,-4.37 -2.12,-4.33 -6.56,1.36 c -0.83,-1.26 -1.74,-2.44 -2.71,-3.54 l 2.94,-5.94 -3.63,-3.17 -5.47,3.75 c -1.13,-0.75 -2.3,-1.42 -3.51,-2.02 l 0.5,-6.63 -4.56,-1.56 -3.65,5.54 c -1.45,-0.3 -2.93,-0.49 -4.41,-0.59 l -2.12,-6.29 -4.8,0.33 -1.22,6.53 c -1.31,0.27 -2.62,0.62 -3.91,1.05 l -4.35,-5.11 -4.32,2.13 1.36,6.58 c -1.26,0.83 -2.43,1.74 -3.54,2.72 l -5.93,-2.96 -3.16,3.64 3.74,5.48 c -0.75,1.13 -1.42,2.3 -2.01,3.51 l -6.61,-0.5 -1.56,4.57 5.53,3.67 c -0.28,1.44 -0.47,2.91 -0.56,4.41 m 31.6,-27.48 c 16.18,0 29.29,13.15 29.29,29.37 0,16.22 -13.12,29.37 -29.29,29.37 -16.18,0 -29.29,-13.15 -29.29,-29.37 -0.01,-16.22 13.11,-29.37 29.29,-29.37"
         id="path33210"
         mask="url(#SVGID_4_)"
         clip-path="url(#SVGID_84_)" />
      <path
         style="fill:none;fill-opacity:1;stroke:#f5ca5c;stroke-width:0.54576902;stroke-miterlimit:4;stroke-dasharray:none;stroke-opacity:1"
         inkscape:connector-curvature="0"
         class="st9"
         d="m 822.77,680.16 c 15.42,0 27.96,12.58 27.96,28.04 0,15.46 -12.54,28.04 -27.96,28.04 -15.42,0 -27.97,-12.58 -27.97,-28.04 0,-15.46 12.55,-28.04 27.97,-28.04 z m 0,52.85 c 13.65,0 24.75,-11.13 24.75,-24.81 0,-13.68 -11.1,-24.81 -24.75,-24.81 -13.65,0 -24.75,11.13 -24.75,24.81 0,13.68 11.1,24.81 24.75,24.81 z"
         id="path33212"
         mask="url(#SVGID_4_)"
         clip-path="url(#SVGID_84_)" />
    </g>
    <path
       style="display:inline;fill:none;fill-opacity:1;stroke:#f5ca5c;stroke-width:0.17900018;stroke-miterlimit:4;stroke-dasharray:none;stroke-opacity:1"
       inkscape:connector-curvature="0"
       class="st9"
       d="m 78.895136,7.397203 c -0.495354,0.0168 -0.865401,0.463795 -0.796221,0.956168 l 0.05653,0.413616 c 0.09115,0.656493 -0.283366,1.300359 -0.911026,1.499947 -0.808371,0.254213 -1.618475,-0.291853 -1.731689,-1.09611 L 75.4625,8.799881 C 75.39341,8.294386 74.893582,7.963392 74.404035,8.104718 c -0.239854,0.07073 -0.483011,0.144676 -0.719625,0.221967 -0.469969,0.157872 -0.702778,0.69109 -0.4989,1.144923 l 0.174809,0.381542 c 0.26859,0.601814 0.09034,1.332131 -0.453037,1.696216 -0.701469,0.474598 -1.637724,0.180325 -1.967798,-0.559644 l -0.152128,-0.335466 c -0.210346,-0.470297 -0.783264,-0.644285 -1.211317,-0.368113 -0.210734,0.136509 -0.421469,0.272978 -0.625701,0.419339 -0.408391,0.2796 -0.484053,0.859667 -0.158359,1.238818 l 0.293087,0.346137 c 0.478749,0.56049 0.414563,1.412847 -0.145928,1.894876 v 0 c -0.0043,0.705125 -0.878649,1.027849 -1.337854,0.490447 l -0.784903,-0.916553 c -0.332196,-0.389002 -0.932382,-0.392631 -1.265954,-0.01113 -0.165132,0.189263 -0.327012,0.381784 -0.485622,0.57763 -0.313936,0.388366 -0.219017,0.962925 0.195867,1.237656 l 0.378954,0.248303 c 0.614175,0.40383 0.789504,1.241244 0.388931,1.85544 -0.403899,0.620724 -1.234753,0.796114 -1.848922,0.392249 L 63.869274,17.8574 c -0.427979,-0.278077 -1.002944,-0.114292 -1.215661,0.350173 -0.106318,0.225675 -0.202822,0.454679 -0.302598,0.683661 -0.189759,0.464571 0.0596,0.990856 0.531028,1.134758 l 0.435457,0.127252 c 0.703868,0.214146 1.109314,0.964419 0.898392,1.674872 v 0 c -0.214189,0.707131 -0.957864,1.10933 -1.665032,0.89844 L 62.200544,22.62278 c -0.491081,-0.147288 -0.994847,0.174365 -1.073331,0.678967 -0.03429,0.245806 -0.06531,0.494871 -0.09307,0.747259 -0.05215,0.49164 0.328912,0.930186 0.827433,0.9332 l 0.449321,0.0027 c 0.737941,0.0045 1.334499,0.608258 1.330018,1.349473 v 0 c -0.0045,0.741255 -0.608315,1.341065 -1.346255,1.336604 l -0.364047,-0.0022 c -0.508357,-0.0031 -0.904658,0.447166 -0.838839,0.95264 0.03459,0.249491 0.0757,0.498991 0.120132,0.745273 0.08231,0.489183 0.578966,0.8005 1.058664,0.662347 l 0.397552,-0.115644 c 0.627566,-0.183163 1.324455,0.09981 1.606246,0.688621 0.369243,0.769714 -0.05265,1.656001 -0.831333,1.88088 l -0.354842,0.102822 c -0.492831,0.141307 -0.742104,0.684273 -0.535016,1.15124 0.103568,0.230214 0.210425,0.457176 0.323868,0.68091 0.220322,0.447383 0.776967,0.601614 1.198395,0.335213 l 0.38521,-0.243649 c 0.619012,-0.39641 1.450952,-0.207692 1.844064,0.411299 v 0 c 0.393085,0.625537 0.20764,1.460771 -0.411327,1.850603 l -0.30624,0.201496 c -0.43459,0.272899 -0.520192,0.869302 -0.191277,1.258321 0.166137,0.187926 0.328988,0.375867 0.501706,0.560592 0.335627,0.36282 0.916203,0.356478 1.246451,-0.01873 l 0.293974,-0.342622 c 0.48549,-0.554627 1.332019,-0.60853 1.886655,-0.12307 0.551338,0.488745 0.608493,1.341877 0.123029,1.893229 l -0.241104,0.277344 c -0.336874,0.384958 -0.255189,0.979098 0.16949,1.260465 0.209068,0.139006 0.421482,0.26822 0.637145,0.400694 0.424837,0.255124 0.980159,0.08465 1.189516,-0.366688 l 0.189487,-0.418666 c 0.312336,-0.66721 1.107811,-0.957588 1.77503,-0.64852 v 0 c 0.667199,0.312346 0.957532,1.114364 0.648476,1.781594 l -0.152887,0.333593 c -0.212736,0.467733 0.02998,1.013673 0.517734,1.164218 0.239004,0.07032 0.478026,0.137362 0.723635,0.201143 0.481399,0.120992 0.965461,-0.197511 1.040612,-0.692321 l 0.06505,-0.452201 c 0.109379,-0.730767 0.794642,-1.238245 1.518854,-1.132211 0.727446,0.112632 1.234961,0.797915 1.125583,1.528648 l -0.05468,0.367003 c -0.07193,0.504677 0.309042,0.962849 0.817396,0.965922 0.0035,2.1e-5 0.0065,4e-5 0.0098,5.9e-5 0.249259,0.0015 0.501822,-4.38e-4 0.751133,-0.0084 0.495377,-0.02003 0.865406,-0.463754 0.79953,-0.959416 l -0.0629,-0.446436 c -0.09723,-0.735286 0.415245,-1.414374 1.143976,-1.514929 0.732017,-0.100535 1.404546,0.415186 1.505072,1.147182 l 0.05358,0.36439 c 0.06581,0.508778 0.572199,0.836538 1.058469,0.695191 0.243138,-0.07071 0.479715,-0.141421 0.71635,-0.221981 0.473229,-0.154588 0.706062,-0.691075 0.502151,-1.141632 l -0.187644,-0.420943 c -0.304258,-0.670938 0.0023,-1.472656 0.669966,-1.773627 0.670908,-0.300983 1.466093,-8.68e-4 1.767019,0.676474 l 0.152123,0.335471 c 0.207064,0.470277 0.783261,0.644285 1.214596,0.368133 0.214012,-0.136489 0.418189,-0.272998 0.625682,-0.416029 0.408429,-0.286179 0.480796,-0.863002 0.158377,-1.24213 l -0.296366,-0.346156 c -0.475468,-0.56047 -0.411276,-1.412827 0.145909,-1.891608 v 0 c 0.004,-0.708394 0.881948,-1.031097 1.344438,-0.493675 l 0.781612,0.916532 c 0.332203,0.389003 0.929107,0.392612 1.265985,0.0077 0.161825,-0.185978 0.323709,-0.378534 0.4823,-0.57107 0.313955,-0.391677 0.222316,-0.966216 -0.195868,-1.237692 l -0.346329,-0.225112 c -0.548854,-0.357565 -0.790545,-1.067452 -0.531063,-1.672652 0.335993,-0.78184 1.278881,-1.041819 1.95513,-0.598218 l 0.310359,0.201915 c 0.42468,0.281361 1.00622,0.114316 1.21566,-0.350133 0.10632,-0.225675 0.20612,-0.457934 0.30264,-0.690239 0.19302,-0.461281 -0.0563,-0.987566 -0.53106,-1.131448 l -0.40597,-0.120542 c -0.61875,-0.187423 -1.044788,-0.786919 -0.975267,-1.435897 0.09372,-0.855489 0.929987,-1.38175 1.712427,-1.144165 l 0.35032,0.10381 c 0.49106,0.150564 0.99482,-0.17109 1.07005,-0.679023 0.0376,-0.24906 0.0719,-0.498098 0.0964,-0.747239 0.0555,-0.498198 -0.33221,-0.930171 -0.82744,-0.933164 l -0.45589,-0.0028 c -0.73465,-0.0045 -1.33117,-0.614816 -1.32671,-1.352762 v 0 c 0.005,-0.737941 0.6083,-1.33779 1.34295,-1.333349 l 0.36734,0.0022 c 0.50835,0.0031 0.90465,-0.447126 0.83884,-0.952641 -0.0346,-0.252765 -0.0724,-0.498972 -0.11686,-0.745218 -0.0823,-0.492493 -0.57899,-0.797225 -1.05538,-0.662363 l -0.40414,0.118916 c -0.63084,0.183141 -1.32117,-0.09983 -1.606216,-0.691932 -0.365968,-0.769659 0.05595,-1.655946 0.831326,-1.880845 l 0.35156,-0.10284 c 0.49614,-0.144591 0.74868,-0.687544 0.5416,-1.154512 -0.10357,-0.230213 -0.21373,-0.45392 -0.32713,-0.684199 -0.22034,-0.444114 -0.78024,-0.601632 -1.198392,-0.335213 l -0.352314,0.227457 c -0.553141,0.350869 -1.293958,0.280791 -1.737049,-0.210574 -0.566882,-0.629861 -0.410142,-1.599777 0.27471,-2.038384 l 0.306175,-0.198228 c 0.431306,-0.272918 0.520168,-0.866027 0.191257,-1.255051 -0.162844,-0.19121 -0.328991,-0.375862 -0.501706,-0.560587 -0.338885,-0.366115 -0.916198,-0.356483 -1.243154,0.01551 l -0.27412,0.313195 c -0.432659,0.495918 -1.161627,0.635832 -1.723678,0.291344 -0.718884,-0.443858 -0.840898,-1.418694 -0.309136,-2.032101 l 0.241102,-0.277337 c 0.336877,-0.384958 0.255189,-0.979105 -0.169509,-1.257197 -0.209072,-0.139007 -0.421459,-0.271495 -0.640424,-0.400714 -0.424843,-0.255124 -0.983458,-0.0814 -1.186263,0.370011 l -0.192739,0.415378 c -0.309054,0.667196 -1.107832,0.960828 -1.77505,0.651791 -0.68874,-0.0042 -1.140301,-0.721898 -0.851179,-1.346619 L 85.416882,9.332347 C 85.629593,8.867882 85.386912,8.318702 84.89584,8.171412 84.656857,8.097792 84.417832,8.03078 84.172236,7.966965 83.690843,7.842698 83.210046,8.16449 83.134925,8.656032 l -0.06505,0.452201 C 82.950203,9.914357 82.130279,10.45057 81.325061,10.183327 80.699859,9.976206 80.33318,9.324586 80.432231,8.672476 l 0.04791,-0.327678 c 0.07192,-0.504683 -0.312329,-0.96291 -0.817402,-0.965963 -0.0035,-2.1e-5 -0.0065,-4e-5 -0.0098,-6e-5 -0.259147,0.0049 -0.508435,0.0099 -0.757757,0.01844 z m 7.117324,15.17947 -5.573581,2.357324 2.270699,-5.598096 c 1.409353,0.703863 2.570113,1.839117 3.302882,3.240772 z m -10.125299,-3.183626 2.367233,5.560527 -5.617818,-2.260956 c 0.710427,-1.412589 1.848971,-2.57007 3.250585,-3.299571 z m 3.452374,5.098066 -2.363952,-5.560478 c 0.762444,-0.251217 1.573412,-0.390635 2.422856,-0.3855 0.770735,0.0047 1.514555,0.12066 2.208525,0.344628 z m 0.184731,-9.940082 c 0.655935,0.004 1.190573,0.541823 1.186593,1.20105 -0.0041,0.659228 -0.545093,1.190582 -1.201028,1.186617 -0.662508,-0.004 -1.197152,-0.541862 -1.193166,-1.20109 0.0075,-0.659206 0.548368,-1.190562 1.207601,-1.186577 z m -8.092413,5.054517 c -0.469457,-0.468555 -0.464877,-1.226195 0.01021,-1.68904 0.471838,-0.466173 1.226175,-0.461613 1.689063,0.01021 0.462921,0.465245 0.458322,1.226155 -0.01021,1.689039 -0.468558,0.466194 -1.222895,0.461634 -1.689063,-0.01021 z m -3.318491,6.395301 c 0.004,-0.662498 0.541811,-1.190562 1.201032,-1.186577 0.659222,0.004 1.190611,0.538512 1.186606,1.20101 -0.004,0.655959 -0.541817,1.190601 -1.20104,1.186616 -0.659221,-0.004 -1.190564,-0.545091 -1.186598,-1.201049 z m 3.735797,-0.01011 c 0.0047,-0.770726 0.123931,-1.511248 0.347877,-2.205204 l 5.614533,2.260943 -5.573597,2.360598 c -0.257797,-0.759223 -0.393909,-1.57343 -0.388813,-2.416334 z m 10.970029,6.681748 -2.360695,-5.557185 5.607983,2.260903 c -0.703864,1.412665 -1.842413,2.570111 -3.247288,3.296282 z m -4.419481,3.50897 c 0.004,-0.659228 0.545076,-1.187272 1.204297,-1.183287 0.659222,0.004 1.193883,0.538532 1.189897,1.19776 -0.004,0.659228 -0.545087,1.190583 -1.204315,1.186598 -0.659221,-0.004 -1.193865,-0.541843 -1.189879,-1.201071 z m 0.908226,-2.664293 c -0.767454,-0.0046 -1.511234,-0.127217 -2.205244,-0.344607 l 2.267406,-5.598083 2.363969,5.557204 c -0.762479,0.2578 -1.579968,0.390601 -2.426131,0.385486 z m -6.610787,-4.024974 5.576896,-2.363854 -2.270727,5.60464 c -1.419196,-0.703922 -2.576654,-1.84246 -3.306169,-3.240786 z m -1.208371,4.571354 c -0.462888,-0.471819 -0.458348,-1.222888 0.01021,-1.689041 0.471812,-0.462899 1.226149,-0.458338 1.692331,0.01023 0.466187,0.468535 0.461627,1.222871 -0.01021,1.68904 -0.471813,0.462864 -1.226149,0.458303 -1.692332,-0.01023 z m 16.19649,-1.735514 c 0.466165,0.471837 0.461623,1.222866 -0.01024,1.692309 -0.471818,0.462905 -1.22615,0.458345 -1.692332,-0.01023 -0.46289,-0.471784 -0.458325,-1.226122 0.01024,-1.692309 0.471794,-0.459595 1.226126,-0.455036 1.692332,0.01023 z m 3.318481,-6.392031 c -0.004,0.659227 -0.541795,1.187328 -1.204297,1.183323 -0.659227,-0.004 -1.190602,-0.538549 -1.186616,-1.197776 0.0041,-0.659228 0.541824,-1.193871 1.201051,-1.189885 0.659222,0.004 1.193843,0.545111 1.189862,1.204338 z m -4.146592,0.145498 c -0.0046,0.760875 -0.11734,1.504746 -0.341275,2.198694 l -5.614544,-2.260941 5.573622,-2.363868 c 0.254478,0.76575 0.387334,1.57667 0.382197,2.426115 z m 0.771174,-8.208074 c 0.462902,0.468555 0.458325,1.22616 -0.01018,1.68908 -0.475098,0.462844 -1.229425,0.458284 -1.692332,-0.01023 -0.466182,-0.468571 -0.461606,-1.226175 0.01018,-1.68908 0.46856,-0.466154 1.222892,-0.461594 1.692332,0.01023 z"
       id="path33238"
       mask="url(#SVGID_4_)"
       inkscape:export-xdpi="523"
       inkscape:export-ydpi="523"
       clip-path="url(#SVGID_84_)" />
  </g>
</svg>
