<?xml version="1.0" encoding="UTF-8" standalone="no"?>
<svg
   xmlns:dc="http://purl.org/dc/elements/1.1/"
   xmlns:cc="http://creativecommons.org/ns#"
   xmlns:rdf="http://www.w3.org/1999/02/22-rdf-syntax-ns#"
   xmlns:svg="http://www.w3.org/2000/svg"
   xmlns="http://www.w3.org/2000/svg"
   xmlns:sodipodi="http://sodipodi.sourceforge.net/DTD/sodipodi-0.dtd"
   xmlns:inkscape="http://www.inkscape.org/namespaces/inkscape"
   sodipodi:docname="gear5.svg"
   inkscape:version="1.0 (4035a4fb49, 2020-05-01)"
   id="svg4207"
   version="1.1"
   viewBox="0 0 121.17914 59.795895"
   height="226"
   width="458">
  <defs
     id="defs4201" />
  <sodipodi:namedview
     inkscape:window-maximized="1"
     inkscape:window-y="32"
     inkscape:window-x="892"
     inkscape:window-height="1017"
     inkscape:window-width="2560"
     units="px"
     showgrid="false"
     inkscape:document-rotation="0"
     inkscape:current-layer="layer1"
     inkscape:document-units="mm"
     inkscape:cy="161.63622"
     inkscape:cx="148.65836"
     inkscape:zoom="1.979899"
     inkscape:pageshadow="2"
     inkscape:pageopacity="0.0"
     borderopacity="1.0"
     bordercolor="#666666"
     pagecolor="#ffffff"
     id="base" />
  <metadata
     id="metadata4204">
    <rdf:RDF>
      <cc:Work
         rdf:about="">
        <dc:format>image/svg+xml</dc:format>
        <dc:type
           rdf:resource="http://purl.org/dc/dcmitype/StillImage" />
        <dc:title></dc:title>
      </cc:Work>
    </rdf:RDF>
  </metadata>
  <g
     id="layer1"
     inkscape:groupmode="layer"
     inkscape:label="Слой 1">
    <g
       id="g5449"
       transform="matrix(0.00132573,0,0,-0.00132573,56.505404,22.561529)"
       style="display:inline;fill:none;fill-opacity:1;stroke:#f5ca5c;stroke-width:121.44265184;stroke-miterlimit:4;stroke-dasharray:none;stroke-opacity:1"
       inkscape:export-xdpi="523"
       inkscape:export-ydpi="523">
      <path
         id="path5447"
         d="m 7235,12766 c -16,-8 -42,-26 -56,-42 -14,-16 -153,-267 -309,-559 -156,-291 -298,-553 -316,-582 -53,-84 -49,-83 -328,-94 l -247,-11 -53,26 c -53,26 -59,34 -416,549 -200,287 -373,536 -386,553 -29,39 -80,64 -132,64 -43,0 -1174,-376 -1213,-403 -58,-41 -70,-89 -59,-235 24,-296 71,-892 81,-1029 l 12,-153 -29,-57 c -28,-55 -38,-64 -234,-200 -113,-78 -221,-147 -240,-153 -82,-24 -92,-21 -736,246 -661,274 -642,267 -720,232 -38,-18 -781,-942 -796,-990 -8,-29 -8,-48 0,-77 8,-25 152,-223 402,-552 338,-446 391,-521 401,-564 14,-65 14,-65 -116,-375 -115,-277 -141,-316 -219,-344 -23,-8 -324,-66 -671,-128 C 195,7770 192,7769 148,7709 96,7639 -33,6441 9,6416 c 6,-4 293,-110 637,-236 344,-126 640,-238 657,-248 66,-38 81,-81 141,-413 31,-169 56,-328 56,-355 0,-31 -9,-65 -23,-91 -15,-29 -167,-177 -492,-479 -259,-240 -479,-451 -490,-467 -13,-21 -19,-47 -18,-81 0,-46 25,-97 255,-544 141,-271 268,-506 283,-522 14,-15 45,-33 68,-39 39,-11 87,-2 667,129 654,148 677,151 750,117 39,-19 504,-499 532,-549 38,-70 36,-90 -66,-488 -235,-917 -230,-897 -217,-940 6,-22 22,-51 34,-65 12,-14 242,-149 511,-300 443,-249 494,-275 535,-275 27,0 59,8 76,18 17,11 230,222 475,471 245,249 461,461 482,471 73,39 93,37 459,-45 189,-42 355,-83 368,-92 69,-45 73,-54 286,-694 201,-603 207,-619 245,-653 22,-20 55,-38 77,-42 91,-17 658,19 1020,65 164,21 199,38 227,113 9,24 75,322 146,662 86,406 137,630 149,650 39,62 68,77 373,193 329,126 371,135 444,96 18,-10 248,-191 510,-403 263,-212 491,-393 508,-403 22,-13 45,-17 83,-14 51,3 62,11 349,228 583,441 638,484 657,511 11,14 22,48 24,75 5,44 -15,102 -227,658 -128,336 -235,626 -237,645 -10,69 13,112 173,332 86,117 166,224 178,236 35,39 95,65 151,64 27,0 326,-30 663,-67 l 612,-66 43,19 c 23,11 50,28 60,39 14,16 364,954 422,1131 22,65 8,120 -43,172 -20,21 -268,208 -551,416 -508,373 -514,378 -539,433 l -25,55 12,215 c 16,281 18,294 55,348 30,43 53,56 613,337 321,161 590,299 599,306 22,19 54,85 54,112 0,42 -259,1217 -275,1248 -9,17 -32,41 -53,55 -42,27 1,24 -1013,89 -389,25 -396,27 -455,83 -43,41 -223,380 -230,434 -4,27 0,60 8,84 8,22 162,289 342,593 314,528 328,554 328,602 -1,27 -7,60 -14,74 -13,25 -850,884 -898,921 -15,12 -45,21 -80,23 l -57,4 -564,-313 c -310,-172 -582,-319 -604,-327 -69,-24 -114,-9 -300,95 -188,105 -208,120 -237,177 -26,50 -25,37 -49,751 -20,590 -21,611 -43,655 -37,75 36,53 -984,296 -172,40 -323,74 -335,74 -12,-1 -35,-7 -52,-14 z m -385,-2650 c 275,-36 503,-87 740,-166 1259,-416 2223,-1500 2484,-2792 57,-283 70,-419 70,-748 1,-310 -4,-386 -45,-635 C 9907,4606 9144,3578 8075,3050 7670,2850 7320,2745 6830,2678 c -153,-21 -711,-17 -880,5 -874,119 -1636,499 -2230,1113 -849,878 -1212,2088 -990,3300 146,797 579,1558 1196,2103 609,537 1352,856 2169,930 151,14 608,6 755,-13 z"
         inkscape:connector-curvature="0"
         style="fill:none;fill-opacity:1;stroke:#f5ca5c;stroke-width:121.44265184;stroke-miterlimit:4;stroke-dasharray:none;stroke-opacity:1" />
    </g>
    <path
       style="display:inline;fill:none;fill-opacity:1;stroke:#f5ca5c;stroke-width:0.16100017;stroke-miterlimit:4;stroke-dasharray:none;stroke-opacity:1"
       inkscape:connector-curvature="0"
       d="m 48.48649,10.618142 c -0.129501,0.485628 -0.269792,0.992841 -0.312961,1.127739 l -0.07015,0.248208 -0.339942,0.03777 c -0.183458,0.02158 -0.496419,0.07554 -0.696069,0.11871 -0.199648,0.04856 -0.388503,0.07015 -0.415484,0.05396 -0.02698,-0.02158 -0.323752,-0.426275 -0.652901,-0.911906 -0.334543,-0.480232 -0.625923,-0.895716 -0.647504,-0.9173 -0.02698,-0.03238 -1.419118,0.555776 -1.494662,0.63132 -0.01079,0.0054 0.11871,0.518003 0.285983,1.133133 0.161876,0.620529 0.291379,1.127742 0.280588,1.133136 -0.140294,0.102523 -0.72305,0.56657 -0.901114,0.723049 l -0.242809,0.210441 -1.041406,-0.501816 -1.041406,-0.501819 -0.45865,0.647507 c -0.253607,0.356128 -0.45865,0.663693 -0.45865,0.685277 0,0.02158 0.366921,0.399297 0.809383,0.847153 l 0.809383,0.809384 -0.178063,0.431669 c -0.102525,0.23742 -0.210442,0.544985 -0.248214,0.685277 -0.08094,0.296774 -0.01079,0.275192 -1.246448,0.366921 -0.399293,0.03237 -0.830967,0.07015 -0.949675,0.08633 l -0.221232,0.02698 -0.07015,0.777006 c -0.03777,0.431672 -0.05935,0.798593 -0.03777,0.814781 0.0162,0.0162 0.501818,0.161876 1.079178,0.318355 0.577357,0.156482 1.079175,0.296774 1.111551,0.318358 0.03238,0.02158 0.05935,0.129501 0.05935,0.237418 0,0.107919 0.04856,0.415484 0.102522,0.685277 0.05396,0.264399 0.09173,0.501818 0.08094,0.523401 -0.0162,0.02158 -0.437068,0.323752 -0.938884,0.669089 -0.507212,0.345336 -0.917299,0.652901 -0.917299,0.679883 0,0.05935 0.58815,1.348969 0.636713,1.402929 0.03237,0.03238 1.651141,-0.356128 2.147563,-0.518004 0.09173,-0.02698 0.161876,0.03238 0.415483,0.356128 0.161876,0.215835 0.372315,0.464043 0.464044,0.550379 0.09173,0.09173 0.167273,0.178064 0.167273,0.199648 0,0.02158 -0.221232,0.507213 -0.485628,1.07378 -0.269795,0.571963 -0.485631,1.046801 -0.474838,1.052197 0.134895,0.118711 1.26803,0.890319 1.311196,0.890319 0.03238,0 0.415484,-0.361521 0.857949,-0.803984 l 0.803985,-0.803984 0.275189,0.124105 c 0.151086,0.06475 0.44786,0.172669 0.652902,0.242814 0.210439,0.06475 0.393899,0.140295 0.420877,0.156482 0.02158,0.02158 0.07554,0.534192 0.124107,1.143927 0.04856,0.604338 0.10252,1.116949 0.124104,1.13853 0.0162,0.02158 0.383111,0.07015 0.809386,0.10792 0.631316,0.05935 0.777005,0.06475 0.798589,0.0054 0.01619,-0.03777 0.156479,-0.539588 0.312961,-1.111551 l 0.280584,-1.036008 0.18346,-0.03777 c 0.102522,-0.02158 0.431674,-0.08094 0.739238,-0.134898 l 0.550379,-0.102522 0.663694,0.955073 c 0.636714,0.9173 0.663692,0.949675 0.793196,0.890321 0.07554,-0.03238 0.404692,-0.183461 0.739235,-0.339943 l 0.604338,-0.280584 -0.269792,-1.014425 c -0.145689,-0.555777 -0.280586,-1.062989 -0.296774,-1.12774 -0.02158,-0.09173 0.02698,-0.156482 0.259002,-0.318358 0.156479,-0.113314 0.410087,-0.329149 0.566566,-0.474838 l 0.280586,-0.264399 1.057594,0.496422 c 0.577359,0.27519 1.062987,0.491026 1.073781,0.480235 0.07554,-0.08634 0.852549,-1.203283 0.868739,-1.251846 0.01079,-0.03777 -0.339945,-0.442462 -0.77701,-0.901113 -0.712255,-0.739236 -0.79859,-0.847153 -0.74463,-0.944278 0.03237,-0.05935 0.145688,-0.361525 0.259002,-0.674486 l 0.199648,-0.566567 0.663691,-0.05936 c 0.366921,-0.03777 0.890324,-0.08094 1.160116,-0.10252 l 0.491022,-0.03777 0.0648,-0.652902 c 0.0324,-0.361525 0.0594,-0.73384 0.0594,-0.820175 v -0.161876 l -1.106153,-0.296774 c -0.955072,-0.253605 -1.111554,-0.307565 -1.127741,-0.40469 -0.01079,-0.05935 -0.05935,-0.350734 -0.102523,-0.647505 -0.04856,-0.296774 -0.09713,-0.577361 -0.118707,-0.62053 -0.02158,-0.05935 0.237417,-0.264395 0.938881,-0.750027 l 0.965865,-0.663692 -0.334543,-0.723049 c -0.205045,-0.447856 -0.361524,-0.717652 -0.41009,-0.723049 -0.04317,0 -0.534193,0.124107 -1.089968,0.269796 -1.030613,0.275189 -1.176301,0.302168 -1.176301,0.226627 0,-0.02698 -0.194252,-0.280587 -0.431672,-0.571964 l -0.437068,-0.523401 0.464047,-0.98205 c 0.259004,-0.539589 0.480236,-1.00903 0.496424,-1.041405 0.01079,-0.03777 -0.275189,-0.27519 -0.642113,-0.528797 l -0.658297,-0.464047 -0.820174,0.81478 -0.820171,0.820175 -0.480237,-0.194255 c -0.259085,-0.102519 -0.577443,-0.215833 -0.696153,-0.248208 -0.259002,-0.07015 -0.232021,0.03777 -0.350731,-1.527036 l -0.06475,-0.8471527 -0.221233,-0.03238 c -0.215833,-0.02698 -1.300407,-0.134898 -1.375949,-0.134898 -0.01619,0 -0.140294,0.3938997 -0.269795,0.8741347 z m 1.019825,3.199757 c 2.104391,0.318356 3.879636,1.802225 4.559518,3.809493 0.19965,0.588152 0.296773,1.181699 0.296773,1.856182 0,1.327388 -0.42088,2.530672 -1.241051,3.550492 -0.793195,0.987447 -1.818414,1.656536 -3.054071,1.985686 -0.615132,0.167273 -1.877767,0.205042 -2.503687,0.07554 -2.174544,-0.442462 -3.868851,-2.012664 -4.451605,-4.133245 -0.194251,-0.690673 -0.242814,-1.802225 -0.113313,-2.492898 0.23202,-1.219469 0.793193,-2.255479 1.694307,-3.124217 1.295011,-1.246446 3.037881,-1.802222 4.813129,-1.527033 z"
       id="path5477" />
    <path
       style="display:inline;fill:none;fill-opacity:1;stroke:#f5ca5c;stroke-width:0.16100017;stroke-miterlimit:4;stroke-dasharray:none;stroke-opacity:1"
       inkscape:connector-curvature="0"
       d="m 15.605093,15.606136 c -0.01619,0.05396 -0.210439,0.712256 -0.437065,1.46768 -0.22123,0.750027 -0.404691,1.370553 -0.404691,1.381347 0,0.0054 -0.178064,0.02698 -0.388503,0.04856 -0.215835,0.02158 -0.658299,0.09173 -0.987448,0.161876 -0.323752,0.07015 -0.593547,0.124104 -0.598942,0.11871 -0.0054,0 -0.377711,-0.539588 -0.830967,-1.192492 -0.447857,-0.652902 -0.83636,-1.208678 -0.857944,-1.230259 -0.03238,-0.03238 -1.9101421,0.771611 -1.9964771,0.85255 -0.01079,0.01619 0.145688,0.679879 0.345336,1.489263 0.318356,1.262635 0.356128,1.473073 0.285981,1.510845 -0.145689,0.08094 -0.728443,0.528798 -1.025217,0.7878 -0.156479,0.140292 -0.323752,0.28598 -0.372315,0.323752 -0.07554,0.05935 -0.280586,-0.01619 -1.446098,-0.550379 -0.74463,-0.33994 -1.37595,-0.620526 -1.402929,-0.620526 -0.03777,0 -1.116948,1.413719 -1.262637,1.656534 -0.02698,0.04856 0.291377,0.393899 1.036011,1.122345 l 1.073779,1.057592 -0.178064,0.388503 c -0.09712,0.215836 -0.259001,0.620527 -0.356127,0.901113 -0.09713,0.280586 -0.178064,0.518006 -0.183461,0.528797 -0.01079,0.01079 -0.701464,0.07554 -1.54322,0.151086 -0.84176,0.07554 -1.548621,0.156479 -1.564808,0.172667 -0.03238,0.03777 -0.280587,2.066624 -0.253606,2.088205 0.01079,0.0054 0.685277,0.178064 1.500055,0.388506 l 1.483867,0.377712 0.03777,0.399294 c 0.03777,0.372315 0.167273,1.116948 0.237418,1.37595 0.02698,0.102523 -0.129501,0.226627 -1.23026,0.965863 -0.690673,0.469442 -1.278824,0.868738 -1.300409,0.89032 -0.03777,0.03238 0.723049,1.791435 0.820175,1.899349 0.0162,0.02158 0.712255,-0.140292 1.543223,-0.361524 0.825569,-0.22123 1.505452,-0.399293 1.510846,-0.388502 0.08094,0.1295 0.744633,0.955073 0.949676,1.1817 l 0.275189,0.307564 -0.690671,1.354365 -0.69607,1.359764 0.167273,0.129501 c 0.09173,0.07015 0.485628,0.350733 0.874131,0.615132 l 0.706862,0.485628 1.116948,-1.062988 c 0.6097351,-0.588151 1.1547181,-1.062988 1.2032811,-1.062988 0.04856,0.0054 0.269795,0.08634 0.491025,0.18346 0.221232,0.09173 0.598944,0.226627 0.836362,0.296771 l 0.431672,0.124107 0.03238,0.269793 c 0.02158,0.145688 0.06475,0.803986 0.10252,1.456889 0.03777,0.658298 0.08634,1.21947 0.107919,1.251845 0.03777,0.06475 2.08281,0.259002 2.136769,0.205042 0.0162,-0.01619 0.145689,-0.442462 0.296774,-0.938881 0.566567,-1.926332 0.582755,-1.958708 0.712255,-1.985686 0.06475,-0.01079 0.334546,-0.05396 0.593548,-0.08634 0.264399,-0.03777 0.647508,-0.107916 0.85255,-0.161876 l 0.377712,-0.09173 0.366919,0.518004 c 0.199648,0.285982 0.588153,0.841758 0.863343,1.235657 0.410087,0.588153 0.518004,0.712257 0.604338,0.685279 0.134896,-0.04317 1.834601,-0.825573 1.872371,-0.857949 0.01619,-0.0162 -0.134898,-0.669088 -0.334544,-1.446093 -0.194251,-0.782405 -0.35613,-1.435308 -0.35613,-1.451496 0,-0.02158 0.188857,-0.178063 0.420881,-0.345336 0.226627,-0.172667 0.571963,-0.453253 0.766214,-0.62592 l 0.350731,-0.307565 0.539589,0.242815 c 0.296773,0.134895 0.922697,0.426274 1.392138,0.642107 l 0.85255,0.393899 0.647507,-0.868736 0.647505,-0.874131 -1.07378,-1.079178 -1.079176,-1.084572 0.210438,-0.431671 c 0.113314,-0.237419 0.269793,-0.631319 0.350732,-0.87953 0.08094,-0.242814 0.161876,-0.458647 0.183461,-0.469441 0.02158,-0.01079 0.723048,-0.08633 1.564804,-0.161876 0.841759,-0.07554 1.537827,-0.145689 1.543224,-0.151085 0.01079,-0.01619 0.210438,-1.888558 0.210438,-2.001871 0,-0.09173 -0.194251,-0.151085 -1.483866,-0.485631 l -1.483867,-0.383106 -0.06475,-0.555777 c -0.03237,-0.307565 -0.102522,-0.728445 -0.145691,-0.928091 -0.04856,-0.205045 -0.08633,-0.383109 -0.08633,-0.399296 0,-0.01079 0.582755,-0.415484 1.295012,-0.895716 0.712255,-0.474838 1.295009,-0.874134 1.295009,-0.884925 0,-0.0054 -0.194251,-0.437066 -0.431669,-0.955072 -0.339939,-0.750028 -0.447859,-0.933489 -0.5234,-0.922695 -0.05396,0.01079 -0.739236,0.188855 -1.521639,0.3939 -0.782402,0.210439 -1.424513,0.372315 -1.435304,0.361524 -0.01079,-0.01079 -0.124106,-0.167273 -0.259005,-0.350733 -0.134895,-0.178064 -0.410084,-0.501816 -0.609732,-0.712256 l -0.361525,-0.388505 0.685277,-1.338179 c 0.372316,-0.739236 0.67988,-1.365156 0.67988,-1.397531 0,-0.05396 -1.634952,-1.197887 -1.71589,-1.197887 -0.04317,0 -0.760818,0.669089 -1.985683,1.850788 l -0.280587,0.264399 -0.571963,-0.221233 c -0.312962,-0.124104 -0.728446,-0.264399 -0.9173,-0.312961 l -0.345337,-0.09173 -0.02698,-0.302171 c -0.02158,-0.161877 -0.06475,-0.825569 -0.09713,-1.467679 -0.03777,-0.647506 -0.08094,-1.197887 -0.102522,-1.224865 -0.0162,-0.03238 -0.480235,-0.09173 -1.025217,-0.134899 -1.214074,-0.10252 -1.122345,-0.107916 -1.154721,0.0054 z m 1.537827,5.293361 c 2.951549,0.69607 5.061339,2.789672 5.665678,5.627905 0.156479,0.728443 0.172667,1.99108 0.03238,2.72492 -0.588152,3.156592 -3.070257,5.6387 -6.270017,6.275414 -2.460521,0.485628 -5.04515,-0.253608 -6.7826241,-1.947915 -0.61513,-0.598944 -1.062989,-1.224864 -1.451492,-2.012664 -0.361524,-0.739236 -0.544985,-1.338178 -0.663695,-2.147562 -0.33994,-2.287854 0.496422,-4.683624 2.239291,-6.404911 1.1115521,-1.095364 2.6493781,-1.888561 4.2303741,-2.185335 0.636714,-0.113313 2.374189,-0.07554 3.000109,0.07015 z"
       id="path5479" />
    <path
       style="display:inline;fill:none;fill-opacity:1;stroke:#f5ca5c;stroke-width:0.16100017;stroke-miterlimit:4;stroke-dasharray:none;stroke-opacity:1"
       inkscape:connector-curvature="0"
       d="m 36.371196,23.952905 c -0.161876,0.598941 -0.323752,1.089967 -0.372315,1.127739 -0.04856,0.03777 -0.17267,0.07015 -0.275189,0.07015 -0.107919,0 -0.404693,0.04317 -0.669089,0.09713 l -0.469443,0.09713 -0.652904,-0.960467 c -0.361524,-0.534194 -0.685276,-0.955072 -0.717651,-0.944281 -0.03237,0.0162 -0.366918,0.167273 -0.750026,0.334546 -0.604339,0.275189 -0.685279,0.323752 -0.652901,0.420878 0.01619,0.05935 0.151085,0.566567 0.291377,1.127739 l 0.259001,1.019823 -0.302168,0.22123 c -0.172669,0.124107 -0.420883,0.334546 -0.561174,0.464047 l -0.259002,0.242814 -0.334545,-0.151085 c -0.188855,-0.08094 -0.647505,-0.302168 -1.025216,-0.491026 -0.377712,-0.188854 -0.712257,-0.345337 -0.739239,-0.345337 -0.02698,0 -0.259001,0.296774 -0.518003,0.652902 l -0.469441,0.652905 0.820174,0.825568 0.820174,0.820175 -0.151083,0.345337 c -0.07554,0.188854 -0.19965,0.501815 -0.264401,0.696067 -0.107919,0.318358 -0.134897,0.350733 -0.275189,0.366921 -0.08633,0.0054 -0.598944,0.04317 -1.138532,0.08094 -0.544982,0.04317 -0.998238,0.08634 -1.009029,0.09713 -0.02158,0.02158 -0.194251,1.575599 -0.17267,1.597181 0.0054,0.0054 0.507213,0.151085 1.122345,0.318358 l 1.111551,0.307565 0.03777,0.356127 c 0.0162,0.194251 0.07014,0.507212 0.113314,0.69607 0.04317,0.188857 0.07554,0.361524 0.07554,0.383105 0,0.02158 -0.426275,0.329152 -0.944278,0.679885 -0.518006,0.35073 -0.944279,0.663692 -0.944279,0.685276 0,0.04317 0.588151,1.386743 0.631318,1.440702 0.0054,0.01079 0.501815,-0.102522 1.095363,-0.253607 0.588153,-0.156482 1.095365,-0.280589 1.122344,-0.280589 0.02698,0 0.156482,0.140297 0.285982,0.307567 0.129501,0.17267 0.33994,0.426274 0.464044,0.561172 l 0.232023,0.248211 -0.507212,1.057591 -0.507213,1.052199 0.625923,0.447857 c 0.33994,0.24821 0.647504,0.464046 0.674485,0.474837 0.02698,0.01079 0.415484,-0.345334 0.868739,-0.793193 l 0.814777,-0.814777 0.242814,0.107914 c 0.134898,0.06475 0.437066,0.183463 0.674486,0.269798 0.264398,0.09173 0.442462,0.188854 0.46944,0.248208 0.0162,0.05396 0.06475,0.57736 0.102525,1.160116 0.03777,0.588151 0.08094,1.068385 0.09713,1.068385 0.0162,0 0.350731,0.03777 0.733839,0.08094 0.388503,0.04317 0.739236,0.08094 0.787799,0.08094 0.05935,0 0.151082,-0.253605 0.372315,-1.041406 0.156479,-0.566567 0.307564,-1.079176 0.334545,-1.133135 0.03238,-0.05935 0.113316,-0.09173 0.24821,-0.09173 0.107919,0 0.431671,-0.04856 0.712257,-0.102523 0.280586,-0.05935 0.512607,-0.09712 0.518004,-0.09173 0,0 0.285982,0.426274 0.636713,0.938881 0.350736,0.518006 0.625925,0.94428 0.615132,0.955074 -0.01079,0.01079 -0.361524,-0.134901 -0.782405,-0.329152 -0.426274,-0.188854 -0.777005,-0.345336 -0.787798,-0.345336 -0.03777,0 -0.901109,1.284222 -0.901109,1.332785 0,0.02158 0.366918,0.393899 0.814777,0.820174 0.566566,0.544982 0.803986,0.803983 0.782401,0.86334 -0.0162,0.04856 -0.124104,0.366918 -0.242814,0.70686 -0.161876,0.45865 -0.242814,0.625923 -0.312961,0.636716 -0.05396,0.0054 -0.566566,0.05935 -1.138528,0.113313 -0.577362,0.05935 -1.0522,0.113314 -1.062991,0.124104 -0.03238,0.03238 -0.145691,1.559412 -0.11871,1.586391 0.0162,0.01619 0.518004,0.156479 1.122344,0.307564 l 1.089969,0.285983 0.124104,0.642108 c 0.06475,0.356129 0.134897,0.685278 0.151085,0.728444 0.02158,0.05936 -0.232023,0.269793 -0.911905,0.75003 -0.518003,0.366923 -0.944277,0.690673 -0.944277,0.712253 0,0.0216 0.140291,0.33455 0.318355,0.68528 0.172669,0.35613 0.323754,0.67449 0.334545,0.70686 0.01619,0.0378 0.431671,-0.0593 1.154719,-0.259 0.620526,-0.17807 1.133135,-0.31836 1.133135,-0.31296 0.01079,0.0486 0.480234,0.60973 0.690673,0.82557 l 0.264398,0.28059 -0.485628,1.06838 -0.485631,1.06838 0.652901,0.44786 c 0.361524,0.24821 0.669089,0.44786 0.690673,0.44786 0.02158,0 0.393899,-0.36692 0.830967,-0.82017 0.76082,-0.77701 0.798592,-0.81478 0.938884,-0.76082 0.07554,0.0324 0.383108,0.14029 0.679879,0.23741 0.296774,0.0971 0.544985,0.18347 0.555776,0.18886 0.01079,0.005 0.07015,0.5288 0.134897,1.16551 l 0.11871,1.14932 0.350733,0.0324 c 0.194254,0.0216 0.555776,0.0486 0.809383,0.0701 l 0.45865,0.0378 0.156479,-0.60974 c 0.08094,-0.33454 0.215836,-0.84176 0.285983,-1.13313 l 0.140292,-0.51801 0.420877,-0.0648 c 0.232024,-0.0324 0.550384,-0.0917 0.706864,-0.13489 0.156481,-0.0378 0.30217,-0.0594 0.323752,-0.0486 0.0162,0.0108 0.334545,0.43707 0.696069,0.94428 0.361524,0.50182 0.674485,0.90651 0.696067,0.90111 0.447862,-0.17806 1.402933,-0.67448 1.402933,-0.72305 0,-0.0432 -0.134898,-0.55037 -0.30217,-1.13313 -0.161876,-0.58276 -0.291377,-1.06299 -0.280586,-1.07378 0.01079,-0.005 0.161876,-0.1295 0.339939,-0.26979 0.178064,-0.1403 0.426275,-0.35613 0.550381,-0.46944 l 0.22123,-0.21584 1.019824,0.46404 c 0.555776,0.25361 1.041404,0.46405 1.068382,0.46405 0.03238,0 0.264399,-0.29677 0.51261,-0.6583 l 0.453252,-0.65829 -0.841755,-0.81478 -0.841758,-0.80938 0.129501,-0.29678 c 0.07015,-0.161876 0.178066,-0.469441 0.242817,-0.674485 0.05935,-0.210442 0.124104,-0.388506 0.134894,-0.399296 0.01079,-0.01079 0.534194,-0.07015 1.165511,-0.134898 l 1.149325,-0.113313 0.05935,-0.782402 c 0.03238,-0.431671 0.04856,-0.798589 0.02698,-0.820174 -0.0162,-0.01619 -0.518003,-0.156482 -1.106157,-0.307567 -0.593547,-0.151085 -1.084572,-0.285983 -1.095363,-0.296773 -0.01079,-0.01079 -0.04317,-0.17267 -0.07015,-0.361525 -0.03238,-0.188854 -0.09173,-0.512609 -0.140291,-0.712254 -0.04856,-0.199648 -0.08094,-0.372318 -0.07015,-0.383109 0.01079,-0.0054 0.437068,-0.312961 0.949675,-0.674485 l 0.928093,-0.658297 -0.124107,-0.280586 c -0.356127,-0.787799 -0.550378,-1.165511 -0.604338,-1.170907 -0.03237,0 -0.539588,0.134897 -1.133135,0.30217 l -1.073781,0.296774 -0.09713,-0.124107 c -0.05396,-0.07014 -0.264398,-0.312961 -0.458649,-0.544982 -0.199648,-0.232023 -0.366921,-0.442465 -0.377712,-0.464049 -0.0054,-0.02158 0.194251,-0.496422 0.447859,-1.052197 0.253605,-0.555775 0.458649,-1.030612 0.458649,-1.0468 -0.0054,-0.02158 -0.30217,-0.23742 -0.663694,-0.485631 L 50.476022,38.742954 49.655851,39.579316 48.841069,40.41568 48.46336,40.2592 c -0.210442,-0.08633 -0.5234,-0.194251 -0.701466,-0.242814 l -0.318357,-0.09173 -0.107916,-1.127741 c -0.05936,-0.620526 -0.124107,-1.143926 -0.145691,-1.16551 -0.04856,-0.05396 -1.532431,-0.151083 -1.575597,-0.107917 -0.02158,0.0162 -0.161876,0.528797 -0.318358,1.127739 l -0.280586,1.095365 -0.318356,0.03777 c -0.172669,0.0162 -0.48563,0.07014 -0.685278,0.118707 -0.205045,0.04857 -0.388503,0.08633 -0.415484,0.08633 -0.04317,0 -1.348968,-1.791432 -1.348968,-1.850789 0,-0.01619 0.366918,0.151086 0.814777,0.372318 0.447856,0.22123 0.820174,0.399293 0.830965,0.399293 0.0054,0 0.226626,-0.291377 0.485628,-0.647504 l 0.469456,-0.647439 -0.803989,-0.847152 -0.803986,-0.841758 0.199648,-0.491025 c 0.107917,-0.269795 0.215836,-0.571963 0.237418,-0.669088 0.02158,-0.102523 0.06475,-0.188857 0.09713,-0.199651 0.03777,-0.01619 0.561172,-0.05935 1.165513,-0.107916 0.609734,-0.04317 1.11155,-0.09173 1.122341,-0.09713 0.03238,-0.03238 0.18346,-1.564806 0.156482,-1.591785 -0.0162,-0.01619 -0.5234,-0.167272 -1.122344,-0.334545 l -1.095366,-0.307561 -0.0162,-0.183463 c -0.01619,-0.194251 -0.151082,-0.971256 -0.205042,-1.160113 -0.02698,-0.09173 0.113313,-0.205042 0.944281,-0.766215 l 0.965862,-0.658298 -0.323752,-0.728443 c -0.183461,-0.399297 -0.356128,-0.728446 -0.3939,-0.728446 -0.03777,0 -0.53419,0.11871 -1.111553,0.269796 -0.577359,0.145689 -1.062988,0.269793 -1.079175,0.269793 -0.0162,0 -0.107917,-0.107917 -0.205042,-0.242815 -0.09713,-0.134897 -0.307567,-0.393899 -0.464047,-0.571963 l -0.285982,-0.329149 0.480234,-0.992842 c 0.264398,-0.544985 0.485628,-1.019823 0.491024,-1.052198 0.0162,-0.06475 -1.176303,-0.96586 -1.278825,-0.96586 -0.02698,0 -0.404691,0.35073 -0.836362,0.782402 -0.431668,0.431669 -0.814777,0.782402 -0.852546,0.782402 -0.03777,0 -0.156482,-0.04317 -0.269795,-0.102522 -0.107917,-0.05396 -0.399299,-0.167273 -0.636716,-0.248211 l -0.442462,-0.145689 -0.03238,-0.334543 c -0.01619,-0.178064 -0.05935,-0.69607 -0.09173,-1.138532 -0.03238,-0.447857 -0.07554,-0.82557 -0.09173,-0.841757 -0.03777,-0.03238 -1.257239,-0.156482 -1.494659,-0.156482 -0.09173,0 -0.145688,0.134897 -0.399296,1.068386 z m 1.133137,3.005505 c 2.390376,0.415485 4.268141,2.320229 4.662043,4.726794 0.442462,2.741108 -1.165513,5.422862 -3.809495,6.323974 -2.865213,0.987446 -6.016407,-0.464044 -7.171128,-3.291486 -0.442463,-1.100762 -0.523401,-2.476711 -0.210439,-3.631431 0.134897,-0.480234 0.496421,-1.273427 0.787798,-1.710495 0.631319,-0.960467 1.818414,-1.856183 2.946155,-2.228499 0.820173,-0.269794 1.926327,-0.345336 2.795066,-0.188857 z m 4.532539,11.061561 0.161879,0.08633 -0.717654,0.350733 c -0.393899,0.194252 -0.723048,0.361524 -0.728445,0.366919 -0.0054,0.0054 0.129501,0.507215 0.302171,1.122346 l 0.312958,1.116948 -0.410084,0.323752 c -0.226629,0.178066 -0.480234,0.393901 -0.566569,0.485628 l -0.151085,0.16188 -0.237417,-0.118712 c -0.129501,-0.05935 -0.237418,-0.124102 -0.237418,-0.140292 0,-0.02158 0.329147,-0.178064 0.728443,-0.350733 0.399296,-0.172667 0.728442,-0.329146 0.728442,-0.33994 0,-0.01619 -0.118708,-0.496419 -0.269793,-1.073778 -0.145688,-0.57736 -0.269795,-1.079178 -0.269795,-1.122344 0,-0.03777 0.161879,-0.194254 0.366921,-0.345337 0.199648,-0.145688 0.431671,-0.345336 0.518003,-0.437068 0.183461,-0.188854 0.242814,-0.199645 0.469443,-0.08633 z m 5.147675,3.663803 c 0.949674,0.280584 1.726679,0.717654 2.39577,1.354367 1.316596,1.251845 1.9641,2.951546 1.786036,4.70521 -0.205042,2.018061 -1.365158,3.696175 -3.156591,4.575705 -1.030612,0.50182 -2.072018,0.69607 -3.118819,0.58276 -3.259113,-0.37232 -5.552364,-3.269907 -5.104505,-6.469666 0.296774,-2.142164 1.79143,-3.965971 3.809492,-4.640457 0.739238,-0.248213 1.052199,-0.291379 2.012665,-0.269797 0.771611,0.01619 0.955069,0.03777 1.375952,0.161878 z"
       id="path5481" />
    <path
       style="display:inline;fill:none;fill-opacity:1;stroke:#f5ca5c;stroke-width:0.16100017;stroke-miterlimit:4;stroke-dasharray:none;stroke-opacity:1"
       inkscape:connector-curvature="0"
       d="m 62.548371,32.986274 -0.28598,1.133137 -0.41008,0.06475 c -0.22663,0.03237 -0.55039,0.09712 -0.72845,0.140291 -0.17267,0.04316 -0.31836,0.07554 -0.32915,0.06475 -0.005,-0.01079 -0.29677,-0.415484 -0.6475,-0.906509 -0.34534,-0.491024 -0.6529,-0.911905 -0.67449,-0.933487 -0.0593,-0.06475 -1.516242,0.642108 -1.483867,0.728443 0.05396,0.151085 0.615127,2.169144 0.604337,2.179937 -0.38311,0.296774 -0.706859,0.566567 -0.884923,0.739236 l -0.226626,0.215833 -1.030615,-0.46944 c -0.566566,-0.253605 -1.0468,-0.464047 -1.073779,-0.464047 -0.02698,0 -0.248211,0.296774 -0.491025,0.652904 l -0.447861,0.658295 0.825573,0.814779 0.820171,0.81478 -0.09173,0.242814 c -0.05396,0.134898 -0.156479,0.437065 -0.232023,0.674485 -0.07554,0.23742 -0.145689,0.442462 -0.156479,0.453256 -0.01079,0.01619 -0.534194,0.07554 -1.165513,0.134897 l -1.143926,0.113314 -0.03777,0.431668 c -0.02158,0.23742 -0.04856,0.604338 -0.07014,0.814777 l -0.03238,0.383111 1.133133,0.285978 1.133137,0.285985 0.03777,0.248211 c 0.03237,0.232023 0.134895,0.787798 0.205042,1.084569 0.02698,0.124107 -0.04856,0.188857 -0.917299,0.803986 -0.518003,0.366924 -0.938884,0.685279 -0.928093,0.706864 0.188855,0.464046 0.674488,1.402927 0.728445,1.402927 0.04317,0 0.550381,-0.134895 1.138532,-0.302168 l 1.062987,-0.296773 0.134898,0.172667 c 0.07554,0.09712 0.291379,0.356129 0.480234,0.577359 l 0.33994,0.393902 -0.464044,1.014425 c -0.25361,0.561172 -0.464049,1.036009 -0.464049,1.062988 0,0.02698 0.296776,0.253605 0.663697,0.501818 l 0.658296,0.44786 0.81478,-0.847156 c 0.7824,-0.814779 0.82017,-0.847155 0.94428,-0.777008 0.0701,0.03777 0.3831,0.156482 0.69607,0.264399 l 0.56656,0.194251 0.10792,1.106157 c 0.0593,0.604347 0.1241,1.127747 0.14569,1.160117 0.027,0.0378 0.32375,0.0755 0.72844,0.0971 0.38311,0.0216 0.72845,0.0486 0.77701,0.0648 0.0701,0.0162 0.1349,-0.18346 0.37232,-1.11155 0.2536,-0.987455 0.30217,-1.13854 0.39929,-1.154728 0.0648,-0.01079 0.33455,-0.05935 0.59894,-0.107916 0.2698,-0.04856 0.54499,-0.09713 0.62053,-0.11871 0.1295,-0.02698 0.18886,0.04317 0.7824,0.874136 0.35613,0.496418 0.6637,0.922698 0.67989,0.949678 0.0162,0.027 0.35612,-0.11332 0.75542,-0.30757 0.54498,-0.26979 0.71765,-0.377713 0.70686,-0.447857 -0.0108,-0.04856 -0.15108,-0.555775 -0.31296,-1.11695 l -0.28598,-1.025216 0.17267,-0.134897 c 0.0917,-0.07554 0.34533,-0.285983 0.56117,-0.474838 0.21583,-0.18346 0.40469,-0.334548 0.42088,-0.334548 0.0162,0 0.49102,0.210444 1.05759,0.464049 0.56657,0.259002 1.0468,0.442462 1.06838,0.420878 0.0216,-0.02698 0.23203,-0.323752 0.46405,-0.663692 l 0.42088,-0.609737 -0.82557,-0.825568 -0.82557,-0.825571 0.19425,-0.534193 c 0.10792,-0.291377 0.21584,-0.604338 0.24281,-0.690673 l 0.0486,-0.161876 1.13854,-0.113313 c 0.63131,-0.06475 1.15472,-0.124105 1.16551,-0.134898 0.027,-0.03238 0.14569,-1.570203 0.1241,-1.591785 -0.0108,-0.01619 -0.518,-0.151085 -1.13313,-0.307567 l -1.10616,-0.280583 -0.0648,-0.415484 c -0.0324,-0.232023 -0.0971,-0.561172 -0.14029,-0.728442 -0.0432,-0.167273 -0.0593,-0.318358 -0.0378,-0.339942 0.0216,-0.02158 0.43167,-0.312961 0.9065,-0.647507 0.47484,-0.334546 0.88493,-0.625922 0.90651,-0.647507 0.0701,-0.05935 -0.64211,-1.516243 -0.72844,-1.483868 -0.0378,0.0162 -0.50722,0.151085 -1.04141,0.296776 -0.53419,0.151086 -1.00903,0.285983 -1.05759,0.296774 -0.0594,0.02158 -0.1349,-0.03777 -0.22123,-0.172667 -0.0755,-0.113316 -0.29138,-0.37232 -0.47484,-0.571968 l -0.33454,-0.366918 0.46404,-1.019822 c 0.25361,-0.566566 0.46405,-1.046803 0.46405,-1.073781 0,-0.02698 -0.29678,-0.248211 -0.6529,-0.491025 l -0.6529,-0.442462 -0.82558,0.820174 -0.82557,0.82557 -0.23742,-0.09713 c -0.1241,-0.05396 -0.43706,-0.161876 -0.69067,-0.242814 l -0.45865,-0.145691 -0.10792,-1.154716 -0.10791,-1.15472 -0.45865,-0.03777 c -0.25361,-0.01619 -0.62053,-0.04856 -0.81478,-0.07015 l -0.35613,-0.03238 z m 1.53783,3.005505 c 1.25184,0.259002 2.4929,1.030616 3.29688,2.039644 0.4047,0.507212 0.87953,1.429911 1.04141,2.034249 0.55038,2.039641 -0.0216,4.154828 -1.52704,5.627905 -2.2231,2.174541 -5.83294,2.158354 -8.01828,-0.02698 -1.133131,-1.133132 -1.683512,-2.44973 -1.694303,-4.03612 -0.01079,-1.456887 0.437066,-2.665566 1.397533,-3.798699 0.83636,-0.982049 2.2285,-1.732079 3.56128,-1.915539 0.50182,-0.07015 1.40833,-0.03238 1.94252,0.07554 z"
       id="path5483" />
  </g>
</svg>
