<?xml version="1.0" encoding="UTF-8" standalone="no"?>
<svg
   xmlns:dc="http://purl.org/dc/elements/1.1/"
   xmlns:cc="http://creativecommons.org/ns#"
   xmlns:rdf="http://www.w3.org/1999/02/22-rdf-syntax-ns#"
   xmlns:svg="http://www.w3.org/2000/svg"
   xmlns="http://www.w3.org/2000/svg"
   xmlns:sodipodi="http://sodipodi.sourceforge.net/DTD/sodipodi-0.dtd"
   xmlns:inkscape="http://www.inkscape.org/namespaces/inkscape"
   sodipodi:docname="gear6.svg"
   inkscape:version="1.0 (4035a4fb49, 2020-05-01)"
   id="svg4207"
   version="1.1"
   viewBox="0 0 121.17914 59.795895"
   height="226"
   width="458">
  <defs
     id="defs4201" />
  <sodipodi:namedview
     inkscape:window-maximized="1"
     inkscape:window-y="32"
     inkscape:window-x="892"
     inkscape:window-height="1017"
     inkscape:window-width="2560"
     units="px"
     showgrid="false"
     inkscape:document-rotation="0"
     inkscape:current-layer="layer1"
     inkscape:document-units="mm"
     inkscape:cy="113.43852"
     inkscape:cx="357.67397"
     inkscape:zoom="2.8"
     inkscape:pageshadow="2"
     inkscape:pageopacity="0.0"
     borderopacity="1.0"
     bordercolor="#666666"
     pagecolor="#ffffff"
     id="base" />
  <metadata
     id="metadata4204">
    <rdf:RDF>
      <cc:Work
         rdf:about="">
        <dc:format>image/svg+xml</dc:format>
        <dc:type
           rdf:resource="http://purl.org/dc/dcmitype/StillImage" />
        <dc:title></dc:title>
      </cc:Work>
    </rdf:RDF>
  </metadata>
  <g
     id="layer1"
     inkscape:groupmode="layer"
     inkscape:label="Слой 1">
    <g
       clip-path="none"
       style="display:inline;fill:none;fill-opacity:1;stroke:#f5ca5c;stroke-width:0.52622184;stroke-miterlimit:4;stroke-dasharray:none;stroke-opacity:1;paint-order:stroke fill markers"
       transform="matrix(-0.20903753,0,0,0.20903753,452.77309,-94.697999)"
       id="g65466"
       inkscape:export-xdpi="523"
       inkscape:export-ydpi="523">
      <g
         id="g65424"
         transform="matrix(0.91243428,0,0,0.91243428,1302.4218,-58.709372)"
         style="fill:none;fill-opacity:1;stroke:#f5ca5c;stroke-width:0.576723;stroke-miterlimit:4;stroke-dasharray:none;stroke-opacity:1;paint-order:stroke fill markers">
        <path
           mask="url(#SVGID_4_)"
           style="fill:none;fill-opacity:1;stroke:#f5ca5c;stroke-width:0.576723;stroke-miterlimit:4;stroke-dasharray:none;stroke-opacity:1;paint-order:stroke fill markers"
           inkscape:connector-curvature="0"
           class="st9"
           d="m 366.26,682.09 c 7.7,0 13.96,-6.28 13.96,-13.99 0,-7.71 -6.26,-13.99 -13.96,-13.99 -7.7,0 -13.96,6.28 -13.96,13.99 0,7.71 6.27,13.99 13.96,13.99 m 0,-20.19 c 3.41,0 6.18,2.78 6.18,6.2 0,3.42 -2.78,6.2 -6.18,6.2 -3.41,0 -6.19,-2.78 -6.19,-6.2 0.01,-3.42 2.78,-6.2 6.19,-6.2"
           id="path65420"
           clip-path="url(#SVGID_84_)" />
        <path
           mask="url(#SVGID_4_)"
           style="fill:none;fill-opacity:1;stroke:#f5ca5c;stroke-width:0.576723;stroke-miterlimit:4;stroke-dasharray:none;stroke-opacity:1;paint-order:stroke fill markers"
           inkscape:connector-curvature="0"
           class="st9"
           d="m 323.91,665.55 -8.52,2.87 0.45,6.54 8.84,1.66 c 0.36,1.79 0.83,3.56 1.43,5.32 l -6.91,5.93 2.88,5.88 8.9,-1.85 c 1.13,1.71 2.36,3.31 3.68,4.81 l -4,8.07 4.93,4.3 7.42,-5.09 c 1.53,1.02 3.12,1.93 4.76,2.74 l -0.67,9 6.18,2.12 4.97,-7.52 c 1.97,0.4 3.97,0.67 5.99,0.79 l 2.87,8.54 6.52,-0.46 1.66,-8.86 c 1.78,-0.36 3.55,-0.84 5.31,-1.43 l 5.91,6.93 5.87,-2.88 -1.85,-8.93 c 1.7,-1.13 3.31,-2.36 4.8,-3.69 l 8.05,4.01 4.29,-4.95 -5.08,-7.44 c 1.02,-1.54 1.93,-3.13 2.74,-4.77 l 8.97,0.67 2.12,-6.2 -7.5,-4.98 c 0.4,-1.97 0.67,-3.98 0.79,-6 l 8.52,-2.88 -0.45,-6.54 -8.83,-1.66 c -0.36,-1.79 -0.84,-3.56 -1.43,-5.32 l 6.91,-5.92 -2.88,-5.88 -8.91,1.85 c -1.13,-1.71 -2.36,-3.31 -3.68,-4.81 l 4,-8.07 -4.93,-4.3 -7.42,5.09 c -1.53,-1.02 -3.12,-1.93 -4.76,-2.74 l 0.67,-9 -6.18,-2.12 -4.97,7.52 c -1.97,-0.4 -3.97,-0.67 -5.99,-0.79 l -2.87,-8.54 -6.52,0.46 -1.66,8.86 c -1.78,0.36 -3.55,0.84 -5.3,1.43 l -5.91,-6.93 -5.87,2.88 1.85,8.93 c -1.7,1.13 -3.3,2.37 -4.8,3.7 l -8.05,-4.01 -4.29,4.94 5.08,7.44 c -1.02,1.53 -1.93,3.13 -2.73,4.77 l -8.98,-0.67 -2.12,6.2 7.5,4.98 c -0.42,1.97 -0.68,3.98 -0.8,6 m 42.89,-30.56 c 18.25,0 33.05,14.83 33.05,33.13 0,18.3 -14.8,33.13 -33.05,33.13 -18.25,0 -33.05,-14.83 -33.05,-33.13 0,-18.3 14.79,-33.13 33.05,-33.13"
           id="path65422"
           clip-path="url(#SVGID_84_)" />
      </g>
      <g
         id="g65430"
         transform="matrix(0.91243428,0,0,0.91243428,1302.4218,-58.709372)"
         style="fill:none;fill-opacity:1;stroke:#f5ca5c;stroke-width:0.576723;stroke-miterlimit:4;stroke-dasharray:none;stroke-opacity:1;paint-order:stroke fill markers">
        <path
           mask="url(#SVGID_4_)"
           style="fill:none;fill-opacity:1;stroke:#f5ca5c;stroke-width:0.576723;stroke-miterlimit:4;stroke-dasharray:none;stroke-opacity:1;paint-order:stroke fill markers"
           inkscape:connector-curvature="0"
           class="st9"
           d="m 519.59,835.04 c 7.7,0 13.96,-6.28 13.96,-13.99 0,-7.72 -6.26,-13.99 -13.96,-13.99 -7.7,0 -13.96,6.28 -13.96,13.99 0,7.71 6.27,13.99 13.96,13.99 m 0,-20.19 c 3.41,0 6.18,2.78 6.18,6.2 0,3.42 -2.78,6.2 -6.18,6.2 -3.41,0 -6.19,-2.78 -6.19,-6.2 0.01,-3.42 2.78,-6.2 6.19,-6.2"
           id="path65426"
           clip-path="url(#SVGID_84_)" />
        <path
           mask="url(#SVGID_4_)"
           style="fill:none;fill-opacity:1;stroke:#f5ca5c;stroke-width:0.576723;stroke-miterlimit:4;stroke-dasharray:none;stroke-opacity:1;paint-order:stroke fill markers"
           inkscape:connector-curvature="0"
           class="st9"
           d="m 477.24,818.5 -8.52,2.87 0.45,6.54 8.84,1.66 c 0.36,1.78 0.83,3.56 1.43,5.32 l -6.91,5.93 2.88,5.88 8.9,-1.85 c 1.13,1.71 2.36,3.31 3.68,4.81 l -4,8.07 4.93,4.3 7.42,-5.09 c 1.53,1.02 3.12,1.93 4.76,2.74 l -0.67,9 6.18,2.12 4.96,-7.52 c 1.97,0.4 3.97,0.67 5.99,0.79 l 2.87,8.54 6.52,-0.46 1.66,-8.86 c 1.78,-0.36 3.55,-0.84 5.31,-1.44 l 5.91,6.93 5.87,-2.88 -1.85,-8.93 c 1.7,-1.13 3.3,-2.36 4.8,-3.69 l 8.05,4.01 4.29,-4.95 -5.08,-7.44 c 1.01,-1.54 1.93,-3.13 2.74,-4.77 l 8.97,0.67 2.11,-6.2 -7.5,-4.98 c 0.4,-1.97 0.67,-3.98 0.79,-6 l 8.52,-2.88 -0.45,-6.54 -8.83,-1.66 c -0.36,-1.79 -0.84,-3.56 -1.43,-5.32 l 6.91,-5.92 -2.88,-5.88 -8.91,1.85 c -1.13,-1.71 -2.36,-3.31 -3.68,-4.81 l 4,-8.07 -4.93,-4.3 -7.42,5.09 c -1.53,-1.02 -3.12,-1.93 -4.76,-2.74 l 0.67,-9 -6.18,-2.12 -4.96,7.52 c -1.97,-0.4 -3.97,-0.67 -5.99,-0.79 l -2.87,-8.54 -6.52,0.46 -1.66,8.86 c -1.78,0.36 -3.55,0.84 -5.3,1.43 l -5.91,-6.93 -5.87,2.88 1.85,8.93 c -1.7,1.13 -3.3,2.36 -4.8,3.69 l -8.05,-4.01 -4.29,4.94 5.08,7.44 c -1.01,1.53 -1.93,3.13 -2.73,4.77 l -8.98,-0.67 -2.12,6.2 7.5,4.98 c -0.41,1.99 -0.67,4 -0.79,6.02 m 42.89,-30.56 c 18.25,0 33.05,14.83 33.05,33.13 0,18.3 -14.8,33.13 -33.05,33.13 -18.25,0 -33.05,-14.83 -33.05,-33.13 0,-18.3 14.8,-33.13 33.05,-33.13"
           id="path65428"
           clip-path="url(#SVGID_84_)" />
      </g>
      <g
         id="g65436"
         transform="matrix(0.91243428,0,0,0.91243428,1302.4218,-58.709372)"
         style="fill:none;fill-opacity:1;stroke:#f5ca5c;stroke-width:0.576723;stroke-miterlimit:4;stroke-dasharray:none;stroke-opacity:1;paint-order:stroke fill markers">
        <path
           mask="url(#SVGID_4_)"
           style="fill:none;fill-opacity:1;stroke:#f5ca5c;stroke-width:0.576723;stroke-miterlimit:4;stroke-dasharray:none;stroke-opacity:1;paint-order:stroke fill markers"
           inkscape:connector-curvature="0"
           class="st9"
           d="m 482.99,758.15 c 3.22,0 5.84,-2.63 5.84,-5.85 0,-3.23 -2.62,-5.85 -5.84,-5.85 -3.22,0 -5.84,2.63 -5.84,5.85 0,3.23 2.62,5.85 5.84,5.85 m 0,-8.44 c 1.43,0 2.59,1.16 2.59,2.59 0,1.43 -1.16,2.59 -2.59,2.59 -1.43,0 -2.59,-1.16 -2.59,-2.59 0.01,-1.43 1.17,-2.59 2.59,-2.59"
           id="path65432"
           clip-path="url(#SVGID_84_)" />
        <path
           mask="url(#SVGID_4_)"
           style="fill:none;fill-opacity:1;stroke:#f5ca5c;stroke-width:0.576723;stroke-miterlimit:4;stroke-dasharray:none;stroke-opacity:1;paint-order:stroke fill markers"
           inkscape:connector-curvature="0"
           class="st9"
           d="m 465.28,751.24 -3.57,1.2 0.19,2.73 3.7,0.69 c 0.15,0.75 0.35,1.49 0.6,2.22 l -2.89,2.48 1.2,2.46 3.72,-0.77 c 0.47,0.71 0.99,1.38 1.54,2.01 l -1.67,3.38 2.06,1.8 3.1,-2.13 c 0.64,0.42 1.3,0.81 1.99,1.15 l -0.28,3.76 2.59,0.89 2.08,-3.15 c 0.82,0.17 1.66,0.28 2.51,0.33 l 1.2,3.57 2.73,-0.19 0.69,-3.71 c 0.75,-0.15 1.49,-0.35 2.22,-0.6 l 2.47,2.9 2.46,-1.21 -0.77,-3.74 c 0.71,-0.47 1.38,-0.99 2.01,-1.54 l 3.37,1.68 1.79,-2.07 -2.13,-3.11 c 0.42,-0.64 0.81,-1.31 1.14,-1.99 l 3.75,0.28 0.88,-2.59 -3.14,-2.08 c 0.17,-0.82 0.28,-1.66 0.33,-2.51 l 3.56,-1.2 -0.19,-2.73 -3.69,-0.69 c -0.15,-0.75 -0.35,-1.49 -0.6,-2.23 l 2.89,-2.48 -1.2,-2.46 -3.73,0.77 c -0.47,-0.71 -0.99,-1.39 -1.54,-2.01 l 1.67,-3.38 -2.06,-1.8 -3.11,2.13 c -0.64,-0.43 -1.3,-0.81 -1.99,-1.15 l 0.28,-3.76 -2.59,-0.89 -2.08,3.15 c -0.82,-0.17 -1.66,-0.28 -2.51,-0.33 l -1.2,-3.57 -2.73,0.19 -0.69,3.71 c -0.75,0.15 -1.49,0.35 -2.22,0.6 l -2.47,-2.9 -2.46,1.21 0.77,3.73 c -0.71,0.47 -1.38,0.99 -2.01,1.55 l -3.37,-1.68 -1.79,2.07 2.12,3.11 c -0.42,0.64 -0.81,1.31 -1.14,2 l -3.75,-0.28 -0.89,2.59 3.14,2.08 c -0.13,0.82 -0.24,1.66 -0.29,2.51 m 17.94,-12.79 c 7.63,0 13.82,6.21 13.82,13.86 0,7.65 -6.19,13.86 -13.82,13.86 -7.63,0 -13.83,-6.2 -13.83,-13.86 0,-7.65 6.19,-13.86 13.83,-13.86"
           id="path65434"
           clip-path="url(#SVGID_84_)" />
      </g>
      <g
         id="g65440"
         transform="matrix(0.91243428,0,0,0.91243428,1302.4218,-58.709372)"
         style="fill:none;fill-opacity:1;stroke:#f5ca5c;stroke-width:0.576723;stroke-miterlimit:4;stroke-dasharray:none;stroke-opacity:1;paint-order:stroke fill markers">
        <path
           mask="url(#SVGID_4_)"
           style="fill:none;fill-opacity:1;stroke:#f5ca5c;stroke-width:0.576723;stroke-miterlimit:4;stroke-dasharray:none;stroke-opacity:1;paint-order:stroke fill markers"
           inkscape:connector-curvature="0"
           class="st9"
           d="m 509.35,712.1 -9.05,3.05 0.48,6.94 9.38,1.76 c 0.38,1.89 0.88,3.78 1.52,5.65 l -7.34,6.29 3.06,6.24 9.45,-1.96 c 1.2,1.81 2.5,3.51 3.91,5.1 l -4.25,8.57 5.24,4.56 7.88,-5.4 c 1.62,1.08 3.31,2.05 5.05,2.91 l -0.71,9.55 6.57,2.25 5.26,-7.99 c 2.09,0.43 4.22,0.71 6.36,0.84 l 3.04,9.07 6.92,-0.48 1.76,-9.4 c 1.89,-0.38 3.77,-0.89 5.63,-1.52 l 6.27,7.36 6.23,-3.06 -1.96,-9.48 c 1.81,-1.19 3.51,-2.51 5.09,-3.92 l 8.54,4.26 4.55,-5.25 -5.39,-7.89 c 1.08,-1.63 2.05,-3.32 2.91,-5.06 l 9.53,0.72 2.24,-6.58 -7.97,-5.28 c 0.42,-2.1 0.71,-4.23 0.84,-6.37 l 9.04,-3.05 -0.48,-6.94 -9.38,-1.76 c -0.38,-1.89 -0.88,-3.78 -1.52,-5.65 l 7.34,-6.29 -3.05,-6.25 -9.46,1.96 c -1.19,-1.81 -2.5,-3.52 -3.91,-5.11 l 4.24,-8.56 -5.23,-4.56 -7.88,5.4 c -1.63,-1.08 -3.31,-2.05 -5.05,-2.91 l 0.71,-9.54 -6.56,-2.25 -5.27,7.99 c -2.09,-0.43 -4.21,-0.71 -6.35,-0.84 l -3.04,-9.07 -6.92,0.48 -1.76,9.4 c -1.89,0.38 -3.77,0.89 -5.63,1.52 l -6.27,-7.36 -6.23,3.06 1.96,9.47 c -1.81,1.2 -3.51,2.51 -5.09,3.92 l -8.54,-4.26 -4.55,5.25 5.39,7.9 c -1.07,1.63 -2.05,3.32 -2.9,5.06 l -9.52,-0.72 -2.25,6.58 7.97,5.28 c -0.44,2.09 -0.72,4.22 -0.85,6.37 m 45.52,-14 c 9.21,0 16.68,7.49 16.68,16.72 0,9.23 -7.47,16.72 -16.68,16.72 -9.21,0 -16.68,-7.49 -16.68,-16.72 0,-9.23 7.47,-16.72 16.68,-16.72"
           id="path65438"
           clip-path="url(#SVGID_84_)" />
      </g>
      <g
         id="g65444"
         transform="matrix(0.91243428,0,0,0.91243428,1302.4218,-58.709372)"
         style="fill:none;fill-opacity:1;stroke:#f5ca5c;stroke-width:0.576723;stroke-miterlimit:4;stroke-dasharray:none;stroke-opacity:1;paint-order:stroke fill markers">
        <path
           mask="url(#SVGID_4_)"
           style="fill:none;fill-opacity:1;stroke:#f5ca5c;stroke-width:0.576723;stroke-miterlimit:4;stroke-dasharray:none;stroke-opacity:1;paint-order:stroke fill markers"
           inkscape:connector-curvature="0"
           class="st9"
           d="m 421.03,642.87 -3.04,1.02 0.16,2.33 3.15,0.59 c 0.13,0.64 0.3,1.27 0.51,1.9 l -2.47,2.11 1.03,2.1 3.17,-0.66 c 0.4,0.61 0.84,1.18 1.31,1.71 l -1.43,2.88 1.76,1.53 2.65,-1.81 c 0.54,0.36 1.11,0.69 1.69,0.98 l -0.24,3.21 2.21,0.76 1.77,-2.68 c 0.7,0.14 1.42,0.24 2.13,0.28 l 1.02,3.05 2.32,-0.16 0.59,-3.16 c 0.63,-0.13 1.27,-0.3 1.89,-0.51 l 2.11,2.47 2.09,-1.03 -0.66,-3.18 c 0.61,-0.4 1.18,-0.84 1.71,-1.32 l 2.87,1.43 1.53,-1.76 -1.81,-2.65 c 0.36,-0.55 0.69,-1.12 0.98,-1.7 l 3.2,0.24 0.75,-2.21 -2.67,-1.77 c 0.14,-0.71 0.24,-1.42 0.28,-2.14 l 3.04,-1.03 -0.16,-2.33 -3.15,-0.59 c -0.13,-0.64 -0.3,-1.27 -0.51,-1.9 l 2.46,-2.11 -1.03,-2.1 -3.17,0.66 c -0.4,-0.61 -0.84,-1.18 -1.31,-1.71 l 1.42,-2.88 -1.76,-1.53 -2.62,1.8 c -0.54,-0.36 -1.11,-0.69 -1.7,-0.98 l 0.24,-3.21 -2.2,-0.76 -1.77,2.68 c -0.7,-0.14 -1.41,-0.24 -2.13,-0.28 l -1.02,-3.04 -2.32,0.16 -0.59,3.16 c -0.64,0.13 -1.27,0.3 -1.89,0.51 l -2.11,-2.47 -2.09,1.03 0.66,3.18 c -0.61,0.4 -1.18,0.84 -1.71,1.32 l -2.87,-1.43 -1.53,1.76 1.81,2.65 c -0.36,0.55 -0.69,1.11 -0.97,1.7 l -3.2,-0.24 -0.76,2.21 2.68,1.77 c -0.16,0.72 -0.25,1.43 -0.3,2.15 m 15.29,-4.7 c 3.09,0 5.6,2.51 5.6,5.62 0,3.1 -2.51,5.62 -5.6,5.62 -3.09,0 -5.6,-2.51 -5.6,-5.62 0,-3.11 2.51,-5.62 5.6,-5.62"
           id="path65442"
           clip-path="url(#SVGID_84_)" />
      </g>
      <g
         id="g65448"
         transform="matrix(0.91243428,0,0,0.91243428,1302.4218,-58.709372)"
         style="fill:none;fill-opacity:1;stroke:#f5ca5c;stroke-width:0.576723;stroke-miterlimit:4;stroke-dasharray:none;stroke-opacity:1;paint-order:stroke fill markers">
        <path
           mask="url(#SVGID_4_)"
           style="fill:none;fill-opacity:1;stroke:#f5ca5c;stroke-width:0.576723;stroke-miterlimit:4;stroke-dasharray:none;stroke-opacity:1;paint-order:stroke fill markers"
           inkscape:connector-curvature="0"
           class="st9"
           d="m 342.71,587.92 -3.88,1.31 0.21,2.97 4.02,0.75 c 0.16,0.81 0.38,1.62 0.65,2.42 l -3.15,2.7 1.31,2.68 4.05,-0.84 c 0.51,0.78 1.07,1.51 1.68,2.19 l -1.82,3.67 2.24,1.96 3.38,-2.32 c 0.69,0.46 1.42,0.88 2.16,1.25 l -0.31,4.09 2.82,0.96 2.26,-3.42 c 0.9,0.18 1.81,0.3 2.72,0.36 l 1.31,3.89 2.97,-0.21 0.75,-4.03 c 0.81,-0.16 1.61,-0.38 2.41,-0.65 l 2.69,3.15 2.67,-1.31 -0.84,-4.06 c 0.77,-0.51 1.5,-1.08 2.18,-1.68 l 3.66,1.82 1.95,-2.25 -2.31,-3.38 c 0.46,-0.7 0.88,-1.42 1.25,-2.17 l 4.08,0.31 0.96,-2.82 -3.41,-2.26 c 0.18,-0.9 0.31,-1.81 0.36,-2.73 l 3.88,-1.31 -0.21,-2.97 -4.02,-0.75 c -0.16,-0.81 -0.38,-1.62 -0.65,-2.42 l 3.15,-2.69 -1.31,-2.68 -4.05,0.84 c -0.51,-0.78 -1.07,-1.51 -1.68,-2.19 l 1.82,-3.67 -2.24,-1.96 -3.38,2.31 c -0.7,-0.46 -1.42,-0.88 -2.16,-1.25 l 0.31,-4.09 -2.81,-0.96 -2.26,3.42 c -0.9,-0.18 -1.81,-0.3 -2.72,-0.36 l -1.3,-3.89 -2.97,0.21 -0.75,4.03 c -0.81,0.17 -1.62,0.38 -2.41,0.65 l -2.69,-3.15 -2.67,1.31 0.84,4.06 c -0.78,0.51 -1.5,1.08 -2.18,1.68 l -3.66,-1.82 -1.95,2.25 2.31,3.38 c -0.46,0.7 -0.88,1.42 -1.24,2.17 l -4.08,-0.31 -0.96,2.82 3.41,2.26 c -0.21,0.89 -0.33,1.8 -0.39,2.73 m 19.51,-6 c 3.95,0 7.15,3.21 7.15,7.17 0,3.96 -3.2,7.17 -7.15,7.17 -3.95,0 -7.15,-3.21 -7.15,-7.17 0,-3.97 3.2,-7.17 7.15,-7.17"
           id="path65446"
           clip-path="url(#SVGID_84_)" />
      </g>
      <g
         id="g65454"
         transform="matrix(0.91243428,0,0,0.91243428,1302.4218,-58.709372)"
         style="fill:none;fill-opacity:1;stroke:#f5ca5c;stroke-width:0.576723;stroke-miterlimit:4;stroke-dasharray:none;stroke-opacity:1;paint-order:stroke fill markers">
        <path
           mask="url(#SVGID_4_)"
           style="fill:none;fill-opacity:1;stroke:#f5ca5c;stroke-width:0.576723;stroke-miterlimit:4;stroke-dasharray:none;stroke-opacity:1;paint-order:stroke fill markers"
           inkscape:connector-curvature="0"
           class="st9"
           d="m 426.84,693.94 -6.04,2.04 0.32,4.63 6.26,1.18 c 0.25,1.26 0.59,2.52 1.01,3.77 l -4.9,4.2 2.04,4.17 6.31,-1.31 c 0.8,1.21 1.67,2.35 2.61,3.41 l -2.83,5.72 3.49,3.05 5.26,-3.61 c 1.08,0.72 2.21,1.37 3.38,1.94 l -0.48,6.38 4.38,1.5 3.52,-5.33 c 1.4,0.28 2.82,0.48 4.25,0.56 l 2.03,6.05 4.62,-0.32 1.17,-6.28 c 1.26,-0.26 2.52,-0.59 3.76,-1.02 l 4.19,4.91 4.16,-2.04 -1.31,-6.33 c 1.21,-0.8 2.34,-1.68 3.4,-2.62 l 5.71,2.84 3.04,-3.51 -3.6,-5.27 c 0.72,-1.09 1.37,-2.22 1.94,-3.38 l 6.36,0.48 1.5,-4.39 -5.32,-3.53 c 0.29,-1.4 0.47,-2.82 0.56,-4.25 l 6.04,-2.04 -0.32,-4.63 -6.26,-1.17 c -0.25,-1.27 -0.59,-2.52 -1.01,-3.77 l 4.9,-4.2 -2.04,-4.17 -6.31,1.31 c -0.8,-1.21 -1.67,-2.35 -2.61,-3.41 l 2.83,-5.72 -3.49,-3.05 -5.26,3.61 c -1.08,-0.72 -2.21,-1.37 -3.37,-1.95 l 0.48,-6.37 -4.38,-1.5 -3.52,5.33 c -1.4,-0.29 -2.82,-0.47 -4.25,-0.56 l -2.03,-6.05 -4.62,0.32 -1.17,6.28 c -1.26,0.25 -2.52,0.59 -3.76,1.01 l -4.19,-4.91 -4.16,2.04 1.31,6.33 c -1.21,0.8 -2.34,1.67 -3.4,2.62 l -5.71,-2.84 -3.04,3.51 3.6,5.27 c -0.72,1.09 -1.37,2.21 -1.94,3.38 l -6.36,-0.48 -1.5,4.4 5.32,3.53 c -0.3,1.38 -0.48,2.8 -0.57,4.24 m 30.4,-26.44 c 15.57,0 28.18,12.65 28.18,28.25 0,15.6 -12.62,28.26 -28.18,28.26 -15.57,0 -28.18,-12.65 -28.18,-28.26 0,-15.6 12.61,-28.25 28.18,-28.25"
           id="path65450"
           clip-path="url(#SVGID_84_)" />
        <path
           mask="url(#SVGID_4_)"
           style="fill:none;fill-opacity:1;stroke:#f5ca5c;stroke-width:0.576723;stroke-miterlimit:4;stroke-dasharray:none;stroke-opacity:1;paint-order:stroke fill markers"
           inkscape:connector-curvature="0"
           class="st9"
           d="m 457.24,668.78 c 14.84,0 26.91,12.1 26.91,26.97 0,14.87 -12.07,26.98 -26.91,26.98 -14.84,0 -26.91,-12.1 -26.91,-26.98 0,-14.87 12.07,-26.97 26.91,-26.97 z m 0,50.85 c 13.13,0 23.81,-10.71 23.81,-23.87 0,-13.16 -10.68,-23.87 -23.81,-23.87 -13.13,0 -23.81,10.71 -23.81,23.87 0,13.16 10.68,23.87 23.81,23.87 z"
           id="path65452"
           clip-path="url(#SVGID_84_)" />
      </g>
      <g
         id="g65458"
         transform="matrix(0.91243428,0,0,0.91243428,1302.4218,-58.709372)"
         style="fill:none;fill-opacity:1;stroke:#f5ca5c;stroke-width:0.576723;stroke-miterlimit:4;stroke-dasharray:none;stroke-opacity:1;paint-order:stroke fill markers">
        <path
           mask="url(#SVGID_4_)"
           style="fill:none;fill-opacity:1;stroke:#f5ca5c;stroke-width:0.576723;stroke-miterlimit:4;stroke-dasharray:none;stroke-opacity:1;paint-order:stroke fill markers"
           inkscape:connector-curvature="0"
           class="st9"
           d="m 568.66,788.62 0.46,-0.07 c 0.73,-0.1 1.46,0.31 1.68,1.01 0.29,0.91 -0.31,1.83 -1.21,1.96 l -0.41,0.06 c -0.57,0.08 -0.93,0.65 -0.77,1.2 0.08,0.27 0.16,0.54 0.25,0.81 0.18,0.53 0.77,0.79 1.28,0.56 l 0.43,-0.2 c 0.67,-0.31 1.48,-0.11 1.9,0.5 0.54,0.79 0.21,1.84 -0.61,2.22 l -0.38,0.17 c -0.52,0.24 -0.71,0.88 -0.4,1.37 0.15,0.24 0.31,0.47 0.47,0.7 0.32,0.46 0.96,0.54 1.39,0.17 l 0.38,-0.33 c 0.62,-0.54 1.58,-0.47 2.11,0.15 0.79,0 1.16,0.98 0.56,1.5 l -1.02,0.89 c -0.43,0.38 -0.43,1.05 0,1.42 0.21,0.18 0.43,0.36 0.65,0.54 0.44,0.35 1.08,0.24 1.38,-0.23 l 0.27,-0.43 c 0.45,-0.69 1.38,-0.9 2.07,-0.45 0.69,0.45 0.9,1.38 0.45,2.08 l -0.22,0.35 c -0.31,0.48 -0.12,1.13 0.4,1.37 0.25,0.12 0.51,0.23 0.77,0.34 0.52,0.21 1.1,-0.07 1.26,-0.61 l 0.14,-0.49 c 0.23,-0.79 1.07,-1.25 1.86,-1.02 v 0 c 0.79,0.23 1.25,1.07 1.02,1.87 l -0.12,0.4 c -0.16,0.55 0.2,1.12 0.77,1.2 0.28,0.04 0.55,0.07 0.83,0.1 0.55,0.06 1.04,-0.38 1.04,-0.94 v -0.51 c 0,-0.83 0.67,-1.5 1.5,-1.5 v 0 c 0.82,0 1.5,0.68 1.5,1.5 v 0.41 c 0,0.57 0.5,1.02 1.07,0.93 0.28,-0.04 0.56,-0.08 0.83,-0.13 0.55,-0.1 0.89,-0.66 0.73,-1.19 l -0.13,-0.45 c -0.21,-0.71 0.1,-1.49 0.76,-1.81 0.85,-0.42 1.85,0.05 2.1,0.92 l 0.12,0.4 c 0.16,0.55 0.77,0.83 1.29,0.59 0.26,-0.12 0.51,-0.24 0.76,-0.37 0.5,-0.25 0.67,-0.88 0.37,-1.35 l -0.28,-0.43 c -0.45,-0.7 -0.24,-1.63 0.45,-2.08 v 0 c 0.69,-0.45 1.63,-0.24 2.07,0.45 l 0.22,0.35 c 0.31,0.48 0.97,0.58 1.41,0.2 0.21,-0.18 0.42,-0.37 0.62,-0.56 0.41,-0.38 0.39,-1.03 -0.03,-1.4 l -0.38,-0.33 c -0.62,-0.54 -0.69,-1.5 -0.15,-2.12 0.54,-0.63 1.49,-0.69 2.12,-0.15 l 0.31,0.27 c 0.43,0.38 1.1,0.28 1.41,-0.2 0.15,-0.24 0.3,-0.48 0.44,-0.72 0.28,-0.48 0.09,-1.1 -0.42,-1.34 l -0.46,-0.21 c -0.75,-0.34 -1.08,-1.24 -0.74,-1.99 v 0 c 0.34,-0.75 1.24,-1.09 1.99,-0.74 l 0.38,0.17 c 0.52,0.24 1.13,-0.04 1.29,-0.59 0.08,-0.27 0.15,-0.54 0.22,-0.81 0.13,-0.54 -0.23,-1.08 -0.78,-1.16 l -0.51,-0.07 c -0.82,-0.12 -1.39,-0.88 -1.27,-1.7 0.12,-0.82 0.88,-1.39 1.7,-1.27 l 0.41,0.06 c 0.56,0.08 1.07,-0.35 1.07,-0.92 0,0 0,-0.01 0,-0.01 0,-0.28 -0.01,-0.56 -0.02,-0.85 -0.02,-0.55 -0.52,-0.97 -1.07,-0.89 l -0.5,0.07 c -0.82,0.12 -1.58,-0.46 -1.7,-1.27 -0.12,-0.82 0.45,-1.58 1.27,-1.7 l 0.41,-0.06 c 0.57,-0.08 0.93,-0.65 0.77,-1.2 -0.08,-0.27 -0.16,-0.54 -0.25,-0.8 -0.18,-0.53 -0.78,-0.79 -1.28,-0.56 l -0.47,0.21 c -0.75,0.34 -1.64,0.01 -1.99,-0.74 -0.34,-0.75 -0.01,-1.65 0.74,-1.99 l 0.37,-0.17 c 0.52,-0.24 0.71,-0.88 0.4,-1.37 -0.15,-0.24 -0.31,-0.47 -0.47,-0.7 -0.32,-0.46 -0.97,-0.54 -1.39,-0.17 l -0.38,0.33 c -0.62,0.54 -1.58,0.47 -2.11,-0.15 -0.79,0 -1.16,-0.98 -0.56,-1.5 l 1.02,-0.88 c 0.43,-0.38 0.43,-1.05 0,-1.42 -0.21,-0.18 -0.43,-0.36 -0.65,-0.54 -0.44,-0.35 -1.08,-0.24 -1.38,0.23 l -0.25,0.39 c -0.4,0.62 -1.19,0.9 -1.87,0.61 -0.88,-0.37 -1.17,-1.43 -0.68,-2.2 l 0.22,-0.35 c 0.31,-0.48 0.12,-1.13 -0.4,-1.37 -0.25,-0.12 -0.51,-0.23 -0.77,-0.34 -0.51,-0.21 -1.1,0.07 -1.26,0.61 l -0.13,0.46 c -0.21,0.7 -0.87,1.18 -1.59,1.11 -0.96,-0.1 -1.55,-1.04 -1.29,-1.92 l 0.12,-0.4 c 0.16,-0.55 -0.2,-1.12 -0.77,-1.2 -0.28,-0.04 -0.56,-0.07 -0.83,-0.1 -0.55,-0.06 -1.04,0.38 -1.04,0.94 v 0.51 c 0,0.83 -0.67,1.5 -1.5,1.5 -0.83,0 -1.5,-0.68 -1.5,-1.5 v -0.41 c 0,-0.57 -0.51,-1.01 -1.07,-0.93 -0.28,0.04 -0.55,0.08 -0.83,0.14 -0.55,0.1 -0.89,0.66 -0.73,1.19 l 0.13,0.45 c 0.21,0.71 -0.1,1.49 -0.76,1.81 -0.85,0.42 -1.85,-0.05 -2.1,-0.92 l -0.12,-0.4 c -0.16,-0.55 -0.77,-0.83 -1.29,-0.59 -0.26,0.12 -0.51,0.24 -0.76,0.37 -0.5,0.25 -0.67,0.88 -0.37,1.35 l 0.25,0.4 c 0.4,0.62 0.32,1.46 -0.22,1.95 -0.7,0.64 -1.79,0.47 -2.28,-0.29 l -0.22,-0.34 c -0.31,-0.48 -0.97,-0.58 -1.41,-0.21 -0.21,0.18 -0.42,0.37 -0.62,0.57 -0.41,0.38 -0.39,1.03 0.03,1.4 l 0.35,0.3 c 0.56,0.48 0.72,1.31 0.34,1.94 -0.49,0.82 -1.58,0.96 -2.27,0.36 l -0.31,-0.27 c -0.43,-0.38 -1.1,-0.28 -1.4,0.2 -0.15,0.24 -0.3,0.48 -0.44,0.72 -0.28,0.48 -0.09,1.1 0.42,1.34 l 0.46,0.21 c 0.75,0.34 1.08,1.24 0.74,1.99 0,0.77 -0.8,1.29 -1.5,0.96 l -0.86,-0.4 c -0.52,-0.24 -1.13,0.04 -1.29,0.59 -0.08,0.27 -0.15,0.54 -0.22,0.81 -0.13,0.54 0.23,1.08 0.78,1.16 l 0.51,0.07 c 0.9,0.13 1.5,1.05 1.21,1.96 -0.23,0.7 -0.95,1.12 -1.68,1.01 L 568.65,786 c -0.56,-0.08 -1.07,0.35 -1.07,0.92 0,0 0,0.01 0,0.01 0,0.28 0,0.57 0.02,0.85 0.01,0.51 0.51,0.92 1.06,0.84 z m 18.81,12.55 c -3.3,-0.22 -6.3,-1.57 -8.61,-3.67 l 3.44,-3.44 c 1.42,1.22 3.21,2.03 5.18,2.24 v 4.87 z m 1.95,0 v -4.88 c 1.97,-0.2 3.76,-1.01 5.18,-2.24 l 3.44,3.44 c -2.32,2.11 -5.32,3.45 -8.62,3.68 z m 9.96,-5.07 -3.45,-3.46 c 1.11,-1.45 1.81,-3.22 1.94,-5.15 h 4.86 c -0.14,3.27 -1.38,6.26 -3.35,8.61 z m -0.33,-18.84 c 2.01,2.23 3.34,5.11 3.63,8.28 h -4.88 c -0.26,-1.83 -1.04,-3.5 -2.18,-4.83 z m -9.63,-4.69 c 3.13,0.21 5.98,1.43 8.23,3.33 l -3.45,3.46 c -1.35,-1.04 -2.99,-1.73 -4.79,-1.91 v -4.88 z m -0.98,10.37 c 2.17,0 3.92,1.76 3.92,3.93 0,2.17 -1.75,3.93 -3.92,3.93 -2.17,0 -3.92,-1.76 -3.92,-3.93 0,-2.17 1.76,-3.93 3.92,-3.93 z m -0.97,-10.37 v 4.88 c -1.79,0.18 -3.43,0.87 -4.79,1.91 l -3.45,-3.46 c 2.26,-1.9 5.11,-3.12 8.24,-3.33 z m -9.63,4.69 3.44,3.44 c -1.15,1.34 -1.93,3 -2.18,4.83 h -4.88 c 0.28,-3.16 1.6,-6.04 3.62,-8.27 z m 1.18,10.23 c 0.12,1.93 0.83,3.71 1.94,5.15 l -3.45,3.46 c -1.97,-2.35 -3.21,-5.34 -3.35,-8.61 z"
           id="path65456"
           clip-path="url(#SVGID_84_)" />
      </g>
      <g
         id="g65462"
         transform="matrix(0.91243428,0,0,0.91243428,1302.4218,-58.709372)"
         style="fill:none;fill-opacity:1;stroke:#f5ca5c;stroke-width:0.576723;stroke-miterlimit:4;stroke-dasharray:none;stroke-opacity:1;paint-order:stroke fill markers">
        <path
           mask="url(#SVGID_4_)"
           style="fill:none;fill-opacity:1;stroke:#f5ca5c;stroke-width:0.576723;stroke-miterlimit:4;stroke-dasharray:none;stroke-opacity:1;paint-order:stroke fill markers"
           inkscape:connector-curvature="0"
           class="st9"
           d="m 324.92,799.12 1.63,-0.23 c 2.58,-0.37 5.14,1.1 5.94,3.58 1.03,3.21 -1.1,6.45 -4.28,6.91 l -1.45,0.21 c -2,0.29 -3.28,2.28 -2.72,4.23 0.28,0.96 0.58,1.91 0.89,2.85 0.63,1.87 2.74,2.79 4.53,1.96 l 1.51,-0.69 c 2.37,-1.08 5.24,-0.4 6.71,1.76 1.89,2.79 0.75,6.5 -2.17,7.84 l -1.32,0.61 c -1.84,0.84 -2.51,3.13 -1.42,4.83 0.54,0.84 1.09,1.66 1.66,2.47 1.13,1.62 3.41,1.89 4.9,0.6 l 1.36,-1.18 c 2.2,-1.91 5.57,-1.67 7.47,0.54 2.79,0 4.09,3.48 1.97,5.31 l -3.6,3.13 c -1.53,1.32 -1.53,3.7 -0.01,5.03 0.75,0.65 1.51,1.29 2.28,1.91 1.54,1.23 3.81,0.86 4.87,-0.8 l 0.97,-1.51 c 1.58,-2.46 4.87,-3.18 7.32,-1.6 2.45,1.58 3.17,4.88 1.59,7.34 l -0.79,1.23 c -1.09,1.7 -0.43,3.99 1.41,4.83 0.9,0.41 1.81,0.81 2.73,1.19 1.82,0.75 3.89,-0.25 4.45,-2.15 l 0.51,-1.74 c 0.82,-2.8 3.78,-4.42 6.58,-3.6 v 0 c 2.8,0.82 4.41,3.79 3.59,6.59 l -0.41,1.4 c -0.57,1.94 0.71,3.95 2.71,4.24 0.98,0.14 1.96,0.26 2.95,0.36 1.96,0.2 3.66,-1.34 3.66,-3.32 v -1.8 c 0,-2.92 2.38,-5.31 5.3,-5.31 v 0 c 2.91,0 5.3,2.39 5.3,5.31 v 1.46 c 0,2.03 1.79,3.59 3.79,3.3 0.98,-0.14 1.96,-0.3 2.94,-0.48 1.94,-0.36 3.14,-2.32 2.59,-4.21 l -0.46,-1.59 c -0.73,-2.5 0.35,-5.26 2.69,-6.4 3.02,-1.48 6.53,0.17 7.43,3.27 l 0.41,1.41 c 0.57,1.95 2.73,2.94 4.57,2.09 0.9,-0.41 1.8,-0.85 2.68,-1.3 1.75,-0.89 2.35,-3.11 1.29,-4.77 l -0.98,-1.53 c -1.58,-2.46 -0.86,-5.76 1.59,-7.34 v 0 c 2.45,-1.58 5.75,-0.86 7.32,1.6 l 0.78,1.22 c 1.09,1.71 3.44,2.05 4.97,0.72 0.75,-0.65 1.48,-1.32 2.2,-2 1.43,-1.35 1.39,-3.65 -0.1,-4.94 l -1.35,-1.18 c -2.2,-1.91 -2.44,-5.29 -0.54,-7.49 1.91,-2.21 5.27,-2.45 7.48,-0.54 l 1.1,0.95 c 1.53,1.33 3.87,0.99 4.97,-0.71 0.54,-0.83 1.06,-1.68 1.56,-2.54 1,-1.7 0.31,-3.9 -1.48,-4.72 l -1.64,-0.75 c -2.65,-1.21 -3.83,-4.38 -2.62,-7.04 v 0 c 1.21,-2.66 4.37,-3.84 7.02,-2.63 l 1.33,0.61 c 1.84,0.84 4,-0.14 4.57,-2.09 0.28,-0.95 0.54,-1.91 0.78,-2.88 0.48,-1.92 -0.8,-3.83 -2.75,-4.11 l -1.79,-0.26 c -2.88,-0.42 -4.91,-3.12 -4.49,-6.01 0.42,-2.89 3.12,-4.92 6,-4.5 l 1.44,0.21 c 1.99,0.29 3.79,-1.25 3.79,-3.27 0,-0.01 0,-0.03 0,-0.04 0,-1 -0.02,-2 -0.06,-2.99 -0.08,-1.96 -1.85,-3.42 -3.79,-3.14 L 463,787.1 c -2.89,0.41 -5.58,-1.61 -6,-4.5 -0.42,-2.89 1.61,-5.6 4.49,-6.01 l 1.45,-0.21 c 2,-0.29 3.28,-2.29 2.72,-4.23 -0.28,-0.96 -0.58,-1.91 -0.89,-2.85 -0.63,-1.87 -2.74,-2.79 -4.53,-1.97 l -1.65,0.76 c -2.65,1.21 -5.81,0.03 -7.02,-2.63 -1.21,-2.66 -0.03,-5.83 2.62,-7.04 l 1.32,-0.6 c 1.84,-0.84 2.51,-3.13 1.42,-4.83 -0.54,-0.84 -1.09,-1.66 -1.66,-2.47 -1.13,-1.61 -3.41,-1.89 -4.9,-0.6 l -1.36,1.18 c -2.2,1.91 -5.57,1.67 -7.47,-0.54 -2.79,0 -4.09,-3.48 -1.98,-5.31 l 3.6,-3.13 c 1.53,-1.33 1.54,-3.7 0.01,-5.03 -0.75,-0.65 -1.51,-1.28 -2.28,-1.91 -1.54,-1.23 -3.81,-0.86 -4.87,0.8 l -0.89,1.38 c -1.41,2.2 -4.19,3.18 -6.59,2.16 -3.09,-1.32 -4.14,-5.06 -2.4,-7.77 l 0.79,-1.23 c 1.09,-1.7 0.43,-3.99 -1.41,-4.83 -0.9,-0.41 -1.81,-0.81 -2.73,-1.19 -1.82,-0.75 -3.9,0.25 -4.45,2.15 l -0.47,1.62 c -0.72,2.47 -3.08,4.18 -5.63,3.91 -3.38,-0.35 -5.48,-3.67 -4.57,-6.78 l 0.41,-1.4 c 0.57,-1.94 -0.71,-3.95 -2.71,-4.24 -0.98,-0.14 -1.96,-0.26 -2.95,-0.36 -1.96,-0.2 -3.66,1.34 -3.66,3.32 v 1.8 c 0,2.92 -2.39,5.31 -5.3,5.31 -2.92,0 -5.3,-2.39 -5.3,-5.31 v -1.46 c 0,-2.02 -1.79,-3.59 -3.79,-3.3 -0.98,0.14 -1.96,0.3 -2.93,0.48 -1.94,0.36 -3.14,2.32 -2.59,4.21 l 0.47,1.59 c 0.73,2.5 -0.35,5.26 -2.69,6.41 -3.02,1.48 -6.53,-0.17 -7.43,-3.27 l -0.41,-1.41 c -0.57,-1.95 -2.73,-2.94 -4.57,-2.09 -0.9,0.41 -1.8,0.85 -2.68,1.29 -1.76,0.9 -2.36,3.12 -1.29,4.77 l 0.9,1.4 c 1.41,2.2 1.14,5.15 -0.78,6.91 -2.48,2.27 -6.31,1.68 -8.05,-1.03 l -0.78,-1.22 c -1.09,-1.7 -3.44,-2.05 -4.97,-0.72 -0.75,0.65 -1.48,1.32 -2.2,2 -1.44,1.35 -1.39,3.65 0.1,4.95 l 1.24,1.08 c 1.97,1.71 2.54,4.62 1.19,6.85 -1.74,2.88 -5.59,3.39 -8.02,1.28 l -1.1,-0.95 c -1.53,-1.33 -3.88,-0.99 -4.97,0.71 -0.54,0.83 -1.06,1.68 -1.56,2.54 -1,1.7 -0.31,3.9 1.48,4.72 l 1.64,0.75 c 2.65,1.21 3.83,4.38 2.62,7.04 0,2.73 -2.82,4.55 -5.3,3.41 l -3.05,-1.4 c -1.84,-0.84 -4,0.14 -4.57,2.09 -0.28,0.95 -0.54,1.91 -0.78,2.88 -0.47,1.92 0.8,3.82 2.75,4.11 l 1.79,0.26 c 3.18,0.46 5.31,3.7 4.28,6.91 -0.8,2.48 -3.36,3.95 -5.94,3.58 l -1.29,-0.19 c -1.99,-0.29 -3.79,1.25 -3.79,3.27 0,0.01 0,0.03 0,0.04 0,1 0.02,2 0.06,2.99 0.06,1.94 1.83,3.4 3.77,3.12 z m 66.5,44.34 c -11.68,-0.79 -22.28,-5.55 -30.45,-12.96 l 12.14,-12.17 c 5.03,4.33 11.35,7.19 18.3,7.9 v 17.23 z m 6.87,0 v -17.23 c 6.96,-0.71 13.28,-3.58 18.3,-7.9 l 12.14,12.17 c -8.16,7.4 -18.76,12.17 -30.44,12.96 z m 35.22,-17.93 -12.18,-12.21 c 3.92,-5.11 6.41,-11.38 6.85,-18.22 h 17.16 c -0.5,11.57 -4.86,22.14 -11.83,30.43 z m -1.17,-66.58 c 7.12,7.89 11.79,18.05 12.82,29.26 h -17.24 c -0.91,-6.48 -3.67,-12.35 -7.72,-17.09 z m -34.05,-16.57 c 11.05,0.75 21.13,5.05 29.1,11.78 l -12.18,12.21 c -4.78,-3.69 -10.58,-6.12 -16.91,-6.76 v -17.23 z m -3.44,36.65 c 7.65,0 13.86,6.22 13.86,13.89 0,7.67 -6.2,13.89 -13.86,13.89 -7.65,0 -13.86,-6.22 -13.86,-13.89 0.01,-7.67 6.21,-13.89 13.86,-13.89 z m -3.43,-36.65 v 17.23 c -6.33,0.65 -12.13,3.07 -16.91,6.76 l -12.18,-12.21 c 7.96,-6.73 18.04,-11.03 29.09,-11.78 z m -34.05,16.57 12.14,12.17 c -4.05,4.73 -6.81,10.61 -7.72,17.09 h -17.25 c 1.04,-11.21 5.71,-21.36 12.83,-29.26 z m 4.17,36.15 c 0.44,6.84 2.92,13.11 6.85,18.22 l -12.18,12.21 c -6.97,-8.29 -11.33,-18.86 -11.82,-30.43 z"
           id="path65460"
           clip-path="url(#SVGID_84_)" />
      </g>
      <path
         mask="url(#SVGID_4_)"
         style="fill:none;fill-opacity:1;stroke:#f5ca5c;stroke-width:0.52622184;stroke-miterlimit:4;stroke-dasharray:none;stroke-opacity:1;paint-order:stroke fill markers"
         inkscape:connector-curvature="0"
         class="st9"
         d="m 1657.9244,489.66363 c 0.027,0.67521 0.6387,1.18617 1.3139,1.0858 l 0.5657,-0.0821 c 0.8942,-0.12778 1.7793,0.38322 2.0621,1.23178 0.3559,1.10404 -0.3832,2.21722 -1.4873,2.38145 l -0.5018,0.073 c -0.6843,0.10039 -1.1405,0.78468 -0.9398,1.45076 0.1004,0.32848 0.2007,0.65695 0.3102,0.98543 0.219,0.6387 0.949,0.95806 1.5694,0.67521 l 0.5201,-0.23724 c 0.8212,-0.37409 1.8249,-0.13687 2.3267,0.60221 0.657,0.95804 0.2646,2.23545 -0.7482,2.69168 l -0.4562,0.20985 c -0.6387,0.29198 -0.8759,1.07667 -0.4927,1.66063 0.1825,0.28286 0.3741,0.57484 0.5748,0.84857 0.3832,0.55658 1.1771,0.64782 1.6971,0.20986 l 0.4745,-0.40147 c 0.7664,-0.66608 1.9252,-0.57484 2.5913,0.18248 v 0 c 0.9672,0 1.4143,1.19529 0.6843,1.82488 l -1.25,1.07667 c -0.5292,0.45621 -0.5292,1.27741 -0.01,1.73362 0.2555,0.22811 0.5201,0.43797 0.7938,0.65695 0.5384,0.41972 1.3231,0.29198 1.688,-0.27373 l 0.3376,-0.52008 c 0.5475,-0.83944 1.688,-1.09493 2.5366,-0.54746 0.8577,0.54746 1.0949,1.67888 0.5475,2.52744 l -0.2738,0.42884 c -0.3741,0.58395 -0.146,1.36866 0.4927,1.66064 0.3103,0.14599 0.6205,0.27373 0.9399,0.41059 0.6387,0.25547 1.3504,-0.0913 1.5511,-0.73907 l 0.1734,-0.59309 c 0.2828,-0.96717 1.3139,-1.52377 2.281,-1.24091 v 0 c 0.9672,0.28285 1.5238,1.30479 1.2409,2.27196 l -0.1368,0.48359 c -0.2008,0.66608 0.2463,1.35953 0.9398,1.4599 0.3376,0.0456 0.6752,0.0821 1.0219,0.11865 0.6752,0.0639 1.2683,-0.45623 1.2683,-1.14055 v -0.61133 c 0,-1.01281 0.8212,-1.83399 1.834,-1.83399 v 0 c 1.0128,0 1.834,0.82118 1.834,1.83399 v 0.49271 c 0,0.69346 0.6204,1.23179 1.3139,1.14055 0.3467,-0.0456 0.6843,-0.10953 1.0219,-0.16424 0.6661,-0.11865 1.0858,-0.79383 0.8942,-1.45078 l -0.1642,-0.54745 c -0.2555,-0.85769 0.1277,-1.81575 0.9306,-2.19896 1.0493,-0.51098 2.2629,0.0548 2.5822,1.12229 l 0.146,0.48359 c 0.1916,0.67519 0.949,1.0128 1.5785,0.72081 0.3103,-0.14599 0.6205,-0.29198 0.9307,-0.44708 0.6114,-0.30111 0.8121,-1.06756 0.4471,-1.64238 l -0.3376,-0.52922 c -0.5474,-0.84856 -0.292,-1.97998 0.5475,-2.52745 v 0 c 0.8485,-0.54745 1.9982,-0.30109 2.5365,0.54747 l 0.2738,0.41972 c 0.3741,0.59308 1.1953,0.70257 1.7245,0.25547 0.2555,-0.2281 0.5109,-0.45621 0.7664,-0.69344 0.4927,-0.46534 0.4836,-1.25916 -0.036,-1.70626 l -0.4653,-0.40146 c -0.7573,-0.65695 -0.8486,-1.81575 -0.1825,-2.58219 0.6661,-0.75732 1.8249,-0.83945 2.5913,-0.18249 l 0.3832,0.32847 c 0.5292,0.45623 1.3413,0.3376 1.7245,-0.24635 0.1916,-0.28285 0.365,-0.58396 0.5384,-0.87594 0.3467,-0.58395 0.1095,-1.34127 -0.511,-1.62413 l -0.5748,-0.25548 c -0.9125,-0.41972 -1.3231,-1.50552 -0.9033,-2.42707 v 0 c 0.4197,-0.91244 1.5146,-1.32303 2.4362,-0.90331 l 0.4562,0.20985 c 0.6387,0.29198 1.3869,-0.0456 1.5876,-0.72081 0.091,-0.32848 0.1825,-0.65697 0.2646,-0.98544 0.1642,-0.65696 -0.2828,-1.31391 -0.9489,-1.41428 l -0.6205,-0.0821 c -1.0037,-0.14599 -1.7062,-1.07667 -1.5602,-2.07122 0.146,-0.99456 1.0858,-1.69713 2.0803,-1.55114 l 0.5019,0.073 c 0.6934,0.1004 1.3139,-0.42883 1.3139,-1.12229 0,0 0,-0.009 0,-0.009 0,-0.34671 0,-0.68432 -0.018,-1.03105 -0.027,-0.67519 -0.6479,-1.17704 -1.314,-1.08579 l -0.6113,0.0913 c -1.0037,0.13686 -1.9343,-0.55659 -2.0803,-1.55114 -0.146,-0.99455 0.5566,-1.92523 1.5602,-2.07122 l 0.5019,-0.073 c 0.6934,-0.0913 1.1405,-0.7847 0.9398,-1.45078 -0.1004,-0.32848 -0.2008,-0.65695 -0.3103,-0.9763 -0.2189,-0.64783 -0.9489,-0.95805 -1.5693,-0.67519 l -0.5749,0.2646 c -0.9124,0.41972 -2.0165,0.009 -2.4362,-0.90331 -0.4197,-0.91244 -0.01,-2.00735 0.9125,-2.41796 l 0.4562,-0.20985 c 0.6387,-0.29198 0.8759,-1.07667 0.4927,-1.66064 -0.1916,-0.29198 -0.3741,-0.5657 -0.5748,-0.84856 -0.3924,-0.55658 -1.1862,-0.64782 -1.6972,-0.20986 l -0.4744,0.4106 c -0.7574,0.65695 -1.9253,0.57484 -2.5822,-0.18248 v 0 c -0.9672,0 -1.4143,-1.1953 -0.6843,-1.83401 l 1.25,-1.07667 c 0.5292,-0.45621 0.5292,-1.27741 0,-1.73362 -0.2555,-0.21898 -0.5201,-0.43797 -0.7847,-0.65695 -0.5383,-0.41972 -1.323,-0.29198 -1.688,0.27372 l -0.3102,0.47447 c -0.4836,0.75732 -1.4508,1.09492 -2.2811,0.73907 -1.0676,-0.45621 -1.4325,-1.74275 -0.8303,-2.67343 l 0.2737,-0.42885 c 0.3832,-0.58395 0.146,-1.37777 -0.4927,-1.66063 -0.3103,-0.14598 -0.6296,-0.28285 -0.949,-0.41059 -0.6295,-0.2646 -1.3504,0.0821 -1.542,0.73907 l -0.1642,0.55659 c -0.2555,0.84857 -1.0676,1.43252 -1.9526,1.34127 -1.1679,-0.11865 -1.8979,-1.25915 -1.5785,-2.33582 l 0.1368,-0.4836 c 0.2008,-0.6752 -0.2372,-1.35952 -0.9398,-1.45989 -0.3376,-0.0548 -0.6843,-0.0913 -1.0219,-0.12778 -0.6843,-0.073 -1.2683,0.46534 -1.2683,1.14054 v 0.62045 c 0,1.00368 -0.8303,1.82488 -1.834,1.82488 v 0 c -1.0128,0 -1.834,-0.8212 -1.834,-1.82488 v -0.50183 c 0,-0.69345 -0.6204,-1.23179 -1.3139,-1.14055 -0.3467,0.0456 -0.6843,0.1004 -1.0219,0.16425 -0.6752,0.11865 -1.0858,0.80294 -0.8942,1.45077 l 0.1643,0.54745 c 0.2554,0.85769 -0.1278,1.80663 -0.9307,2.19898 -1.0493,0.50183 -2.2629,-0.0639 -2.5822,-1.12231 l -0.146,-0.48358 c -0.2007,-0.6752 -0.9489,-1.02193 -1.5785,-0.72995 -0.3194,0.14599 -0.6205,0.29198 -0.9307,0.45622 -0.6113,0.31023 -0.8121,1.06755 -0.4471,1.64238 l 0.3102,0.48358 c 0.4836,0.75732 0.3924,1.77013 -0.2737,2.37234 -0.8577,0.7847 -2.1807,0.57483 -2.792,-0.35585 l -0.2738,-0.41972 c -0.3832,-0.58396 -1.1953,-0.70258 -1.7154,-0.25548 -0.2554,0.2281 -0.5109,0.45621 -0.7664,0.69344 -0.4927,0.46534 -0.4836,1.25917 0.037,1.69713 l 0.4288,0.3741 c 0.6844,0.58396 0.8851,1.58764 0.4106,2.35408 -0.6022,0.98544 -1.9343,1.16792 -2.7738,0.43797 l -0.3832,-0.32848 c -0.5292,-0.45621 -1.3413,-0.34671 -1.7245,0.23724 -0.1916,0.29198 -0.365,0.58396 -0.5474,0.87594 -0.3468,0.58395 -0.1004,1.34127 0.5109,1.62413 l 0.5657,0.25548 c 0.9125,0.41972 1.3231,1.50552 0.9033,2.42707 0,0.93981 -0.9763,1.56939 -1.834,1.17704 l -1.0584,-0.48358 c -0.6387,-0.28285 -1.3869,0.0548 -1.5785,0.72082 -0.1004,0.32847 -0.1916,0.65695 -0.2737,0.98542 -0.1643,0.65695 0.2737,1.31392 0.9489,1.41428 l 0.6205,0.0821 c 1.104,0.1551 1.8431,1.26828 1.4872,2.37232 -0.2737,0.85769 -1.1679,1.35954 -2.0621,1.23179 l -0.4471,-0.0639 c -0.6843,-0.1004 -1.3139,0.43796 -1.3139,1.12229 0,0.009 0,0.009 0,0.0183 -0.01,0.3741 -0.01,0.7117 0.01,1.05843 z m 20.7031,-9.86342 3.2665,7.60058 -7.6735,-3.05665 c 0.9489,-1.93436 2.5,-3.53112 4.407,-4.54393 z m -4.2702,13.87813 7.5824,-3.28477 -3.0476,7.70095 c -1.9343,-0.95805 -3.5311,-2.5092 -4.5348,-4.41618 z m 6.9437,-4.77203 -7.5824,3.27564 c -0.3558,-1.04017 -0.5474,-2.14422 -0.5474,-3.31213 0,-1.05843 0.1551,-2.07123 0.4562,-3.02929 z m -13.5953,-0.16424 c 0,-0.9033 0.7299,-1.63326 1.6332,-1.63326 0.9034,0 1.6333,0.73907 1.6333,1.63326 0,0.90331 -0.7299,1.64239 -1.6333,1.64239 -0.9033,0 -1.6332,-0.73908 -1.6332,-1.64239 z m 6.9801,11.02221 c -0.6387,0.64783 -1.6789,0.64783 -2.3084,0 -0.6388,-0.63871 -0.6388,-1.67889 0,-2.30846 0.6387,-0.63871 1.6697,-0.63871 2.3084,0 0.6387,0.6387 0.6387,1.66975 0,2.30846 z m 8.7685,4.48918 c -0.9033,0 -1.6333,-0.72995 -1.6333,-1.63327 0,-0.90331 0.73,-1.63325 1.6333,-1.63325 0.9033,0 1.6333,0.72994 1.6333,1.63325 0,0.90332 -0.73,1.63327 -1.6333,1.63327 z m -0.046,-5.10964 c -1.0584,0 -2.0621,-0.15511 -3.0202,-0.45621 l 3.0476,-7.70095 3.2756,7.60058 c -1.031,0.36497 -2.1442,0.55658 -3.303,0.55658 z m 9.0514,-15.06429 -7.5824,3.27564 3.0476,-7.69182 c 1.9343,0.95806 3.5311,2.5092 4.5348,4.41618 z m 4.8359,6.02207 c -0.9034,0 -1.6333,-0.73908 -1.6333,-1.63326 0,-0.90331 0.7299,-1.64238 1.6333,-1.64238 0.9033,0 1.6332,0.73907 1.6332,1.64238 0,0.89418 -0.7299,1.63326 -1.6332,1.63326 z m -3.6498,-1.22266 c 0,1.04929 -0.1551,2.07123 -0.4471,3.02016 l -7.6735,-3.05667 7.5823,-3.27563 c 0.3467,1.04018 0.5383,2.15334 0.5383,3.31214 z m -5.4563,9.07872 -3.2757,-7.60971 7.6827,3.05667 c -0.9489,1.94347 -2.4909,3.54024 -4.407,4.55304 z m 6.2684,1.61501 c -0.6387,0.6387 -1.6698,0.6387 -2.3085,0 -0.6387,-0.63871 -0.6387,-1.67889 0,-2.31759 0.6387,-0.63869 1.6698,-0.63869 2.3085,0 0.6387,0.6387 0.6387,1.67888 0,2.31759 z m -2.5092,-22.13566 c 0.6387,-0.6387 1.6697,-0.6387 2.3176,0 0.6387,0.63871 0.6387,1.66976 0,2.31758 -0.6387,0.63871 -1.6698,0.63871 -2.3176,0 -0.6296,-0.64782 -0.6296,-1.67887 0,-2.31758 z m -8.7685,-4.48918 c 0.9033,0 1.6333,0.72995 1.6333,1.64239 0,0.9033 -0.73,1.63325 -1.6333,1.63325 -0.9033,0 -1.6333,-0.72995 -1.6333,-1.63325 0,-0.91244 0.73,-1.64239 1.6333,-1.64239 z m 0.2281,5.66622 c 1.0402,0 2.0621,0.14599 3.011,0.4471 l -3.0475,7.70093 -3.2756,-7.60056 c 1.0493,-0.35586 2.1533,-0.54747 3.3121,-0.54747 z m -11.2321,-0.98543 c 0.6387,-0.6387 1.6698,-0.6387 2.3085,0 0.6387,0.64783 0.6387,1.67889 0,2.31759 -0.6387,0.64782 -1.6698,0.64782 -2.3085,0 -0.6387,-0.6387 -0.6387,-1.66976 0,-2.31759 z"
         id="path65464"
         clip-path="url(#SVGID_84_)" />
    </g>
  </g>
</svg>
