<?xml version="1.0" encoding="UTF-8" standalone="no"?>
<svg
   xmlns:dc="http://purl.org/dc/elements/1.1/"
   xmlns:cc="http://creativecommons.org/ns#"
   xmlns:rdf="http://www.w3.org/1999/02/22-rdf-syntax-ns#"
   xmlns:svg="http://www.w3.org/2000/svg"
   xmlns="http://www.w3.org/2000/svg"
   xmlns:sodipodi="http://sodipodi.sourceforge.net/DTD/sodipodi-0.dtd"
   xmlns:inkscape="http://www.inkscape.org/namespaces/inkscape"
   sodipodi:docname="gear4.svg"
   inkscape:version="1.0 (4035a4fb49, 2020-05-01)"
   id="svg4207"
   version="1.1"
   viewBox="0 0 121.17914 59.795895"
   height="226"
   width="458">
  <defs
     id="defs4201" />
  <sodipodi:namedview
     inkscape:window-maximized="1"
     inkscape:window-y="32"
     inkscape:window-x="892"
     inkscape:window-height="1017"
     inkscape:window-width="2560"
     units="px"
     showgrid="false"
     inkscape:document-rotation="0"
     inkscape:current-layer="layer1"
     inkscape:document-units="mm"
     inkscape:cy="148.30618"
     inkscape:cx="419.29168"
     inkscape:zoom="1.979899"
     inkscape:pageshadow="2"
     inkscape:pageopacity="0.0"
     borderopacity="1.0"
     bordercolor="#666666"
     pagecolor="#ffffff"
     id="base" />
  <metadata
     id="metadata4204">
    <rdf:RDF>
      <cc:Work
         rdf:about="">
        <dc:format>image/svg+xml</dc:format>
        <dc:type
           rdf:resource="http://purl.org/dc/dcmitype/StillImage" />
        <dc:title></dc:title>
      </cc:Work>
    </rdf:RDF>
  </metadata>
  <g
     id="layer1"
     inkscape:groupmode="layer"
     inkscape:label="Слой 1">
    <g
       transform="matrix(0.07564738,0.2865763,-0.2865763,0.07564738,246.45935,-146.32115)"
       style="display:inline;fill:#f4f2f3;fill-opacity:1;stroke:none"
       id="g5859"
       inkscape:export-xdpi="523"
       inkscape:export-ydpi="523">
      <path
         mask="url(#SVGID_4_)"
         style="fill:#f4f2f3;fill-opacity:1;stroke:none;stroke-width:1;stroke-miterlimit:4;stroke-dasharray:none;stroke-opacity:1"
         inkscape:connector-curvature="0"
         class="st9"
         d="m 462.67018,665.4126 c 19.43867,0 35.25434,-15.8593 35.25434,-35.3415 0,-19.4909 -15.81567,-35.3414 -35.25434,-35.3414 -19.43868,0 -35.26311,15.8592 -35.26311,35.3414 0.009,19.4822 15.82443,35.3415 35.26311,35.3415 m 0.009,-63.2454 c 15.33667,0 27.82552,12.5237 27.82552,27.9039 0,15.3803 -12.48885,27.8952 -27.82552,27.8952 -15.34536,0 -27.83421,-12.5149 -27.83421,-27.8952 0,-15.3802 12.48009,-27.9039 27.83421,-27.9039"
         id="path56757"
         clip-path="url(#SVGID_84_)" />
      <path
         mask="url(#SVGID_4_)"
         style="fill:#f4f2f3;fill-opacity:1;stroke:none;stroke-width:1;stroke-miterlimit:4;stroke-dasharray:none;stroke-opacity:1"
         inkscape:connector-curvature="0"
         class="st9"
         d="m 411.26919,626.9794 -10.33772,3.4836 0.54871,7.934 10.72087,2.0118 c 0.43546,2.1686 1.01027,4.3197 1.73313,6.4534 l -8.38685,7.1937 3.49234,7.1415 10.80797,-2.247 c 1.36732,2.0728 2.86528,4.0149 4.46775,5.8351 l -4.85095,9.7977 5.98311,5.2168 9.00521,-6.1747 c 1.85501,1.2366 3.78844,2.3427 5.77411,3.3268 l -0.81866,10.9212 7.50724,2.5779 6.02666,-9.1271 c 2.39504,0.4877 4.82486,0.8099 7.27208,0.958 l 3.48364,10.3725 7.90784,-0.5574 2.01183,-10.747 c 2.15982,-0.4354 4.311,-1.019 6.43603,-1.7418 l 7.16752,8.4043 7.12403,-3.5011 -2.23822,-10.8341 c 2.06408,-1.3673 4.0149,-2.8653 5.82636,-4.4765 l 9.77162,4.8684 5.208,-6.0005 -6.16602,-9.0314 c 1.22796,-1.8637 2.34273,-3.7971 3.3182,-5.7915 l 10.88632,0.8187 2.56918,-7.5247 -9.10971,-6.0441 c 0.48771,-2.395 0.80996,-4.8335 0.95801,-7.2895 l 10.33767,-3.4923 -0.54865,-7.934 -10.72087,-2.0118 c -0.43546,-2.1686 -1.01027,-4.3197 -1.73313,-6.4534 l 8.38685,-7.185 -3.49234,-7.1415 -10.80797,2.247 c -1.36732,-2.0728 -2.86529,-4.0149 -4.46775,-5.8351 l 4.85095,-9.7977 -5.98311,-5.2168 -9.00521,6.1835 c -1.85501,-1.2367 -3.78844,-2.3428 -5.77411,-3.3269 l 0.81866,-10.9212 -7.50724,-2.5692 -6.02672,9.1271 c -2.38628,-0.4877 -4.8248,-0.8099 -7.27209,-0.958 l -3.48364,-10.3725 -7.90784,0.5574 -2.01176,10.747 c -2.15988,0.4355 -4.311,1.019 -6.43603,1.7418 l -7.17628,-8.4042 -7.12403,3.501 2.23822,10.8341 c -2.06402,1.3673 -4.00614,2.874 -5.82636,4.4852 l -9.77162,-4.8684 -5.208,6.0006 6.16601,9.0313 c -1.22796,1.8637 -2.34272,3.7972 -3.31813,5.7828 l -10.89508,-0.8186 -2.56917,7.5246 9.1097,6.0441 c -0.47031,2.3776 -0.7925,4.8161 -0.94056,7.2721 m 52.05414,-37.092 c 22.1472,0 40.10536,18.0017 40.10536,40.2099 0,22.2081 -17.95816,40.2098 -40.10536,40.2098 -22.14714,0 -40.10531,-18.0017 -40.10531,-40.2098 -0.009,-22.2082 17.94941,-40.2099 40.10531,-40.2099"
         id="path56759"
         clip-path="url(#SVGID_84_)" />
    </g>
    <path
       id="path56763"
       d="m 35.181598,46.904451 -1.405735,0.323835 -0.02877,1.050109 1.38531,0.402263 c 0.03,0.292571 0.07583,0.582829 0.145343,0.871475 l -1.197848,0.837447 0.369224,0.983552 1.451768,-0.154905 c 0.151677,0.288904 0.324252,0.564245 0.513882,0.825524 l -0.76649,1.228227 0.719624,0.763513 1.26631,-0.697653 c 0.22824,0.186789 0.465803,0.358872 0.716829,0.512721 l -0.249831,1.427665 0.955516,0.434387 0.908932,-1.124148 c 0.307571,0.09674 0.625143,0.170982 0.945041,0.222013 l 0.323425,1.409625 1.050144,0.02877 0.402602,-1.389165 c 0.288735,-0.03035 0.579361,-0.0801 0.867644,-0.145747 l 0.833194,1.201363 0.983545,-0.369195 -0.154541,-1.455706 c 0.288904,-0.151664 0.564222,-0.324227 0.825524,-0.513852 l 1.220452,0.765728 0.763888,-0.723508 -0.693739,-1.265952 c 0.186789,-0.228235 0.35538,-0.470004 0.512698,-0.716818 l 1.423821,0.249427 0.434399,-0.955481 -1.119936,-0.912459 c 0.09291,-0.30794 0.167132,-0.625506 0.222019,-0.945041 l 1.40574,-0.323776 0.02877,-1.050103 -1.385305,-0.402269 c -0.03,-0.292566 -0.07587,-0.582829 -0.145383,-0.87154 l 1.197853,-0.837441 -0.365328,-0.983112 -1.451762,0.154846 c -0.151676,-0.288846 -0.324286,-0.564193 -0.513923,-0.825466 l 0.766531,-1.228215 -0.719624,-0.763519 -1.266309,0.697653 c -0.22827,-0.186853 -0.470051,-0.355414 -0.716871,-0.512727 l 0.245572,-1.424202 -0.955505,-0.434393 -0.912816,1.123773 c -0.307536,-0.09675 -0.62127,-0.170606 -0.945035,-0.22196 l -0.323437,-1.409625 -1.04623,-0.02842 -0.402632,1.389225 c -0.288734,0.03035 -0.579361,0.0801 -0.867638,0.145682 l -0.837084,-1.201685 -0.983504,0.369206 0.154506,1.45563 c -0.288898,0.151676 -0.564181,0.324298 -0.82553,0.513916 l -1.224278,-0.766103 -0.763946,0.723509 0.693422,1.269789 c -0.186823,0.228235 -0.355426,0.470004 -0.512744,0.716812 l -1.423792,-0.249421 -0.434393,0.955475 1.119906,0.912471 c -0.08787,0.296679 -0.162117,0.614251 -0.213476,0.938004 m 7.05768,-1.436154 c 1.387965,0.136326 2.397594,1.374512 2.261268,2.762465 -0.136325,1.387958 -1.371448,2.405726 -2.755534,2.269781 -1.387923,-0.136314 -2.401425,-1.374946 -2.265099,-2.762904 0.136325,-1.387953 1.371448,-2.405662 2.759365,-2.269342"
       class="st9"
       inkscape:connector-curvature="0"
       style="display:inline;fill:#f4f2f3;fill-opacity:1;stroke:none;stroke-width:0.296392;stroke-miterlimit:4;stroke-dasharray:none;stroke-opacity:1"
       mask="url(#SVGID_4_)"
       inkscape:export-xdpi="523"
       inkscape:export-ydpi="523"
       clip-path="url(#SVGID_84_)" />
    <path
       mask="url(#SVGID_4_)"
       style="display:inline;fill:#f4f2f3;fill-opacity:1;stroke:none;stroke-width:0.296392;stroke-miterlimit:4;stroke-dasharray:none;stroke-opacity:1"
       inkscape:connector-curvature="0"
       class="st9"
       d="m 3.8860785,36.319369 c -0.02226,0.387996 0.299403,0.709581 0.690967,0.695315 l 0.328359,-0.01494 c 0.518967,-0.02279 0.997337,0.314156 1.110953,0.820959 0.141611,0.651901 -0.34396,1.247456 -0.985074,1.279346 l -0.291318,0.01377 c -0.397336,0.0191 -0.696903,0.385002 -0.619466,0.777527 0.03902,0.193632 0.07793,0.387317 0.122142,0.581453 0.08947,0.377843 0.489268,0.601642 0.860261,0.474621 l 0.310999,-0.106528 c 0.491066,-0.167946 1.04695,0.02379 1.297807,0.475465 0.322188,0.58529 0.02578,1.294303 -0.579537,1.498499 l -0.272897,0.09448 c -0.38195,0.131234 -0.56182,0.566999 -0.37533,0.922712 0.08857,0.172159 0.18178,0.350048 0.281276,0.518012 0.188113,0.340065 0.636778,0.442139 0.959565,0.21551 l 0.294107,-0.203112 c 0.47615,-0.338149 1.134243,-0.220783 1.472813,0.250124 v 0 c 0.553588,0.05437 0.742292,0.763618 0.289016,1.082936 l -0.776011,0.545959 c -0.328516,0.231334 -0.374684,0.701379 -0.102853,0.991672 0.133443,0.144903 0.272569,0.285102 0.41742,0.420654 0.284527,0.270472 0.740839,0.241435 0.981477,-0.06179 l 0.222481,-0.278675 c 0.360524,-0.449708 1.0276405,-0.53178 1.4825465,-0.17077 0.460108,0.361573 0.537,1.028179 0.171262,1.477313 l -0.180795,0.230098 c -0.24696,0.313137 -0.160464,0.775085 0.188699,0.978109 0.169347,0.100967 0.344892,0.192073 0.514778,0.287826 0.351208,0.182154 0.778031,0.02373 0.929303,-0.335788 l 0.132582,-0.3297 c 0.216242,-0.537674 0.83767,-0.798233 1.375268,-0.581968 v 0 c 0.537657,0.216207 0.798766,0.832432 0.582572,1.370054 l -0.105057,0.263875 c -0.152819,0.375177 0.06462,0.791923 0.455837,0.888349 0.190662,0.04476 0.381845,0.08473 0.578177,0.125381 0.382876,0.07454 0.751579,-0.189841 0.790031,-0.581452 l 0.03439,-0.349949 c 0.05695,-0.579653 0.57308,-1.003483 1.152752,-0.946552 v 0 c 0.579659,0.05695 1.003495,0.573092 0.946569,1.152752 l -0.02771,0.282008 c -0.03896,0.396884 0.285851,0.739913 0.682665,0.726157 0.200979,-0.0063 0.397804,-0.02426 0.59463,-0.04178 0.387885,-0.03047 0.666049,-0.393304 0.59334,-0.780035 l -0.06321,-0.322593 c -0.09802,-0.50521 0.175158,-1.03204 0.65623,-1.20625 0.629291,-0.233449 1.292106,0.158397 1.414804,0.787477 l 0.05642,0.28499 c 0.07694,0.397751 0.486151,0.633 0.862915,0.501279 0.185793,-0.06612 0.371562,-0.13223 0.557824,-0.203516 0.367285,-0.143198 0.524791,-0.56537 0.348226,-0.914844 l -0.163476,-0.321913 c -0.266166,-0.511198 -0.06105,-1.150103 0.455409,-1.415765 v 0 c 0.516407,-0.265609 1.160585,-0.06 1.42095,0.455954 l 0.133144,0.255602 c 0.180755,0.360483 0.644554,0.469301 0.972642,0.243134 0.158953,-0.116188 0.318041,-0.232359 0.477603,-0.353815 0.308116,-0.238594 0.347576,-0.69344 0.07541,-0.97856 l -0.243748,-0.255941 c -0.396492,-0.418539 -0.383608,-1.086914 0.04072,-1.488099 0.423789,-0.396023 1.091631,-0.377901 1.49332,0.04119 l 0.200897,0.209527 c 0.277216,0.290885 0.748151,0.273876 1.000841,-0.04406 0.125539,-0.151131 0.241195,-0.308496 0.357366,-0.471082 0.23127,-0.314742 0.138054,-0.761486 -0.201167,-0.958258 L 29.95357,44.64316 c -0.498665,-0.291505 -0.672617,-0.936035 -0.380971,-1.439763 v 0 c 0.291505,-0.498625 0.941232,-0.672073 1.44506,-0.380227 l 0.249315,0.145752 c 0.349122,0.203018 0.796294,0.0522 0.949177,-0.323296 0.07057,-0.182869 0.141347,-0.365714 0.212521,-0.553839 0.130988,-0.366728 -0.08797,-0.76789 -0.463576,-0.862787 l -0.35047,-0.08164 c -0.56104,-0.139431 -0.910866,-0.711644 -0.776567,-1.273171 0.139448,-0.560958 0.716811,-0.910238 1.27781,-0.770801 l 0.283139,0.07018 c 0.385993,0.09603 0.776063,-0.171579 0.815049,-0.568463 0,0 2.93e-4,-0.0059 2.93e-4,-0.0059 0.01951,-0.198478 0.03849,-0.391676 0.04752,-0.591179 0.02279,-0.393152 -0.30415,-0.715259 -0.690939,-0.69525 l -0.355081,0.01781 c -0.582056,0.02191 -1.075782,-0.427263 -1.103431,-1.004696 -0.02765,-0.577428 0.426794,-1.070639 1.009483,-1.097748 l 0.291312,-0.01377 c 0.401988,-0.01318 0.696868,-0.385008 0.619419,-0.777475 -0.03902,-0.193684 -0.07793,-0.387305 -0.122622,-0.576232 -0.0889,-0.383133 -0.489262,-0.601701 -0.860303,-0.474685 l -0.343322,0.113921 c -0.545859,0.188898 -1.154708,-0.107359 -1.343553,-0.653951 -0.188998,-0.545807 0.107441,-1.149412 0.658111,-1.33258 l 0.272915,-0.09454 c 0.381938,-0.131164 0.561837,-0.566935 0.375317,-0.922707 -0.09325,-0.177883 -0.182295,-0.344827 -0.281246,-0.517953 -0.193316,-0.340639 -0.642497,-0.437487 -0.959518,-0.215562 l -0.294658,0.208314 c -0.475587,0.33294 -1.134202,0.220794 -1.467628,-0.249549 v 0 c -0.553593,-0.05437 -0.747471,-0.764129 -0.288459,-1.088139 l 0.77594,-0.545971 c 0.328522,-0.231393 0.374685,-0.701374 0.09746,-0.992264 -0.133947,-0.139683 -0.273074,-0.279881 -0.412194,-0.42008 -0.283983,-0.275686 -0.74081,-0.241487 -0.986709,0.06128 l -0.20422,0.254067 c -0.319323,0.406288 -0.891894,0.545115 -1.34711,0.29478 -0.585389,-0.321151 -0.721908,-1.078003 -0.324919,-1.576798 l 0.18076,-0.230045 c 0.252145,-0.312691 0.161016,-0.780357 -0.188616,-0.978161 -0.169417,-0.100973 -0.344453,-0.197294 -0.520081,-0.288342 -0.345407,-0.186794 -0.777416,-0.02912 -0.924095,0.33635 l -0.125275,0.309293 c -0.193919,0.471334 -0.691478,0.759858 -1.192921,0.657877 -0.661784,-0.133531 -1.015465,-0.827317 -0.772143,-1.425602 l 0.105508,-0.269095 c 0.152871,-0.375113 -0.06456,-0.791923 -0.455849,-0.888356 -0.190134,-0.05015 -0.38652,-0.09063 -0.577668,-0.130595 -0.387551,-0.08044 -0.752135,0.194803 -0.79003,0.581511 l -0.03486,0.355098 c -0.05642,0.574445 -0.577797,0.997765 -1.152242,0.941338 v 0 c -0.579677,-0.05695 -1.003495,-0.573086 -0.947079,-1.147531 l 0.02824,-0.287211 c 0.03896,-0.396896 -0.285811,-0.739861 -0.687892,-0.72662 -0.200938,0.0063 -0.397294,0.0191 -0.594102,0.0365 -0.393099,0.03 -0.666565,0.398519 -0.593323,0.7801 l 0.06329,0.322535 c 0.09792,0.505274 -0.174736,1.026808 -0.656312,1.206237 -0.628775,0.228229 -1.291526,-0.163786 -1.414798,-0.787476 l -0.05636,-0.285002 c -0.07688,-0.39774 -0.485635,-0.63822 -0.862412,-0.506493 -0.191007,0.06556 -0.371544,0.132224 -0.557765,0.203569 -0.36732,0.143198 -0.524832,0.565364 -0.348237,0.914896 l 0.150334,0.294165 c 0.234223,0.460653 0.1251,1.035187 -0.290011,1.342406 -0.535003,0.400903 -1.285598,0.205918 -1.577947,-0.360647 l -0.133091,-0.255596 c -0.186531,-0.355778 -0.644641,-0.469301 -0.972636,-0.243128 -0.1590535,0.116176 -0.3180595,0.232359 -0.4776505,0.353809 -0.308128,0.238599 -0.347541,0.693446 -0.07417,0.973357 l 0.224409,0.23823 c 0.3588135,0.372704 0.4173265,0.958434 0.102648,1.370446 -0.400025,0.530099 -1.172724,0.559669 -1.612145,0.09472 l -0.200856,-0.209522 c -0.277256,-0.29089 -0.748186,-0.273882 -0.995661,0.04453 -0.126038,0.156357 -0.241699,0.313723 -0.36254,0.470584 -0.23127,0.314736 -0.132834,0.761996 0.201161,0.958258 l 0.309416,0.178047 c 0.498654,0.291506 0.672618,0.936042 0.38011,1.43998 -0.05285,0.537868 -0.646984,0.843306 -1.115752,0.570596 l -0.57864,-0.336285 c -0.349626,-0.197809 -0.796821,-0.04675 -0.943945,0.323806 -0.07591,0.182336 -0.146608,0.365193 -0.212053,0.548619 -0.130953,0.366728 0.08279,0.767374 0.463583,0.862775 l 0.350013,0.08705 c 0.623133,0.150868 0.983569,0.829514 0.717807,1.441398 -0.204863,0.475465 -0.74487,0.712423 -1.249441,0.589069 l -0.252304,-0.06172 c -0.391212,-0.09654 -0.776578,0.176764 -0.815048,0.568464 0,0 -2.93e-4,0.0059 -0.0012,0.01078 -0.02256,0.229776 -0.04154,0.423033 -0.05062,0.622483 z m 12.4036195,-4.481372 1.442271,4.53368 -4.220004,-2.180778 c 0.651824,-1.053747 1.629411,-1.880437 2.777733,-2.352902 z m -3.224149,7.702914 4.529555,-1.453263 -2.177086,4.236246 C 14.359519,41.666281 13.532805,40.68877 13.065549,39.540911 Z m 4.242409,-2.340903 -4.523819,1.448551 c -0.145226,-0.615311 -0.192765,-1.257972 -0.127104,-1.926429 0.0595,-0.605809 0.205209,-1.17675 0.431364,-1.708126 z M 9.5360965,36.341785 c 0.0508,-0.516993 0.5096105,-0.893775 1.0266265,-0.842995 0.516969,0.0508 0.893693,0.509627 0.842913,1.026626 -0.0508,0.516992 -0.51009,0.898942 -1.027054,0.848169 -0.5170105,-0.0508 -0.8932655,-0.514802 -0.8424855,-1.0318 z m 3.3753625,6.700766 c -0.401993,0.334902 -0.997343,0.276418 -1.321202,-0.12977 -0.329623,-0.401437 -0.271139,-0.996746 0.129764,-1.321155 0.401484,-0.329694 0.991555,-0.271702 1.321196,0.12977 0.32963,0.401425 0.271638,0.991531 -0.129758,1.321155 z m 4.766192,3.062255 c -0.517004,-0.0508 -0.893734,-0.50957 -0.842954,-1.026568 0.0508,-0.517004 0.509575,-0.893728 1.026567,-0.842949 0.516969,0.0508 0.893746,0.509576 0.842966,1.026568 -0.0508,0.516998 -0.509616,0.893728 -1.026579,0.842949 z m 0.260787,-2.927043 c -0.605779,-0.05949 -1.171506,-0.204658 -1.702882,-0.430843 l 2.177087,-4.236245 1.447479,4.534243 c -0.610565,0.150902 -1.258487,0.197991 -1.921684,0.132845 z m 6.026777,-8.107812 -4.523854,1.448551 2.176647,-4.231025 c 1.053718,0.651877 1.880426,1.629388 2.347207,2.782474 z m 2.429736,3.713282 c -0.516998,-0.0508 -0.893253,-0.51479 -0.84248,-1.031794 0.0508,-0.516998 0.510132,-0.898995 1.027142,-0.848221 0.516969,0.0508 0.893177,0.514854 0.842398,1.031852 -0.0508,0.516998 -0.510079,0.898942 -1.02706,0.848163 z m -2.020184,-0.904936 c -0.05899,0.600582 -0.21043,1.176234 -0.425676,1.703409 l -4.220004,-2.180772 4.523779,-1.448563 c 0.139911,0.614813 0.18704,1.262735 0.121901,1.925926 z m -3.633215,4.889341 -1.447016,-4.53941 4.225254,2.181287 c -0.65285,1.064182 -1.624631,1.886179 -2.778238,2.358123 z m 3.496854,1.276703 c -0.401437,0.329688 -0.99159,0.271714 -1.321243,-0.129776 -0.329636,-0.40143 -0.27114,-0.996745 0.130279,-1.326428 0.401472,-0.329629 0.991619,-0.271661 1.321243,0.12977 0.329665,0.401495 0.271163,0.996816 -0.130279,1.326434 z M 24.046654,31.234252 c 0.401478,-0.32963 0.991608,-0.271656 1.321273,0.129775 0.329629,0.401489 0.271649,0.99159 -0.13028,1.326434 -0.401477,0.329688 -0.991613,0.271714 -1.321284,-0.12977 -0.323893,-0.406147 -0.266118,-0.996189 0.130291,-1.326439 z m -4.766156,-3.062203 c 0.516963,0.0508 0.893739,0.509575 0.842439,1.031794 -0.0508,0.516998 -0.509605,0.893722 -1.026568,0.842949 -0.517016,-0.0508 -0.893746,-0.509575 -0.842966,-1.026574 0.05127,-0.522219 0.510085,-0.898948 1.027095,-0.848169 z m -0.18799,3.255788 c 0.595356,0.05847 1.172027,0.199455 1.698183,0.425124 l -2.177122,4.236245 -1.447479,-4.534254 c 0.620555,-0.14468 1.263192,-0.192255 1.926418,-0.127115 z m -6.373087,-1.195411 c 0.401431,-0.329629 0.991543,-0.271638 1.321161,0.12977 0.329664,0.401431 0.271157,0.99681 -0.13028,1.326434 -0.401952,0.334902 -0.992052,0.276952 -1.321166,-0.129764 -0.329671,-0.401443 -0.271714,-0.99159 0.130285,-1.32644 z"
       id="path56767"
       inkscape:export-xdpi="523"
       inkscape:export-ydpi="523"
       clip-path="url(#SVGID_84_)" />
    <path
       mask="url(#SVGID_4_)"
       style="display:inline;fill:#f4f2f3;fill-opacity:1;stroke:none;stroke-width:0.296392;stroke-miterlimit:4;stroke-dasharray:none;stroke-opacity:1"
       inkscape:connector-curvature="0"
       class="st9"
       d="m 63.742628,23.356074 -1.41024,-2.138459 -1.768982,0.599568 0.185535,2.556049 c -0.464198,0.228628 -0.920387,0.48754 -1.361623,0.780832 l -2.136151,-1.472397 -1.410462,1.22102 1.157608,2.320086 c -0.388916,0.435647 -0.740259,0.890845 -1.057491,1.363573 l -2.514099,-0.515088 -0.826098,1.670869 1.941845,1.674003 c -0.169745,0.495678 -0.304811,0.999887 -0.408708,1.510569 l -2.528131,0.469922 -0.134621,1.85672 2.432379,0.819542 c 0.03304,0.571809 0.104125,1.14244 0.217964,1.707646 l -2.143978,1.41171 0.600875,1.762749 2.560835,-0.189753 c 0.228604,0.464192 0.489561,0.9169 0.782848,1.358125 l -1.47937,2.132119 1.220288,1.407698 2.325605,-1.159056 c 0.434926,0.386151 0.892884,0.736767 1.365624,1.054022 l -0.519313,2.509313 1.675645,0.821874 1.680231,-1.940545 c 0.498431,0.169001 1.002634,0.304079 1.513346,0.40797 l 0.46773,2.519876 1.862216,0.133173 0.826543,-2.428324 c 0.571797,-0.0331 1.145165,-0.104851 1.710394,-0.21869 l 1.412999,2.137732 1.768983,-0.599568 -0.184814,-2.553307 c 0.466945,-0.229354 0.920386,-0.487534 1.361617,-0.780832 l 2.133414,1.473159 1.410451,-1.221008 -1.157609,-2.320098 c 0.388917,-0.43567 0.740254,-0.890886 1.057497,-1.363609 l 2.514093,0.515094 0.826104,-1.670869 -1.941844,-1.673974 c 0.169739,-0.495672 0.304805,-0.999886 0.40869,-1.510592 l 2.528142,-0.469927 0.133901,-1.859439 -2.432391,-0.819578 c -0.03304,-0.571814 -0.10413,-1.142433 -0.217964,-1.707651 l 2.143978,-1.411693 -0.600857,-1.762761 -2.561574,0.187006 c -0.228615,-0.46418 -0.489561,-0.916894 -0.779373,-1.356109 l 1.47937,-2.132108 -1.220288,-1.407698 -2.326326,1.156308 c -0.434926,-0.386145 -0.89013,-0.737487 -1.365618,-1.054022 l 0.519307,-2.509312 -1.672896,-0.822607 -1.680226,1.940521 c -0.495678,-0.16971 -1.00264,-0.304079 -1.512619,-0.405192 l -0.468463,-2.522647 -1.861484,-0.130397 -0.826537,2.428342 c -0.57731,0.03451 -1.147935,0.105554 -1.715907,0.22012 z m 3.909838,8.191631 c -0.702574,-0.294863 -1.455184,-0.39972 -2.296199,-0.236655 l -1.351164,-5.118653 c 2.220648,-0.518387 4.444547,-0.209574 6.343622,0.733087 z m 0.178932,3.212032 c 0.247979,0.939416 -0.316441,1.904682 -1.258629,2.153388 -0.942181,0.248706 -1.910211,-0.315006 -2.157459,-1.25165 -0.247979,-0.939428 0.315715,-1.907465 1.257902,-2.156171 0.939422,-0.247979 1.910206,0.315006 2.158186,1.254433 z m -4.64913,-8.335367 1.356977,5.140648 c -0.795937,0.333865 -1.35243,0.849141 -1.774385,1.505694 l -4.627593,-2.683077 c 1.135186,-1.817278 2.875976,-3.249284 5.045001,-3.963265 z m -5.436108,4.759008 4.664896,2.73511 c -0.218972,0.588255 -0.34754,1.061264 -0.212029,1.909556 l -5.289424,1.396243 c -0.433005,-2.243205 -0.07151,-4.245238 0.836557,-6.040909 z m -0.637675,6.872462 5.289424,-1.396243 c 0.281522,0.809752 0.714356,1.2996 1.305675,1.753509 L 60.900318,43.25513 C 59.11401,42.058724 57.658856,39.973359 57.108485,38.05584 Z m 4.488367,5.560599 2.805756,-4.810268 c 0.653717,0.310734 1.287448,0.467613 2.142285,0.356873 l 1.434062,5.432687 c -2.238834,0.449545 -4.49078,0.05677 -6.382103,-0.979292 z m 7.211482,0.772144 -1.428965,-5.413388 c 0.813385,-0.26773 1.323704,-0.667667 1.778961,-1.209255 l 4.83521,2.810954 c -1.186839,1.77787 -2.998006,3.166579 -5.185206,3.811689 z m 5.655303,-4.486838 -4.795146,-2.75967 c 0.400552,-0.75994 0.553886,-1.663833 0.407342,-2.509219 l 5.278415,-1.393337 c 0.464966,1.940064 0.19048,4.673551 -0.890611,6.662226 z m 0.650401,-7.482875 -5.278404,1.393343 c -0.317343,-0.800296 -0.800992,-1.37105 -1.408535,-1.797088 l 2.704995,-4.58917 c 1.811466,1.113121 3.245903,2.829708 3.981944,4.992915 z"
       id="path56769"
       clip-path="url(#SVGID_84_)"
       inkscape:export-xdpi="523"
       inkscape:export-ydpi="523" />
  </g>
</svg>
