<?xml version="1.0" encoding="UTF-8" standalone="no"?>
<svg
   xmlns:dc="http://purl.org/dc/elements/1.1/"
   xmlns:cc="http://creativecommons.org/ns#"
   xmlns:rdf="http://www.w3.org/1999/02/22-rdf-syntax-ns#"
   xmlns:svg="http://www.w3.org/2000/svg"
   xmlns="http://www.w3.org/2000/svg"
   xmlns:sodipodi="http://sodipodi.sourceforge.net/DTD/sodipodi-0.dtd"
   xmlns:inkscape="http://www.inkscape.org/namespaces/inkscape"
   sodipodi:docname="logo.svg"
   inkscape:version="1.0 (4035a4fb49, 2020-05-01)"
   id="svg4207"
   version="1.1"
   viewBox="0 0 121.17914 59.795895"
   height="226"
   width="458">
  <defs
     id="defs4201" />
  <sodipodi:namedview
     inkscape:window-maximized="1"
     inkscape:window-y="32"
     inkscape:window-x="892"
     inkscape:window-height="1017"
     inkscape:window-width="2560"
     units="px"
     showgrid="false"
     inkscape:document-rotation="0"
     inkscape:current-layer="layer1"
     inkscape:document-units="mm"
     inkscape:cy="250.22809"
     inkscape:cx="394.76834"
     inkscape:zoom="1.4"
     inkscape:pageshadow="2"
     inkscape:pageopacity="0.0"
     borderopacity="1.0"
     bordercolor="#666666"
     pagecolor="#ffffff"
     id="base" />
  <metadata
     id="metadata4204">
    <rdf:RDF>
      <cc:Work
         rdf:about="">
        <dc:format>image/svg+xml</dc:format>
        <dc:type
           rdf:resource="http://purl.org/dc/dcmitype/StillImage" />
        <dc:title></dc:title>
      </cc:Work>
    </rdf:RDF>
  </metadata>
  <g
     id="layer1"
     inkscape:groupmode="layer"
     inkscape:label="Слой 1">
    <g
       style="display:inline"
       id="g65387"
       transform="matrix(1.0386861,0,0,1.0386861,-257.51954,21.637274)">
      <g
         transform="matrix(0.19946576,0,0,0.19946576,693.13154,-158.23836)"
         style="fill:#f5ca5c;fill-opacity:1;stroke:none"
         id="g65357">
        <path
           d="m -2058.5936,832.564 c -5.2917,-7.67292 -12.4354,-13.75833 -20.9021,-17.4625 l -1.0583,-7.9375 c 1.0583,0.26459 2.1167,0.52917 2.1167,0.52917 4.7625,-1.32292 2.3812,-6.35 8.4666,-3.175 1.3229,0.79375 2.3813,1.5875 3.7042,2.38125 2.9104,1.5875 4.4979,2.38125 2.6458,5.82083 -1.8521,3.175 0.5292,4.23334 3.7042,7.14375 0.2646,0.26459 0.5292,0.52917 0.7937,0.79375 3.175,2.11667 5.0271,-3.70416 8.2021,-0.52916 0.7938,0.79375 5.0271,6.34999 5.2917,7.40833 1.3229,3.96875 -1.5875,2.91041 -2.6458,5.29166 0,0.26459 -0.2646,0.26459 -0.2646,0.26459 -2.3813,-0.52917 -5.0271,-0.79375 -7.6729,-0.79375 -0.7938,0 -1.5875,0 -2.3813,0.26458 z"
           class="fil0"
           id="path65351"
           inkscape:connector-curvature="0"
           style="clip-rule:evenodd;fill:#f5ca5c;fill-opacity:1;fill-rule:evenodd;stroke:none;stroke-width:0.264583;stroke-opacity:1;image-rendering:optimizeQuality;shape-rendering:geometricPrecision;text-rendering:geometricPrecision" />
        <path
           d="m -2146.1707,817.74734 c 0.5292,-1.32292 2.1167,-2.38125 2.9104,-3.175 0.7938,-0.79375 3.4396,-3.43959 4.498,-3.70417 4.7625,-1.5875 3.7041,3.43958 7.6729,2.38125 0.2646,-0.26458 2.6458,-1.5875 3.175,-2.11667 1.3229,-0.79375 2.3812,-1.05833 2.9104,-2.11666 1.3229,-2.64584 -1.8521,-5.02709 1.0583,-6.87917 0.2646,-0.26458 2.9104,-1.05833 5.0271,-1.85208 l -2.1167,15.34583 c -5.2916,2.38125 -10.0541,5.55625 -14.2875,9.78958 z"
           class="fil0"
           id="path65353"
           inkscape:connector-curvature="0"
           style="clip-rule:evenodd;fill:#f5ca5c;fill-opacity:1;fill-rule:evenodd;stroke:none;stroke-width:0.264583;stroke-opacity:1;image-rendering:optimizeQuality;shape-rendering:geometricPrecision;text-rendering:geometricPrecision" />
        <path
           d="m -2048.2748,889.44942 c 0.7937,1.5875 3.7041,2.11666 3.175,4.49791 -0.2646,0.79375 -4.7625,8.73125 -7.1438,9.26042 -3.9687,0.79375 -2.6458,-6.35 -11.1125,2.38125 -1.8521,2.11667 -0.2646,3.43958 0.5292,6.08542 0.5291,1.85208 -2.1167,3.175 -3.7042,3.96875 -1.3229,0.79375 -3.7042,2.64583 -5.2917,2.91041 -4.2333,1.32292 -3.175,-5.02708 -7.6729,-3.70416 -1.5875,0.52916 -2.6458,1.05833 -3.7041,1.32291 -1.5875,0.52917 -2.3813,0.79375 -2.9105,1.85209 -1.0583,2.11666 1.0584,3.70416 -1.3229,5.55625 -1.0583,0.79375 -8.9958,1.5875 -10.0541,1.32291 -3.7042,-0.52916 -1.8521,-3.175 -3.4396,-5.29166 -0.7938,-1.05834 -1.3229,-1.05834 -2.6459,-1.05834 -0.5291,-0.26458 -2.6458,-0.52916 -3.9687,-0.52916 v -6.87917 c 2.9104,0.26458 5.8208,0.52917 8.7312,0.52917 16.6688,-0.52917 31.2209,-8.73125 39.9521,-21.43125 3.7042,0.26458 7.1438,0 10.5834,-0.79375 z"
           class="fil0"
           id="path65355"
           inkscape:connector-curvature="0"
           style="clip-rule:evenodd;fill:#f5ca5c;fill-opacity:1;fill-rule:evenodd;stroke:none;stroke-width:0.264583;stroke-opacity:1;image-rendering:optimizeQuality;shape-rendering:geometricPrecision;text-rendering:geometricPrecision" />
      </g>
      <g
         id="g65373"
         style="fill:#82589f;fill-opacity:1"
         transform="matrix(0.1105042,0,0,0.1105042,132.22566,34.141621)">
        <path
           transform="matrix(0.47758647,0,0,0.47758647,1045.2818,-495.04987)"
           style="clip-rule:evenodd;fill:#82589f;fill-opacity:1;fill-rule:evenodd;stroke:none;stroke-opacity:1;image-rendering:optimizeQuality;shape-rendering:geometricPrecision;text-rendering:geometricPrecision"
           d="M 317,603 357,524 117,354 267,590 Z"
           id="polygon65359"
           inkscape:connector-curvature="0" />
        <path
           transform="matrix(0.47758647,0,0,0.47758647,1045.2818,-495.04987)"
           style="clip-rule:evenodd;fill:#82589f;fill-opacity:1;fill-rule:evenodd;stroke:none;stroke-opacity:1;image-rendering:optimizeQuality;shape-rendering:geometricPrecision;text-rendering:geometricPrecision"
           d="M 330,727 282,740 71,866 349,832 371,784 Z"
           id="polygon65361"
           inkscape:connector-curvature="0" />
        <path
           transform="matrix(0.47758647,0,0,0.47758647,1045.2818,-495.04987)"
           style="clip-rule:evenodd;fill:#82589f;fill-opacity:1;fill-rule:evenodd;stroke:none;stroke-opacity:1;image-rendering:optimizeQuality;shape-rendering:geometricPrecision;text-rendering:geometricPrecision"
           d="m 20,603 254,121 49,-14 -9,-89 -50,-13 z"
           id="polygon65363"
           inkscape:connector-curvature="0" />
        <path
           transform="matrix(0.47758647,0,0,0.47758647,1045.2818,-495.04987)"
           style="clip-rule:evenodd;fill:#82589f;fill-opacity:1;fill-rule:evenodd;stroke:none;stroke-opacity:1;image-rendering:optimizeQuality;shape-rendering:geometricPrecision;text-rendering:geometricPrecision"
           d="M 456,884 V 831 L 386,796 264,1068 Z"
           id="polygon65365"
           inkscape:connector-curvature="0" />
        <path
           transform="matrix(0.47758647,0,0,0.47758647,1045.2818,-495.04987)"
           style="clip-rule:evenodd;fill:#82589f;fill-opacity:1;fill-rule:evenodd;stroke:none;stroke-opacity:1;image-rendering:optimizeQuality;shape-rendering:geometricPrecision;text-rendering:geometricPrecision"
           d="M 503,515 572,557 503,16 433,538 Z"
           id="polygon65367"
           inkscape:connector-curvature="0" />
        <path
           id="path65369"
           d="m 1446.4545,-71.430678 h -4.7758 v -18.62587 c 0,-3.82068 -0.4776,-6.6862 -1.9105,-8.11896 -0.955,-1.43276 -2.8655,-2.387942 -5.731,-2.387942 -1.9103,0 -3.8206,0.955182 -5.7311,3.343102 -1.4326,1.91036 -2.3879,4.29828 -2.3879,7.1638 v 18.62587 h -4.7758 v -19.10345 c 0,-6.68622 -2.3879,-10.029322 -7.6415,-10.029322 -2.3879,0 -4.2982,0.955182 -5.731,2.865522 -1.4327,1.91034 -2.3879,4.77586 -2.3879,7.64138 v 18.62587 h -4.7758 v -32.475872 h 4.7758 v 5.253442 h 0.4776 c 1.9103,-4.298272 5.2534,-6.208612 10.0294,-6.208612 1.9103,0 3.8206,0.95517 5.731,1.91034 1.4327,1.43275 2.8656,2.86551 3.343,5.253452 2.3881,-4.775862 6.2087,-7.163792 10.9846,-7.163792 7.1637,0 10.5069,4.77585 10.5069,13.372412 z m 31.5207,-30.087952 c 3.3431,-2.38792 6.6863,-3.34309 10.9844,-3.34309 7.6414,0 11.4621,4.29827 11.4621,12.417252 v 21.01379 h -5.2534 v -4.77586 0 c -2.3879,3.8207 -5.731,5.73104 -10.0294,5.73104 -3.343,0 -5.731,-0.95518 -7.6413,-2.38794 -1.9103,-1.91034 -2.8655,-4.29827 -2.8655,-7.16379 0,-6.20862 3.8207,-9.55172 10.9844,-10.5069 l 9.5518,-1.43276 c 0,-5.73104 -1.9103,-8.596562 -6.6863,-8.596562 -3.8205,0 -7.6413,1.432762 -10.5068,4.298282 z m 9.5518,14.805202 c -2.8655,0.47758 -4.776,0.95516 -5.7311,1.91034 -1.4328,0.95518 -1.9104,2.38794 -1.9104,4.29828 0,1.91034 0.4776,3.3431 1.9104,4.29827 0.9551,0.95518 2.3879,1.43276 4.2982,1.43276 2.8655,0 4.7758,-0.95518 6.6863,-2.86552 1.9103,-1.91033 2.3879,-4.29827 2.3879,-7.16379 v -2.86552 z m 65.4293,13.84999 c -2.3879,1.43276 -5.731,2.38794 -9.0742,2.38794 -4.2983,0 -8.1189,-1.43276 -10.9844,-4.29828 -2.8656,-3.3431 -4.2984,-7.16379 -4.2984,-11.93965 0,-5.73104 1.4328,-10.02932 4.776,-12.89484 2.8655,-3.343112 7.1637,-5.253452 11.9395,-5.253452 2.8655,0 5.2536,0.47758 7.6415,1.91034 v 4.775872 c -2.3879,-1.43276 -5.2534,-2.387942 -7.6415,-2.387942 -3.343,0 -6.2085,1.432762 -8.5966,3.820702 -1.9103,2.38792 -3.3429,5.25344 -3.3429,9.55172 0,3.8207 1.4326,6.68622 3.3429,9.07415 1.9105,2.38792 4.776,3.3431 8.1192,3.3431 2.8655,0 5.731,-0.95518 8.1189,-2.86552 z m 55.3999,1.43276 h -4.7758 v -18.62587 c 0,-7.1638 -2.8655,-10.506902 -8.1189,-10.506902 -2.3879,0 -4.7758,0.955182 -6.2087,2.865522 -1.9103,2.38794 -2.8655,4.77586 -2.8655,8.11898 v 18.14827 h -4.7758 V -119.6669 h 4.7758 v 21.013792 0 c 2.8655,-3.820682 6.2086,-6.208612 10.9844,-6.208612 7.1639,0 10.9845,4.77585 10.9845,13.372412 z m 29.6104,-44.415542 c 0,-0.95516 0.4776,-1.43276 0.9553,-2.38792 0.955,-0.4776 1.4326,-0.95518 2.3879,-0.95518 0.9552,0 1.9102,0.47758 2.3879,0.95518 0.4776,0.95516 0.9552,1.43276 0.9552,2.38792 0,0.95518 -0.4776,1.91036 -0.9552,2.38794 -0.4777,0.95518 -1.4327,0.95518 -2.3879,0.95518 -0.9553,0 -1.4329,0 -2.3879,-0.95518 -0.4777,-0.47758 -0.9553,-1.43276 -0.9553,-2.38794 z m 0.9553,44.415542 v -32.475872 h 4.7758 v 32.475872 z m 63.0414,0 h -4.776 v -18.62587 c 0,-7.1638 -2.8655,-10.506902 -8.119,-10.506902 -2.3879,0 -4.7758,0.955182 -6.2086,2.865522 -1.9103,2.38794 -2.8655,4.77586 -2.8655,7.64138 v 18.62587 h -4.7758 v -32.475872 h 4.7758 v 5.253442 0 c 2.3881,-3.820682 6.2086,-6.208612 10.9846,-6.208612 3.343,0 6.2085,1.43276 8.119,3.82069 1.9102,1.910342 2.8655,5.253442 2.8655,10.029322 z m 56.3551,-14.80517 h -22.9241 c 0,3.8207 0.9552,6.68622 2.8655,8.59655 1.9103,1.91034 4.7758,2.86552 7.6413,2.86552 3.8208,0 7.1639,-1.43276 10.507,-3.82069 v 4.77587 c -2.8655,2.38792 -6.6862,3.3431 -11.462,3.3431 -4.776,0 -8.119,-1.43276 -10.9845,-4.77586 -2.3881,-2.86552 -3.8208,-7.16379 -3.8208,-12.41725 0,-4.77586 1.4327,-9.07414 4.2982,-11.93966 2.8656,-3.343112 6.6863,-5.253452 10.5071,-5.253452 4.2981,0 7.6413,1.43276 10.0292,4.29827 2.3879,2.865522 3.3431,6.686222 3.3431,11.462082 z m -4.7758,-4.29828 c 0,-3.3431 -0.9552,-5.73104 -2.3879,-7.1638 -1.4328,-1.91034 -3.3431,-2.865522 -6.2086,-2.865522 -2.3879,0 -4.2984,0.955182 -6.2087,2.865522 -1.9103,1.43276 -2.8655,3.8207 -3.3431,7.1638 z"
           class="fil2"
           inkscape:connector-curvature="0"
           style="clip-rule:evenodd;fill:#82589f;fill-opacity:1;fill-rule:nonzero;stroke:none;stroke-width:0.477586;stroke-opacity:1;image-rendering:optimizeQuality;shape-rendering:geometricPrecision;text-rendering:geometricPrecision" />
        <path
           id="path65371"
           d="m 1285.9854,-144.97899 c -8.1189,0 -15.2828,-1.91034 -21.4915,-5.25346 -6.6861,-3.3431 -11.462,-8.59655 -14.805,-14.80517 -3.8207,-6.20862 -5.731,-13.37242 -5.731,-21.49139 0,-7.64138 1.9103,-14.80518 5.731,-21.01381 3.343,-6.20862 8.1189,-11.46208 14.805,-14.80518 6.2087,-3.3431 13.3726,-5.25346 21.4915,-5.25346 6.6863,0 13.3724,1.43276 18.6258,4.29828 5.731,2.38794 10.0294,6.68622 12.8949,11.93968 l -8.1189,5.25344 c -2.3879,-3.82068 -5.731,-6.6862 -10.0294,-9.07414 -4.2982,-1.91034 -8.5966,-2.86552 -13.3724,-2.86552 -5.731,0 -11.4621,1.43276 -15.7604,3.8207 -4.7758,2.86552 -8.5966,6.6862 -10.9845,11.46207 -2.8655,4.77586 -4.2982,10.02932 -4.2982,16.23794 0,6.20862 1.4327,11.93965 4.2982,16.71553 2.3879,4.77586 6.2087,8.59656 10.9845,10.98448 4.2983,2.86552 10.0294,4.29828 15.7604,4.29828 4.7758,0 9.0742,-0.95516 13.3724,-3.3431 4.2984,-1.91034 7.6415,-4.77586 10.0294,-8.59656 l 8.1189,5.25346 c -2.8655,5.25344 -7.1639,9.55171 -12.8949,11.93965 -5.731,2.86552 -11.9395,4.29828 -18.6258,4.29828 z m 85.0104,0 c -8.119,0 -14.8053,-1.91034 -21.0137,-5.25346 -6.6863,-3.82068 -11.4621,-8.59655 -14.8052,-14.80517 -3.8208,-6.20862 -5.7311,-13.37242 -5.7311,-21.49139 0,-7.64138 1.9103,-14.80518 5.7311,-21.01381 3.3431,-6.20862 8.1189,-11.46208 14.8052,-14.80518 6.2084,-3.3431 12.8947,-5.25346 21.0137,-5.25346 7.6415,0 14.8052,1.91036 21.0138,5.25346 6.2087,3.3431 11.4621,8.59656 14.8052,14.80518 3.3432,6.20863 5.2535,13.37243 5.2535,21.01381 0,8.11897 -1.9103,15.28277 -5.2535,21.49139 -3.3431,6.20862 -8.5965,10.98449 -14.8052,14.80517 -6.2086,3.34312 -13.3723,5.25346 -21.0138,5.25346 z m 0,-9.55173 c 5.731,0 10.9844,-1.43276 15.2828,-4.29828 4.7758,-2.38792 8.1189,-6.20862 10.9844,-10.98448 2.3879,-4.77588 3.8208,-10.50691 3.8208,-16.71553 0,-6.20862 -1.4329,-11.46208 -3.8208,-16.23794 -2.8655,-4.77587 -6.2086,-8.59655 -10.9844,-11.46207 -4.2984,-2.38794 -9.5518,-3.8207 -15.2828,-3.8207 -5.7311,0 -10.9845,1.43276 -15.7603,3.8207 -4.2984,2.86552 -8.1189,6.6862 -10.507,11.46207 -2.8656,4.77586 -3.8206,10.02932 -3.8206,16.23794 0,6.20862 0.955,11.93965 3.8206,16.71553 2.3881,4.77586 6.2086,8.59656 10.507,10.98448 4.7758,2.86552 10.0292,4.29828 15.7603,4.29828 z m 105.0691,-73.07074 c 10.0292,0 18.1482,2.86552 23.8792,9.07416 6.2087,5.73104 9.0742,14.32759 9.0742,25.78967 v 46.80346 h -10.9845 v -45.8483 c 0,-8.59656 -1.9103,-14.80517 -6.2086,-19.10345 -4.2982,-4.77586 -10.0293,-6.68622 -18.1484,-6.68622 -8.5965,0 -15.2826,2.38794 -20.5361,7.6414 -5.2536,5.25344 -7.6415,12.41723 -7.6415,21.49139 v 42.50518 h -10.9844 v -81.18969 h 10.5068 v 15.28276 c 2.8655,-5.25344 7.1639,-9.07414 12.4173,-11.46208 5.2535,-2.86552 11.4621,-4.29828 18.626,-4.29828 z m 129.4258,0.4776 -35.8189,81.18969 h -11.4621 l -35.8191,-81.18969 h 11.4621 l 30.0881,69.25004 31.043,-69.25004 z m 84.0553,43.93795 h -67.8173 c 0.4777,8.59655 3.8206,15.28277 9.5517,20.53623 5.731,5.25344 13.3725,8.11896 21.9691,8.11896 5.2534,0 10.0292,-0.95516 14.3275,-2.86552 3.8206,-1.91034 7.6414,-4.29828 10.9845,-8.11896 l 5.731,7.1638 c -3.3431,4.29827 -8.1189,7.64137 -13.3723,10.02931 -5.2536,2.38792 -11.4621,3.3431 -17.6707,3.3431 -8.5966,0 -15.7605,-1.91034 -22.4466,-5.25346 -6.2086,-3.82068 -10.9846,-8.59655 -14.8052,-14.80517 -3.8207,-6.20862 -5.2534,-13.37242 -5.2534,-21.49139 0,-7.64138 1.4327,-14.80518 4.7758,-21.01381 3.8207,-6.20862 8.5965,-11.46208 14.3276,-14.80518 6.2086,-3.3431 12.8947,-5.25346 20.5362,-5.25346 7.1637,0 14.3276,1.91036 20.0587,5.25346 6.2086,3.3431 10.5068,8.59656 13.8499,14.80518 3.8208,6.20863 5.2535,13.37243 5.2535,21.01381 z m -39.1621,-34.86381 c -8.1189,0 -14.3276,2.38794 -19.581,7.1638 -5.731,5.25345 -8.5965,11.93965 -9.0742,19.58105 h 57.3104 c -0.4776,-7.6414 -3.8207,-14.3276 -9.0741,-19.58105 -5.2535,-4.77586 -11.9397,-7.1638 -19.5811,-7.1638 z m 103.1587,-9.55174 c 10.0292,0 18.1482,2.86552 23.8792,9.07416 6.2087,5.73104 9.0742,14.32759 9.0742,25.78967 v 46.80346 h -10.9845 v -45.8483 c 0,-8.59656 -1.9103,-14.80517 -6.2086,-19.10345 -4.2982,-4.77586 -10.0292,-6.68622 -18.1482,-6.68622 -8.5965,0 -15.2828,2.38794 -20.5362,7.6414 -5.2535,5.25344 -7.6415,12.41723 -7.6415,21.49139 v 42.50518 h -10.9845 v -81.18969 h 10.507 v 15.28276 c 2.8655,-5.25344 7.1637,-9.07414 12.4172,-11.46208 5.2534,-2.86552 11.462,-4.29828 18.6259,-4.29828 z m 105.5466,76.89143 c -1.9103,1.91034 -4.2984,3.3431 -7.6413,4.29828 -2.8655,0.95518 -6.2087,1.43276 -9.5518,1.43276 -7.6413,0 -13.3724,-1.91034 -17.1931,-6.20862 -4.2984,-4.29827 -6.2087,-10.02931 -6.2087,-17.19311 v -49.19142 h -14.8052 v -9.55172 h 14.8052 v -17.67071 h 10.9845 v 17.67071 h 24.357 v 9.55172 h -24.357 v 48.23624 c 0,4.77586 0.9552,8.59656 3.3431,10.9845 2.3879,2.86552 5.731,3.82068 10.5069,3.82068 2.388,0 4.2983,-0.47758 6.6862,-0.95516 1.9103,-0.95518 3.8208,-1.91036 5.2534,-2.86552 z m 20.0586,-76.41383 h 10.9845 v 81.18969 h -10.9845 z m 5.7311,-17.67071 c -2.3879,0 -4.2984,-0.47758 -5.7311,-2.38792 -1.9103,-1.43276 -2.3879,-3.34312 -2.3879,-5.25346 0,-2.38793 0.4776,-3.82069 2.3879,-5.73103 1.4327,-1.43276 3.3432,-1.91034 5.7311,-1.91034 1.9103,0 3.8207,0.47758 5.731,1.91034 1.4327,1.43276 1.9103,3.3431 1.9103,5.25345 0,2.38792 -0.4776,4.29828 -1.9103,5.73104 -1.9103,1.91034 -3.8207,2.38792 -5.731,2.38792 z m 68.7724,99.81558 c -7.6413,0 -14.8052,-1.91034 -21.0138,-5.25346 -6.2087,-3.82068 -10.9845,-8.59655 -14.8053,-14.80517 -3.8205,-6.20862 -5.2534,-13.37242 -5.2534,-21.49139 0,-7.64138 1.4329,-14.80518 5.2534,-21.01381 3.8208,-6.20862 8.5966,-11.46208 14.8053,-14.80518 6.2086,-3.3431 13.3725,-5.25346 21.0138,-5.25346 8.119,0 14.8052,1.91036 21.4913,5.25346 6.2087,3.3431 10.9847,8.59656 14.3276,14.80518 3.8208,6.20863 5.7311,13.37243 5.7311,21.01381 0,8.11897 -1.9103,15.28277 -5.7311,21.49139 -3.3429,6.20862 -8.1189,10.98449 -14.3276,14.80517 -6.6861,3.34312 -13.3723,5.25346 -21.4913,5.25346 z m 0,-9.55173 c 5.7311,0 10.9845,-1.43276 15.7603,-4.29828 4.2984,-2.38792 8.1191,-6.20862 10.507,-10.98448 2.8655,-4.77588 3.8206,-10.50691 3.8206,-16.71553 0,-6.20862 -0.9551,-11.46208 -3.8206,-16.23794 -2.3879,-4.77587 -6.2086,-8.59655 -10.507,-11.46207 -4.7758,-2.38794 -10.0292,-3.8207 -15.7603,-3.8207 -5.731,0 -10.9844,1.43276 -15.2828,3.8207 -4.7758,2.86552 -8.1189,6.6862 -10.9845,11.46207 -2.3879,4.77586 -3.8207,10.02932 -3.8207,16.23794 0,6.20862 1.4328,11.93965 3.8207,16.71553 2.8656,4.77586 6.2087,8.59656 10.9845,10.98448 4.2984,2.86552 9.5518,4.29828 15.2828,4.29828 z m 105.069,-73.07074 c 10.0294,0 18.1483,2.86552 24.357,9.07416 6.2086,5.73104 9.0742,14.32759 9.0742,25.78967 v 46.80346 h -10.9847 v -45.8483 c 0,-8.59656 -2.3879,-14.80517 -6.2085,-19.10345 -4.2983,-4.77586 -10.507,-6.68622 -18.1483,-6.68622 -8.5966,0 -15.7604,2.38794 -21.0139,7.6414 -4.7758,5.25344 -7.6413,12.41723 -7.6413,21.49139 v 42.50518 h -10.9845 v -81.18969 h 10.5069 v 15.28276 c 3.3431,-5.25344 7.1639,-9.07414 12.4173,-11.46208 5.731,-2.86552 11.4621,-4.29828 18.6258,-4.29828 z"
           class="fil2"
           inkscape:connector-curvature="0"
           style="clip-rule:evenodd;fill:#82589f;fill-opacity:1;fill-rule:nonzero;stroke:none;stroke-width:0.477586;stroke-opacity:1;image-rendering:optimizeQuality;shape-rendering:geometricPrecision;text-rendering:geometricPrecision" />
      </g>
    </g>
  </g>
</svg>
